<svg width="56" height="56" viewBox="0 0 56 56" fill="none" xmlns="http://www.w3.org/2000/svg">
<circle cx="28" cy="28" r="28" fill="white"/>
<path fill-rule="evenodd" clip-rule="evenodd" d="M28 35C31.866 35 35 31.866 35 28C35 24.134 31.866 21 28 21C24.134 21 21 24.134 21 28C21 31.866 24.134 35 28 35ZM28 32.6667C30.5773 32.6667 32.6667 30.5773 32.6667 28C32.6667 25.4227 30.5773 23.3333 28 23.3333C25.4227 23.3333 23.3333 25.4227 23.3333 28C23.3333 30.5773 25.4227 32.6667 28 32.6667Z" fill="#157EFC"/>
<path d="M34.9999 19.8333C34.3556 19.8333 33.8333 20.3557 33.8333 21C33.8333 21.6443 34.3556 22.1667 34.9999 22.1667C35.6443 22.1667 36.1666 21.6443 36.1666 21C36.1666 20.3557 35.6443 19.8333 34.9999 19.8333Z" fill="#157EFC"/>
<path fill-rule="evenodd" clip-rule="evenodd" d="M15.9297 18.9887C15.1667 20.4861 15.1667 22.4463 15.1667 26.3667V29.6333C15.1667 33.5537 15.1667 35.5139 15.9297 37.0112C16.6008 38.3284 17.6717 39.3993 18.9888 40.0703C20.4862 40.8333 22.4464 40.8333 26.3667 40.8333H29.6334C33.5538 40.8333 35.514 40.8333 37.0113 40.0703C38.3285 39.3993 39.3993 38.3284 40.0704 37.0112C40.8334 35.5139 40.8334 33.5537 40.8334 29.6333V26.3667C40.8334 22.4463 40.8334 20.4861 40.0704 18.9887C39.3993 17.6716 38.3285 16.6007 37.0113 15.9296C35.514 15.1667 33.5538 15.1667 29.6334 15.1667H26.3667C22.4464 15.1667 20.4862 15.1667 18.9888 15.9296C17.6717 16.6007 16.6008 17.6716 15.9297 18.9887ZM29.6334 17.5H26.3667C24.3681 17.5 23.0094 17.5018 21.9592 17.5876C20.9362 17.6712 20.4131 17.8227 20.0481 18.0086C19.17 18.4561 18.4561 19.17 18.0087 20.0481C17.8228 20.413 17.6713 20.9361 17.5877 21.9591C17.5019 23.0093 17.5001 24.368 17.5001 26.3667V29.6333C17.5001 31.6321 17.5019 32.9907 17.5877 34.0409C17.6713 35.0639 17.8228 35.5871 18.0087 35.952C18.4561 36.83 19.17 37.5439 20.0481 37.9913C20.4131 38.1773 20.9362 38.3288 21.9592 38.4124C23.0094 38.4981 24.3681 38.5 26.3667 38.5H29.6334C31.6321 38.5 32.9907 38.4981 34.041 38.4124C35.064 38.3288 35.5871 38.1773 35.9521 37.9913C36.8301 37.5439 37.544 36.83 37.9914 35.952C38.1774 35.5871 38.3289 35.0639 38.4125 34.0409C38.4982 32.9907 38.5001 31.6321 38.5001 29.6333V26.3667C38.5001 24.368 38.4982 23.0093 38.4125 21.9591C38.3289 20.9361 38.1774 20.413 37.9914 20.0481C37.544 19.17 36.8301 18.4561 35.9521 18.0086C35.5871 17.8227 35.064 17.6712 34.041 17.5876C32.9907 17.5018 31.6321 17.5 29.6334 17.5Z" fill="#157EFC"/>
</svg>
