<svg width="126" height="96" viewBox="0 0 126 96" fill="none" xmlns="http://www.w3.org/2000/svg">
<path d="M125.805 94.9019H122.823V89.5613H125.805V90.1522H123.496V91.8202H125.671V92.4036H123.496V94.311H125.805V94.9019Z" fill="#157EFC"/>
<path d="M119.655 89.5613C120.098 89.5613 120.462 89.6187 120.746 89.7334C121.035 89.8431 121.249 90.0101 121.389 90.2345C121.528 90.4589 121.598 90.7406 121.598 91.0797C121.598 91.364 121.546 91.6008 121.441 91.7903C121.336 91.9798 121.202 92.1319 121.037 92.2466C120.878 92.3563 120.709 92.4435 120.529 92.5084L121.994 94.9019H121.209L119.916 92.6954H118.855V94.9019H118.182V89.5613H119.655ZM119.617 90.1448H118.855V92.1269H119.655C119.944 92.1269 120.18 92.0895 120.365 92.0147C120.549 91.9349 120.684 91.8202 120.768 91.6706C120.858 91.521 120.903 91.334 120.903 91.1096C120.903 90.8753 120.855 90.6883 120.761 90.5487C120.671 90.409 120.532 90.3068 120.342 90.242C120.153 90.1772 119.911 90.1448 119.617 90.1448Z" fill="#157EFC"/>
<path d="M117.01 94.9019H114.028V89.5613H117.01V90.1522H114.7V91.8202H116.875V92.4036H114.7V94.311H117.01V94.9019Z" fill="#157EFC"/>
<path d="M112.562 94.9019H111.89V92.4111H109.154V94.9019H108.482V89.5613H109.154V91.8202H111.89V89.5613H112.562V94.9019Z" fill="#157EFC"/>
<path d="M107.669 89.5613L106.249 94.9019H105.569L104.53 91.4014C104.5 91.2966 104.47 91.1894 104.441 91.0797C104.411 90.97 104.383 90.8653 104.358 90.7656C104.333 90.6659 104.311 90.5811 104.291 90.5113C104.276 90.4365 104.266 90.3816 104.261 90.3467C104.256 90.3816 104.246 90.4365 104.231 90.5113C104.221 90.5811 104.204 90.6659 104.179 90.7656C104.154 90.8653 104.127 90.9725 104.097 91.0872C104.072 91.1969 104.042 91.3091 104.007 91.4238L102.998 94.9019H102.318L100.906 89.5613H101.608L102.438 92.8225C102.468 92.9372 102.495 93.0519 102.52 93.1666C102.545 93.2763 102.567 93.386 102.587 93.4957C102.612 93.6004 102.632 93.7026 102.647 93.8024C102.662 93.9021 102.677 93.9993 102.692 94.0941C102.707 93.9943 102.722 93.8921 102.737 93.7874C102.757 93.6827 102.779 93.5755 102.804 93.4658C102.829 93.3511 102.856 93.2364 102.886 93.1217C102.916 93.007 102.946 92.8948 102.976 92.7851L103.917 89.5613H104.612L105.592 92.8076C105.626 92.9222 105.659 93.0394 105.689 93.1591C105.719 93.2738 105.746 93.386 105.771 93.4957C105.796 93.6054 105.816 93.7126 105.831 93.8173C105.851 93.9171 105.868 94.0093 105.883 94.0941C105.898 93.9694 105.918 93.8398 105.943 93.7051C105.968 93.5655 105.998 93.4209 106.033 93.2713C106.067 93.1217 106.105 92.9696 106.145 92.815L106.967 89.5613H107.669Z" fill="#157EFC"/>
<path d="M98.6912 92.1867L100.081 89.5613H100.806L99.0276 92.83V94.9019H98.3549V92.8599L96.5762 89.5613H97.3086L98.6912 92.1867Z" fill="#157EFC"/>
<path d="M95.8605 94.9019H95.0758L92.2208 90.4664H92.1909C92.1959 90.5561 92.2009 90.6559 92.2059 90.7656C92.2158 90.8753 92.2233 90.995 92.2283 91.1246C92.2333 91.2493 92.2382 91.3789 92.2432 91.5136C92.2482 91.6482 92.2507 91.7828 92.2507 91.9175V94.9019H91.6304V89.5613H92.4076L95.2552 93.9819H95.2851C95.2801 93.922 95.2751 93.8398 95.2701 93.735C95.2651 93.6253 95.2601 93.5057 95.2552 93.376C95.2502 93.2414 95.2452 93.1043 95.2402 92.9646C95.2352 92.825 95.2327 92.6954 95.2327 92.5757V89.5613H95.8605V94.9019Z" fill="#157EFC"/>
<path d="M90.1965 94.9032L89.5537 93.2502H87.4387L86.8034 94.9032H86.1233L88.2085 89.5402H88.8138L90.8916 94.9032H90.1965ZM88.7541 91.0362C88.7391 90.9963 88.7142 90.924 88.6793 90.8193C88.6444 90.7145 88.6096 90.6073 88.5747 90.4976C88.5448 90.3829 88.5199 90.2957 88.4999 90.2358C88.475 90.3356 88.4476 90.4378 88.4177 90.5425C88.3928 90.6422 88.3654 90.7345 88.3355 90.8193C88.3106 90.904 88.2882 90.9763 88.2683 91.0362L87.6629 92.6518H89.352L88.7541 91.0362Z" fill="#157EFC"/>
<path d="M82.6174 94.1227H83.402V95.0175C83.402 95.6724 83.1405 95.9999 82.6174 95.9999V95.7151C82.8315 95.7053 82.9641 95.6225 83.0152 95.4667C83.0493 95.3717 83.0663 95.2269 83.0663 95.0321V94.9006H82.6174V94.1227Z" fill="#157EFC"/>
<path d="M81.5226 94.9019H78.5405V89.5613H81.5226V90.1522H79.2132V91.8202H81.388V92.4036H79.2132V94.311H81.5226V94.9019Z" fill="#157EFC"/>
<path d="M74.1096 94.9019L72.3533 90.2196H72.3234C72.3333 90.3193 72.3408 90.4464 72.3458 90.601C72.3558 90.7556 72.3632 90.9251 72.3682 91.1096C72.3732 91.2892 72.3757 91.4737 72.3757 91.6632V94.9019H71.7554V89.5613H72.7494L74.3936 93.937H74.4235L76.0976 89.5613H77.0842V94.9019H76.419V91.6183C76.419 91.4437 76.4215 91.2717 76.4265 91.1022C76.4315 90.9276 76.4389 90.7656 76.4489 90.616C76.4589 90.4614 76.4663 90.3318 76.4713 90.227H76.4414L74.6627 94.9019H74.1096Z" fill="#157EFC"/>
<path d="M70.7305 94.9019H68.8022V94.5129L69.43 94.3708V90.0999L68.8022 89.9503V89.5613H70.7305V89.9503L70.1027 90.0999V94.3708L70.7305 94.5129V94.9019Z" fill="#157EFC"/>
<path d="M66.759 94.9019H66.0863V90.1522H64.4197V89.5613H68.4181V90.1522H66.759V94.9019Z" fill="#157EFC"/>
<path d="M62.2296 92.1867L63.6197 89.5613H64.3446L62.5659 92.83V94.9019H61.8933V92.8599L60.1145 89.5613H60.8469L62.2296 92.1867Z" fill="#157EFC"/>
<path d="M59.3918 94.9019H58.607L55.752 90.4664H55.7222C55.7271 90.5561 55.7321 90.6559 55.7371 90.7656C55.7471 90.8753 55.7545 90.995 55.7595 91.1246C55.7645 91.2493 55.7695 91.3789 55.7745 91.5136C55.7795 91.6482 55.7819 91.7828 55.7819 91.9175V94.9019H55.1616V89.5613H55.9389L58.7864 93.9819H58.8163C58.8113 93.922 58.8063 93.8398 58.8013 93.735C58.7964 93.6253 58.7914 93.5057 58.7864 93.376C58.7814 93.2414 58.7764 93.1043 58.7714 92.9646C58.7665 92.825 58.764 92.6954 58.764 92.5757V89.5613H59.3918V94.9019Z" fill="#157EFC"/>
<path d="M53.7373 94.9032L53.0945 93.2502H50.9794L50.3442 94.9032H49.6641L51.7492 89.5402H52.3546L54.4323 94.9032H53.7373ZM52.2948 91.0362C52.2799 90.9963 52.255 90.924 52.2201 90.8193C52.1852 90.7145 52.1503 90.6073 52.1155 90.4976C52.0856 90.3829 52.0606 90.2957 52.0407 90.2358C52.0158 90.3356 51.9884 90.4378 51.9585 90.5425C51.9336 90.6422 51.9062 90.7345 51.8763 90.8193C51.8514 90.904 51.829 90.9763 51.809 91.0362L51.2037 92.6518H52.8927L52.2948 91.0362Z" fill="#157EFC"/>
<path d="M47.1375 94.9019H44.1555V89.5613H47.1375V90.1522H44.8282V91.8202H47.003V92.4036H44.8282V94.311H47.1375V94.9019Z" fill="#157EFC"/>
<path d="M40.9777 89.5613C41.4211 89.5613 41.7849 89.6187 42.0689 89.7334C42.3579 89.8431 42.5721 90.0101 42.7116 90.2345C42.8511 90.4589 42.9209 90.7406 42.9209 91.0797C42.9209 91.364 42.8686 91.6008 42.7639 91.7903C42.6593 91.9798 42.5248 92.1319 42.3603 92.2466C42.2009 92.3563 42.0315 92.4435 41.8521 92.5084L43.317 94.9019H42.5322L41.2393 92.6954H40.178V94.9019H39.5054V89.5613H40.9777ZM40.9403 90.1448H40.178V92.1269H40.9777C41.2667 92.1269 41.5034 92.0895 41.6877 92.0147C41.8721 91.9349 42.0066 91.8202 42.0913 91.6706C42.181 91.521 42.2258 91.334 42.2258 91.1096C42.2258 90.8753 42.1785 90.6883 42.0838 90.5487C41.9941 90.409 41.8546 90.3068 41.6653 90.242C41.4759 90.1772 41.2343 90.1448 40.9403 90.1448Z" fill="#157EFC"/>
<path d="M38.0827 94.9032L37.44 93.2502H35.3249L34.6896 94.9032H34.0095L36.0947 89.5402H36.7001L38.7778 94.9032H38.0827ZM36.6403 91.0362C36.6253 90.9963 36.6004 90.924 36.5655 90.8193C36.5307 90.7145 36.4958 90.6073 36.4609 90.4976C36.431 90.3829 36.4061 90.2957 36.3862 90.2358C36.3613 90.3356 36.3339 90.4378 36.304 90.5425C36.279 90.6422 36.2516 90.7345 36.2217 90.8193C36.1968 90.904 36.1744 90.9763 36.1545 91.0362L35.5491 92.6518H37.2382L36.6403 91.0362Z" fill="#157EFC"/>
<path d="M32.2985 90.0776C32.0145 90.0776 31.7579 90.1275 31.5287 90.2272C31.2995 90.3219 31.1051 90.464 30.9457 90.6535C30.7863 90.838 30.6642 91.0649 30.5795 91.3342C30.4948 91.5985 30.4524 91.8977 30.4524 92.2318C30.4524 92.6706 30.5197 93.052 30.6542 93.3762C30.7937 93.7003 30.998 93.9496 31.2671 94.1241C31.5411 94.2987 31.8824 94.3859 32.291 94.3859C32.5252 94.3859 32.7469 94.366 32.9561 94.3261C33.1654 94.2862 33.3697 94.2363 33.569 94.1765V94.7599C33.3697 94.8347 33.1629 94.8896 32.9487 94.9245C32.7394 94.9594 32.4878 94.9768 32.1938 94.9768C31.6507 94.9768 31.1973 94.8646 30.8336 94.6402C30.4699 94.4159 30.1958 94.0967 30.0115 93.6828C29.8321 93.269 29.7424 92.7828 29.7424 92.2243C29.7424 91.8204 29.7972 91.4514 29.9069 91.1173C30.0215 90.7832 30.1859 90.494 30.4001 90.2496C30.6193 90.0053 30.8884 89.8183 31.2073 89.6886C31.5262 89.554 31.8924 89.4867 32.3059 89.4867C32.58 89.4867 32.844 89.5141 33.0981 89.569C33.3523 89.6238 33.579 89.7011 33.7783 89.8008L33.5092 90.3693C33.3448 90.2945 33.1604 90.2272 32.9561 90.1674C32.7568 90.1075 32.5376 90.0776 32.2985 90.0776Z" fill="#157EFC"/>
<path d="M26.4767 94.9019H25.804V92.4111H23.0686V94.9019H22.396V89.5613H23.0686V91.8202H25.804V89.5613H26.4767V94.9019Z" fill="#157EFC"/>
<path d="M19.9272 94.9019H19.2545V90.1522H17.5879V89.5613H21.5863V90.1522H19.9272V94.9019Z" fill="#157EFC"/>
<path d="M14.4741 94.9019V89.5613H15.1468V94.3035H17.4786V94.9019H14.4741Z" fill="#157EFC"/>
<path d="M13.0363 94.9032L12.3936 93.2502H10.2785L9.64324 94.9032H8.96313L11.0483 89.5402H11.6537L13.7314 94.9032H13.0363ZM11.5939 91.0362C11.5789 90.9963 11.554 90.924 11.5192 90.8193C11.4843 90.7145 11.4494 90.6073 11.4145 90.4976C11.3846 90.3829 11.3597 90.2957 11.3398 90.2358C11.3149 90.3356 11.2875 90.4378 11.2576 90.5425C11.2327 90.6422 11.2053 90.7345 11.1754 90.8193C11.1504 90.904 11.128 90.9763 11.1081 91.0362L10.5027 92.6518H12.1918L11.5939 91.0362Z" fill="#157EFC"/>
<path d="M8.52329 94.9019H5.54126V89.5613H8.52329V90.1522H6.2139V91.8202H8.38876V92.4036H6.2139V94.311H8.52329V94.9019Z" fill="#157EFC"/>
<path d="M4.08067 94.9019H3.40803V92.4111H0.672639V94.9019H0V89.5613H0.672639V91.8202H3.40803V89.5613H4.08067V94.9019Z" fill="#157EFC"/>
<path fill-rule="evenodd" clip-rule="evenodd" d="M47.2729 42.8559C46.6304 42.2129 46.6304 41.1699 47.2729 40.5269C47.9147 39.8847 48.9547 39.8847 49.5964 40.5269L62.6196 53.5581L75.6428 40.5269C76.2846 39.8847 77.3246 39.8847 77.9663 40.5269C78.6089 41.1699 78.6089 42.2129 77.9663 42.8559L62.6196 58.2121L47.2729 42.8559Z" fill="#FF5CAE"/>
<path fill-rule="evenodd" clip-rule="evenodd" d="M57.1095 5.43651L90.999 38.2871C91.6516 38.9198 91.6682 39.9627 91.0359 40.6158C90.4043 41.2681 89.3646 41.2846 88.7127 40.6527L54.7935 7.7732C51.8766 4.85457 45.5547 2.21216 39.4028 6.82897L39.3662 6.85637L39.3283 6.8817C37.8607 7.86067 35.3746 10.1079 34.0288 13.1683C32.7421 16.0944 32.4466 19.8491 35.3327 24.2441L46.2104 36.2172L43.7768 38.4308L32.7313 26.2731L32.6629 26.1703C29.0423 20.7362 29.3003 15.7505 31.0185 11.843C32.6758 8.07405 35.6409 5.39618 37.4656 4.16929C45.3277 -1.70169 53.4499 1.78275 57.1095 5.43651Z" fill="#FF5CAE"/>
<path fill-rule="evenodd" clip-rule="evenodd" d="M70.3971 6.72055L66.578 10.5421L62.7588 14.3636L60.4333 12.0366L68.1413 4.32386L68.1774 4.29173C70.0205 2.65241 73.269 0.728912 77.1742 0.163477C81.15 -0.41219 85.7523 0.43439 90.0845 4.28229C91.5788 5.56907 94.2225 8.83611 95.5067 12.9878C96.825 17.2494 96.7235 22.5401 92.4327 27.4468L92.3967 27.4881L81.3953 38.4962L79.0698 36.1693L89.9927 25.2396C93.3413 21.3831 93.4183 17.3659 92.365 13.9608C91.2773 10.4448 88.9983 7.68492 87.9325 6.77083L87.91 6.75153C84.3522 3.58706 80.737 2.97271 77.6451 3.42038C74.5046 3.87511 71.8506 5.44028 70.3971 6.72055Z" fill="#FF5CAE"/>
<path d="M58.28 33.7182H61.9049V37.28H58.28V33.7182Z" fill="#157EFC"/>
<path d="M58.252 39.061H61.8768V42.6228H58.252V39.061Z" fill="#157EFC"/>
<path d="M63.6891 39.061H67.3139V42.6228H63.6891V39.061Z" fill="#157EFC"/>
<path d="M63.6891 33.7182H67.3139V37.28H63.6891V33.7182Z" fill="#157EFC"/>
<path d="M58.28 33.7182H61.9049V37.28H58.28V33.7182Z" fill="#157EFC"/>
<path d="M58.252 39.061H61.8768V42.6228H58.252V39.061Z" fill="#157EFC"/>
<path d="M63.6891 39.061H67.3139V42.6228H63.6891V39.061Z" fill="#157EFC"/>
<path d="M63.6891 33.7182H67.3139V37.28H63.6891V33.7182Z" fill="#157EFC"/>
<path fill-rule="evenodd" clip-rule="evenodd" d="M62.6167 17.4467L87.7782 41.529C88.4349 42.1575 88.458 43.2002 87.8299 43.8573C87.2025 44.5136 86.1628 44.5368 85.507 43.909L62.6167 22.0005L39.7265 43.909C39.0707 44.5368 38.031 44.5136 37.4036 43.8573C36.7755 43.2002 36.7986 42.1575 37.4553 41.529L62.6167 17.4467Z" fill="#157EFC"/>
<path d="M120.26 82.9074C119.876 82.9074 119.563 82.7821 119.321 82.5316C119.079 82.281 118.958 81.947 118.958 81.5294V70.6057C118.958 70.2048 119.075 69.8875 119.309 69.6536C119.543 69.4114 119.839 69.2903 120.198 69.2903C120.565 69.2903 120.861 69.4114 121.086 69.6536C121.32 69.8875 121.437 70.2048 121.437 70.6057V71.7457H121.487C121.679 71.0274 122.046 70.4428 122.588 69.9919C123.139 69.5325 123.74 69.3029 124.391 69.3029C124.633 69.3029 124.842 69.3321 125.017 69.3906C125.192 69.4407 125.338 69.52 125.455 69.6286C125.572 69.7204 125.659 69.8457 125.718 70.0044C125.776 70.1631 125.805 70.3385 125.805 70.5305C125.805 70.9314 125.672 71.2404 125.405 71.4575C125.28 71.5661 125.117 71.6496 124.917 71.7081C124.725 71.7582 124.491 71.7833 124.216 71.7833C123.273 71.7916 122.593 72.0797 122.175 72.6476C121.767 73.2072 121.562 73.8962 121.562 74.7146V81.5294C121.562 81.947 121.441 82.281 121.199 82.5316C120.965 82.7821 120.652 82.9074 120.26 82.9074Z" fill="#157EFC"/>
<path d="M109.778 82.8927C108.668 82.8927 107.696 82.6129 106.862 82.0533C106.027 81.4938 105.381 80.7046 104.922 79.6857C104.463 78.6668 104.233 77.4684 104.233 76.0904C104.233 74.7124 104.463 73.514 104.922 72.4951C105.381 71.4762 106.023 70.6912 106.849 70.14C107.675 69.5804 108.639 69.3007 109.741 69.3007C110.375 69.3007 110.959 69.4009 111.493 69.6013C112.027 69.8017 112.494 70.0815 112.895 70.4406C113.304 70.7914 113.629 71.209 113.871 71.6934H113.934V65.7304C113.934 65.3045 114.055 64.9704 114.297 64.7282C114.539 64.4777 114.852 64.3524 115.236 64.3524C115.611 64.3524 115.92 64.4777 116.162 64.7282C116.412 64.9704 116.538 65.3045 116.538 65.7304V81.6149C116.538 82.0074 116.417 82.3206 116.175 82.5544C115.941 82.7883 115.636 82.9052 115.261 82.9052C114.885 82.9052 114.568 82.7924 114.309 82.567C114.059 82.3331 113.934 82.0158 113.934 81.6149V80.3246H113.884C113.659 80.8424 113.354 81.2934 112.97 81.6775C112.586 82.0617 112.127 82.3623 111.593 82.5795C111.068 82.7883 110.463 82.8927 109.778 82.8927ZM110.429 80.6754C111.138 80.6754 111.756 80.4874 112.282 80.1116C112.807 79.7358 113.216 79.2055 113.508 78.5207C113.8 77.8275 113.946 77.0216 113.946 76.1029C113.946 75.1759 113.8 74.37 113.508 73.6852C113.216 73.0004 112.807 72.47 112.282 72.0942C111.756 71.7101 111.138 71.518 110.429 71.518C109.703 71.518 109.073 71.7059 108.539 72.0817C108.013 72.4575 107.609 72.9878 107.325 73.6726C107.041 74.3491 106.899 75.155 106.899 76.0904C106.899 77.0341 107.041 77.8484 107.325 78.5332C107.609 79.218 108.013 79.7483 108.539 80.1242C109.073 80.4916 109.703 80.6754 110.429 80.6754Z" fill="#157EFC"/>
<path d="M101.131 82.8052C100.688 82.8052 100.309 82.6506 99.9917 82.3416C99.6829 82.0326 99.5286 81.6526 99.5286 81.2017C99.5286 80.759 99.6829 80.3832 99.9917 80.0742C100.309 79.7652 100.688 79.6107 101.131 79.6107C101.573 79.6107 101.949 79.7652 102.257 80.0742C102.574 80.3832 102.733 80.759 102.733 81.2017C102.733 81.6526 102.574 82.0326 102.257 82.3416C101.949 82.6506 101.573 82.8052 101.131 82.8052Z" fill="#157EFC"/>
<path d="M92.0676 79.5354V71.5932H91.0913C90.7491 71.5932 90.4779 71.5013 90.2776 71.3176C90.0857 71.1338 89.9897 70.8791 89.9897 70.5534C89.9897 70.2277 90.0857 69.9771 90.2776 69.8018C90.4779 69.618 90.7491 69.5262 91.0913 69.5262H92.0676V67.5093C92.0676 67.0917 92.1844 66.7576 92.4181 66.5071C92.6601 66.2566 92.9772 66.1313 93.3694 66.1313C93.7616 66.1313 94.0745 66.2566 94.3082 66.5071C94.5502 66.7576 94.6712 67.0917 94.6712 67.5093V69.5262H96.2358C96.5863 69.5262 96.8575 69.618 97.0494 69.8018C97.2414 69.9771 97.3373 70.2277 97.3373 70.5534C97.3373 70.8791 97.2414 71.1338 97.0494 71.3176C96.8575 71.5013 96.5863 71.5932 96.2358 71.5932H94.6712V78.9717C94.6712 79.4978 94.7755 79.8903 94.9841 80.1492C95.1927 80.3998 95.5474 80.5459 96.048 80.5877L96.2483 80.6002C96.6322 80.6336 96.9159 80.7297 97.0995 80.8883C97.2914 81.047 97.3874 81.2809 97.3874 81.5899C97.3874 81.8488 97.3206 82.0701 97.1871 82.2538C97.0619 82.4292 96.8617 82.5628 96.5863 82.6547C96.3109 82.7382 95.9521 82.7799 95.5098 82.7799H95.3721C94.2706 82.7799 93.4445 82.5085 92.8937 81.9657C92.343 81.4228 92.0676 80.6127 92.0676 79.5354Z" fill="#157EFC"/>
<path d="M87.5198 67.4853C87.1025 67.4853 86.7437 67.3392 86.4433 67.0469C86.1429 66.7462 85.9927 66.3871 85.9927 65.9695C85.9927 65.5519 86.1429 65.197 86.4433 64.9047C86.7437 64.6124 87.1025 64.4662 87.5198 64.4662C87.9454 64.4662 88.3084 64.6124 88.6088 64.9047C88.9092 65.197 89.0594 65.5519 89.0594 65.9695C89.0594 66.3871 88.9092 66.7462 88.6088 67.0469C88.3084 67.3392 87.9454 67.4853 87.5198 67.4853ZM87.5198 82.9063C87.1359 82.9063 86.823 82.781 86.581 82.5305C86.339 82.2799 86.218 81.9459 86.218 81.5283V70.6672C86.218 70.2496 86.339 69.9156 86.581 69.665C86.823 69.4145 87.1359 69.2892 87.5198 69.2892C87.912 69.2892 88.2249 69.4145 88.4586 69.665C88.7006 69.9156 88.8216 70.2496 88.8216 70.6672V81.5283C88.8216 81.9459 88.7006 82.2799 88.4586 82.5305C88.2249 82.781 87.912 82.9063 87.5198 82.9063Z" fill="#157EFC"/>
<path d="M78.9281 82.9063C77.6597 82.9063 76.579 82.6641 75.6861 82.1798C74.8016 81.687 74.2008 81.0398 73.8837 80.238C73.8085 80.0543 73.771 79.8706 73.771 79.6868C73.771 79.3528 73.8753 79.0939 74.0839 78.9102C74.3009 78.7264 74.5721 78.6346 74.8975 78.6346C75.3398 78.6346 75.7195 78.8684 76.0366 79.3361C76.3704 79.8706 76.7626 80.2673 77.2132 80.5262C77.6638 80.7767 78.2855 80.902 79.0783 80.902C79.604 80.902 80.063 80.831 80.4552 80.689C80.8474 80.547 81.1519 80.3424 81.3689 80.0752C81.5859 79.7996 81.6944 79.4781 81.6944 79.1106C81.6944 78.6763 81.5483 78.3297 81.2563 78.0708C80.9725 77.8119 80.4718 77.5948 79.7542 77.4194L77.6889 76.9309C76.4121 76.6219 75.4608 76.1583 74.835 75.5403C74.2091 74.9223 73.8962 74.1456 73.8962 73.2103C73.8962 72.0327 74.3676 71.0848 75.3106 70.3666C76.2536 69.64 77.5011 69.2767 79.0532 69.2767C79.8293 69.2767 80.5428 69.402 81.1937 69.6525C81.8529 69.8947 82.4037 70.2246 82.8459 70.6422C83.2882 71.0598 83.5678 71.5316 83.6846 72.0578C83.718 72.1997 83.7347 72.3292 83.7347 72.4461C83.7347 72.7301 83.647 72.9639 83.4718 73.1476C83.2966 73.323 83.0462 73.4107 82.7208 73.4107C82.5038 73.4107 82.3035 73.369 82.1199 73.2854C81.9447 73.1936 81.7903 73.0391 81.6568 72.8219C81.3647 72.3208 81.0059 71.9409 80.5803 71.682C80.1547 71.4231 79.6082 71.2936 78.9406 71.2936C78.2062 71.2936 77.6054 71.4606 77.1381 71.7947C76.6791 72.1204 76.4497 72.5463 76.4497 73.0725C76.4497 73.4901 76.6166 73.845 76.9504 74.1373C77.2841 74.4296 77.8015 74.6593 78.5025 74.8263L80.5177 75.3023C81.903 75.628 82.8835 76.0623 83.4593 76.6051C84.0351 77.148 84.323 77.9038 84.323 78.8726C84.323 79.6827 84.0977 80.3925 83.647 81.0022C83.1964 81.6035 82.5664 82.0712 81.7569 82.4052C80.9475 82.7393 80.0045 82.9063 78.9281 82.9063Z" fill="#157EFC"/>
<path d="M70.353 67.4853C69.9358 67.4853 69.577 67.3392 69.2765 67.0469C68.9761 66.7462 68.8259 66.3871 68.8259 65.9695C68.8259 65.5519 68.9761 65.197 69.2765 64.9047C69.577 64.6124 69.9358 64.4662 70.353 64.4662C70.7786 64.4662 71.1416 64.6124 71.442 64.9047C71.7424 65.197 71.8926 65.5519 71.8926 65.9695C71.8926 66.3871 71.7424 66.7462 71.442 67.0469C71.1416 67.3392 70.7786 67.4853 70.353 67.4853ZM70.353 82.9063C69.9692 82.9063 69.6562 82.781 69.4142 82.5305C69.1722 82.2799 69.0512 81.9459 69.0512 81.5283V70.6672C69.0512 70.2496 69.1722 69.9156 69.4142 69.665C69.6562 69.4145 69.9692 69.2892 70.353 69.2892C70.7452 69.2892 71.0582 69.4145 71.2918 69.665C71.5338 69.9156 71.6548 70.2496 71.6548 70.6672V81.5283C71.6548 81.9459 71.5338 82.2799 71.2918 82.5305C71.0582 82.781 70.7452 82.9063 70.353 82.9063Z" fill="#157EFC"/>
<path d="M60.0272 82.8695C59.5599 82.8695 59.1844 82.7651 58.9006 82.5563C58.6169 82.3392 58.3833 81.9843 58.1997 81.4915L52.4418 66.3587C52.3333 66.0914 52.2791 65.8409 52.2791 65.607C52.2791 65.2479 52.4042 64.9556 52.6546 64.7301C52.9133 64.5047 53.247 64.3919 53.6559 64.3919C54.3152 64.3919 54.7575 64.726 54.9828 65.3941L60.0021 79.5999H60.0898L65.1092 65.3816C65.3345 64.7218 65.7642 64.3919 66.3984 64.3919C66.799 64.3919 67.1286 64.5047 67.3873 64.7301C67.646 64.9556 67.7753 65.2438 67.7753 65.5945C67.7753 65.8117 67.7211 66.058 67.6126 66.3336L61.8422 81.504C61.6586 81.9884 61.4249 82.3392 61.1412 82.5563C60.8658 82.7651 60.4945 82.8695 60.0272 82.8695Z" fill="#157EFC"/>
<path d="M49.6941 67.4853C49.2768 67.4853 48.918 67.3392 48.6176 67.0469C48.3172 66.7462 48.167 66.3871 48.167 65.9695C48.167 65.5519 48.3172 65.197 48.6176 64.9047C48.918 64.6124 49.2768 64.4662 49.6941 64.4662C50.1197 64.4662 50.4827 64.6124 50.7831 64.9047C51.0835 65.197 51.2337 65.5519 51.2337 65.9695C51.2337 66.3871 51.0835 66.7462 50.7831 67.0469C50.4827 67.3392 50.1197 67.4853 49.6941 67.4853ZM49.6941 82.9063C49.3102 82.9063 48.9973 82.781 48.7553 82.5305C48.5133 82.2799 48.3923 81.9459 48.3923 81.5283V70.6672C48.3923 70.2496 48.5133 69.9156 48.7553 69.665C48.9973 69.4145 49.3102 69.2892 49.6941 69.2892C50.0863 69.2892 50.3992 69.4145 50.6329 69.665C50.8749 69.9156 50.9959 70.2496 50.9959 70.6672V81.5283C50.9959 81.9459 50.8749 82.2799 50.6329 82.5305C50.3992 82.781 50.0863 82.9063 49.6941 82.9063Z" fill="#FF5CAE"/>
<path d="M39.0236 82.8927C37.9138 82.8927 36.9416 82.6129 36.1071 82.0533C35.2726 81.4938 34.6259 80.7046 34.167 79.6857C33.708 78.6668 33.4785 77.4684 33.4785 76.0904C33.4785 74.7124 33.708 73.514 34.167 72.4951C34.6259 71.4762 35.2685 70.6912 36.0946 70.14C36.9207 69.5804 37.8846 69.3007 38.9861 69.3007C39.6203 69.3007 40.2044 69.4009 40.7385 69.6013C41.2725 69.8017 41.7398 70.0815 42.1404 70.4406C42.5493 70.7914 42.8747 71.209 43.1167 71.6934H43.1793V65.7304C43.1793 65.3045 43.3003 64.9704 43.5423 64.7282C43.7843 64.4777 44.0972 64.3524 44.4811 64.3524C44.8566 64.3524 45.1654 64.4777 45.4074 64.7282C45.6577 64.9704 45.7829 65.3045 45.7829 65.7304V81.6149C45.7829 82.0074 45.6619 82.3206 45.4199 82.5544C45.1862 82.7883 44.8817 82.9052 44.5061 82.9052C44.1306 82.9052 43.8135 82.7924 43.5548 82.567C43.3045 82.3331 43.1793 82.0158 43.1793 81.6149V80.3246H43.1293C42.9039 80.8424 42.5994 81.2934 42.2155 81.6775C41.8316 82.0617 41.3727 82.3623 40.8386 82.5795C40.3129 82.7883 39.7079 82.8927 39.0236 82.8927ZM39.6745 80.6754C40.3838 80.6754 41.0013 80.4874 41.5271 80.1116C42.0528 79.7358 42.4617 79.2055 42.7537 78.5207C43.0458 77.8275 43.1918 77.0216 43.1918 76.1029C43.1918 75.1759 43.0458 74.37 42.7537 73.6852C42.4617 73.0004 42.0528 72.47 41.5271 72.0942C41.0013 71.7101 40.3838 71.518 39.6745 71.518C38.9485 71.518 38.3185 71.7059 37.7844 72.0817C37.2587 72.4575 36.854 72.9878 36.5703 73.6726C36.2865 74.3491 36.1447 75.155 36.1447 76.0904C36.1447 77.0341 36.2865 77.8484 36.5703 78.5332C36.854 79.218 37.2587 79.7483 37.7844 80.1242C38.3185 80.4916 38.9485 80.6754 39.6745 80.6754Z" fill="#FF5CAE"/>
<path d="M26.5945 82.9063C24.6251 82.9063 23.0897 82.3134 21.9882 81.1275C20.8867 79.9332 20.3359 78.2754 20.3359 76.1542C20.3359 74.7595 20.5821 73.5485 21.0744 72.5213C21.5751 71.494 22.2803 70.6965 23.1898 70.1286C24.0994 69.5607 25.1717 69.2767 26.4068 69.2767C27.5583 69.2767 28.5722 69.5398 29.4484 70.0659C30.333 70.5837 31.0256 71.302 31.5263 72.2206C32.027 73.1393 32.2773 74.1999 32.2773 75.4025C32.2773 75.8285 32.1605 76.1625 31.9268 76.4047C31.6932 76.6386 31.3719 76.7555 30.963 76.7555H22.9645C22.9645 76.7638 22.9645 76.7722 22.9645 76.7805C22.9645 76.7889 22.9645 76.7972 22.9645 76.8056C22.9645 78.0249 23.2816 78.9937 23.9158 79.7119C24.5584 80.4301 25.4262 80.7892 26.5194 80.7892C27.2704 80.7892 27.9046 80.6431 28.422 80.3508C28.9394 80.0585 29.4484 79.5657 29.9491 78.8726C30.091 78.7055 30.2328 78.5886 30.3747 78.5218C30.5166 78.4466 30.6835 78.4091 30.8754 78.4091C31.1925 78.4091 31.4512 78.5051 31.6514 78.6972C31.8601 78.8893 31.9644 79.1482 31.9644 79.4739C31.9644 79.6743 31.9018 79.9123 31.7766 80.1879C31.3594 81.0565 30.696 81.7288 29.7864 82.2048C28.8768 82.6725 27.8129 82.9063 26.5945 82.9063ZM22.9771 74.9014H29.6612C29.6362 74.1999 29.4818 73.5861 29.1981 73.06C28.9227 72.5338 28.543 72.1288 28.059 71.8448C27.5834 71.5525 27.0284 71.4064 26.3942 71.4064C25.7517 71.4064 25.1842 71.5525 24.6919 71.8448C24.1996 72.1371 23.8032 72.5463 23.5028 73.0725C23.2024 73.5903 23.0271 74.1999 22.9771 74.9014Z" fill="#FF5CAE"/>
<path d="M1.22668 82.8695C0.842824 82.8695 0.542411 82.7568 0.325447 82.5313C0.108482 82.2974 0 81.9801 0 81.5792V66.0956C0 65.5778 0.154379 65.1644 0.463136 64.8554C0.771893 64.5464 1.1933 64.3919 1.72737 64.3919C2.18633 64.3919 2.56185 64.5047 2.85392 64.7301C3.14598 64.9556 3.39216 65.3189 3.59243 65.82L9.0374 79.0237H9.13754L14.57 65.82C14.7703 65.3189 15.0206 64.9556 15.321 64.7301C15.6214 64.5047 16.0053 64.3919 16.4726 64.3919C16.9983 64.3919 17.4114 64.5464 17.7118 64.8554C18.0206 65.1561 18.1749 65.5695 18.1749 66.0956V81.5792C18.1749 81.9801 18.0665 82.2974 17.8495 82.5313C17.6325 82.7568 17.3321 82.8695 16.9483 82.8695C16.5644 82.8695 16.2598 82.7568 16.0345 82.5313C15.8175 82.2974 15.7091 81.9801 15.7091 81.5792V69.2399H15.6214L10.5144 81.5166C10.2307 82.2014 9.75506 82.5438 9.08747 82.5438C8.41155 82.5438 7.93589 82.2097 7.66051 81.5416L2.5535 69.2399H2.46588V81.5792C2.46588 81.9801 2.35323 82.2974 2.12792 82.5313C1.91096 82.7568 1.61054 82.8695 1.22668 82.8695Z" fill="#FF5CAE"/>
</svg>
