<svg width="196" height="191" viewBox="0 0 196 191" fill="none" xmlns="http://www.w3.org/2000/svg">
<path d="M84.015 21.0195C88.3846 17.2548 87.6563 12.4443 86.5119 10.0391L93.0664 7.52932C95.2512 6.90184 95.6001 10.9803 94.9391 12.8626C93.0664 18.196 87.4483 20.7058 84.015 21.0195Z" fill="#157EFC"/>
<path d="M61.7703 13.1948C46.8368 19.0158 37.8214 26.039 35.3245 30.7449L35.9487 38.2743L36.8851 45.8037C41.1162 45.8037 45.1775 47.7836 46.5256 48.6273C48.2679 42.8062 48.496 36.5001 48.3923 34.0746C55.8591 31.2906 62.2888 25.7438 64.5703 23.3183H68.926C85.104 22.0529 85.4151 14.5657 83.5484 10.9802L75.7705 12.562L61.7703 13.1948Z" fill="#157EFC"/>
<path d="M60.9182 10.6667C45.1874 16.6902 36.4689 25.098 34.076 28.549C34.8251 24.5333 40.2143 18.9281 42.8153 16.6274C50.5558 10.3529 59.7737 6.48366 63.4151 5.33333C70.9059 4.07843 76.316 1.2549 78.0847 0C79.5828 0.501961 80.1654 2.0915 80.2695 2.82353C80.5192 6.58823 76.6281 9.20261 74.6514 10.0392C67.6599 10.2902 62.5828 10.5621 60.9182 10.6667Z" fill="#157EFC"/>
<path d="M25.9609 17.5686C32.453 21.8353 33.8679 38.1699 33.7639 45.8039C30.7676 46.5569 29.6023 48.4183 29.3942 49.2548C28.6452 51.2627 31.7871 55.9476 33.4518 58.0391C36.1984 61.8038 39.5901 68.8104 40.9426 71.8431L45.6244 81.8823L51.5546 89.098C57.5473 95.3725 62.5828 102.588 64.3515 105.412C63.103 99.3882 55.9243 88.6797 52.491 84.0784C50.7431 82.0705 46.3527 74.2483 44.3759 70.5882L39.6941 61.4901L36.573 56.4705L32.5154 50.8235C32.2657 49.8195 33.2437 49.3594 33.7639 49.2548C44.7505 47.498 53.1152 57.9346 55.9243 63.3725C59.9194 72.1568 66.1201 78.3267 68.7211 80.3136L78.3968 86.5882C96.3748 100.141 96.9158 130.51 94.9391 144C89.1961 128.69 67.7848 114.405 57.797 109.176C53.8019 107.169 47.185 102.693 44.3759 100.706L35.6366 94.745C32.6403 93.7411 30.0185 84.4967 29.0821 79.9999L25.9609 66.196L21.9034 53.3333C20.6549 48.0627 20.967 39.4248 21.2792 35.7646V20.0784C21.2792 16.9411 25.0246 16.9412 25.9609 17.5686Z" fill="#157EFC"/>
<path d="M111.985 21.0195C107.615 17.2548 108.344 12.4443 109.488 10.0391L102.934 7.52932C100.749 6.90184 100.4 10.9803 101.061 12.8626C102.934 18.196 108.552 20.7058 111.985 21.0195Z" fill="#157EFC"/>
<path d="M134.23 13.1948C149.163 19.0158 158.179 26.039 160.676 30.7449L160.051 38.2743L159.115 45.8037C154.884 45.8037 150.823 47.7836 149.474 48.6273C147.732 42.8062 147.504 36.5001 147.608 34.0746C140.141 31.2906 133.711 25.7438 131.43 23.3183H127.074C110.896 22.0529 110.585 14.5657 112.452 10.9802L120.229 12.562L134.23 13.1948Z" fill="#157EFC"/>
<path d="M135.082 10.6667C150.813 16.6902 159.531 25.098 161.924 28.549C161.175 24.5333 155.786 18.9281 153.185 16.6274C145.444 10.3529 136.226 6.48366 132.585 5.33333C125.094 4.07843 119.684 1.2549 117.915 0C116.417 0.501961 115.835 2.0915 115.731 2.82353C115.481 6.58823 119.372 9.20261 121.349 10.0392C128.34 10.2902 133.417 10.5621 135.082 10.6667Z" fill="#157EFC"/>
<path d="M170.039 17.5686C163.547 21.8353 162.132 38.1699 162.236 45.8039C165.232 46.5569 166.398 48.4183 166.606 49.2548C167.355 51.2627 164.213 55.9476 162.548 58.0391C159.802 61.8038 156.41 68.8104 155.057 71.8431L150.376 81.8823L144.445 89.098C138.453 95.3725 133.417 102.588 131.649 105.412C132.897 99.3882 140.076 88.6797 143.509 84.0784C145.257 82.0705 149.647 74.2483 151.624 70.5882L156.306 61.4901L159.427 56.4705L163.485 50.8235C163.734 49.8195 162.756 49.3594 162.236 49.2548C151.25 47.498 142.885 57.9346 140.076 63.3725C136.081 72.1568 129.88 78.3267 127.279 80.3137L117.603 86.5882C99.6252 100.141 99.0842 130.51 101.061 144C106.804 128.69 128.215 114.405 138.203 109.176C142.198 107.169 148.815 102.693 151.624 100.706L160.363 94.745C163.36 93.7411 165.982 84.4967 166.918 79.9999L170.039 66.196L174.097 53.3333C175.345 48.0627 175.033 39.4248 174.721 35.7646V20.0784C174.721 16.9411 170.975 16.9412 170.039 17.5686Z" fill="#157EFC"/>
<path d="M65.8812 52.979C66.6285 55.8695 68.0571 58.3821 70.167 60.5166L98.3208 90.0002L126.475 60.5166C128.585 58.3821 130.013 55.8695 130.76 52.979C131.508 50.0884 131.508 47.2201 130.76 44.374C130.013 41.5279 128.585 39.0376 126.475 36.9031C124.365 34.7685 121.903 33.3232 119.09 32.5672C116.277 31.8112 113.42 31.8112 110.519 32.5672C107.618 33.3232 105.156 34.7685 103.134 36.9031L98.3208 42.7731L93.5076 36.9031C91.3977 34.7685 88.9362 33.3232 86.123 32.5672C83.3098 31.8112 80.4746 31.8112 77.6175 32.5672C74.7604 33.3232 72.2768 34.7685 70.167 36.9031C68.0571 39.0376 66.6285 41.5279 65.8812 44.374C65.134 47.2201 65.134 50.0884 65.8812 52.979Z" fill="#FF5CAE"/>
<path d="M85.2964 61.9317C85.2964 60.361 86.5696 59.0877 88.1403 59.0877H108.452C110.023 59.0877 111.296 60.361 111.296 61.9317C111.296 63.5023 110.023 64.7756 108.452 64.7756H88.1403C86.5696 64.7756 85.2964 63.5023 85.2964 61.9317Z" fill="white"/>
<path d="M98.2964 48.9414C99.8724 48.9414 101.15 50.219 101.15 51.7951L101.15 72.0877C101.15 73.6638 99.8724 74.9414 98.2964 74.9414C96.7204 74.9414 95.4427 73.6638 95.4427 72.0877V51.7951C95.4427 50.219 96.7204 48.9414 98.2964 48.9414Z" fill="white"/>
<path d="M0 188.623V156.987H6.617C9.78935 156.987 12.2946 157.301 14.1326 157.93C16.1068 158.545 17.8972 159.589 19.5038 161.065C22.7579 164.043 24.3849 167.956 24.3849 172.805C24.3849 177.668 22.6898 181.602 19.2996 184.607C17.5977 186.11 15.8141 187.155 13.9488 187.742C12.2061 188.329 9.73489 188.623 6.53531 188.623H0ZM4.75852 184.136H6.90292C9.04052 184.136 10.8173 183.91 12.2333 183.46C13.6493 182.982 14.9291 182.224 16.0728 181.185C18.4146 179.041 19.5855 176.247 19.5855 172.805C19.5855 169.336 18.4282 166.522 16.1136 164.364C14.0305 162.438 10.9603 161.474 6.90292 161.474H4.75852V184.136Z" fill="#157EFC"/>
<path d="M35.22 172.662C35.22 168.209 36.8471 164.384 40.1011 161.188C43.3415 157.991 47.2355 156.393 51.783 156.393C56.276 156.393 60.1291 158.005 63.3423 161.229C66.5691 164.453 68.1825 168.325 68.1825 172.846C68.1825 177.395 66.5623 181.254 63.3219 184.423C60.0678 187.606 56.1398 189.197 51.5379 189.197C47.4669 189.197 43.8112 187.783 40.5708 184.956C37.0036 181.828 35.22 177.73 35.22 172.662ZM40.0194 172.723C40.0194 176.22 41.1903 179.096 43.5321 181.349C45.8603 183.603 48.5493 184.73 51.5992 184.73C54.9077 184.73 57.6988 183.583 59.9725 181.288C62.2463 178.966 63.3831 176.138 63.3831 172.805C63.3831 169.431 62.2599 166.604 60.0134 164.323C57.7805 162.028 55.0166 160.881 51.7217 160.881C48.4404 160.881 45.6697 162.028 43.4096 164.323C41.1495 166.59 40.0194 169.39 40.0194 172.723Z" fill="#FF5CAE"/>
<path d="M81.0126 156.987L89.7331 178.911L98.5762 156.987H103.784L89.631 191L75.8047 156.987H81.0126Z" fill="#157EFC"/>
<path d="M119.304 156.987V188.623H114.545V156.987H119.304Z" fill="#157EFC"/>
<path d="M147.016 175.141L156.778 188.623H150.958L141.951 175.674H141.094V188.623H136.335V156.987H141.91C146.077 156.987 149.086 157.773 150.937 159.344C152.98 161.092 154.001 163.401 154.001 166.269C154.001 168.509 153.361 170.435 152.081 172.047C150.801 173.659 149.113 174.69 147.016 175.141ZM141.094 171.514H142.605C147.111 171.514 149.365 169.786 149.365 166.331C149.365 163.093 147.173 161.474 142.789 161.474H141.094V171.514Z" fill="#157EFC"/>
<path d="M187.484 180.94H173.984L170.471 188.623H165.345L180.948 155L196 188.623H190.792L187.484 180.94ZM185.543 176.452L180.867 165.696L175.965 176.452H185.543Z" fill="#157EFC"/>
</svg>
