<svg width="113" height="86" viewBox="0 0 113 86" fill="none" xmlns="http://www.w3.org/2000/svg">
<path d="M112.702 85.0166H110.03V80.2324H112.702V80.7617H110.633V82.256H112.581V82.7786H110.633V84.4873H112.702V85.0166Z" fill="#157EFC"/>
<path d="M107.192 80.2324C107.589 80.2324 107.915 80.2837 108.17 80.3865C108.428 80.4848 108.62 80.6344 108.745 80.8354C108.87 81.0364 108.933 81.2888 108.933 81.5926C108.933 81.8472 108.886 82.0594 108.792 82.2292C108.698 82.3989 108.578 82.5351 108.431 82.6379C108.288 82.7362 108.136 82.8143 107.975 82.8724L109.288 85.0166H108.585L107.426 83.0399H106.476V85.0166H105.873V80.2324H107.192ZM107.159 80.755H106.476V82.5307H107.192C107.451 82.5307 107.663 82.4972 107.828 82.4302C107.993 82.3587 108.114 82.256 108.19 82.1219C108.27 81.9879 108.31 81.8204 108.31 81.6194C108.31 81.4094 108.268 81.2419 108.183 81.1168C108.103 80.9918 107.978 80.9002 107.808 80.8421C107.638 80.784 107.422 80.755 107.159 80.755Z" fill="#157EFC"/>
<path d="M104.822 85.0166H102.15V80.2324H104.822V80.7617H102.753V82.256H104.701V82.7786H102.753V84.4873H104.822V85.0166Z" fill="#157EFC"/>
<path d="M100.837 85.0166H100.234V82.7853H97.7835V85.0166H97.1809V80.2324H97.7835V82.256H100.234V80.2324H100.837V85.0166Z" fill="#157EFC"/>
<path d="M96.4547 80.2324L95.1826 85.0166H94.5734L93.6427 81.8807C93.6159 81.7869 93.5891 81.6909 93.5624 81.5926C93.5356 81.4943 93.511 81.4005 93.4887 81.3112C93.4664 81.2218 93.4463 81.1459 93.4285 81.0833C93.4151 81.0163 93.4061 80.9672 93.4017 80.9359C93.3972 80.9672 93.3883 81.0163 93.3749 81.0833C93.366 81.1459 93.3503 81.2218 93.328 81.3112C93.3057 81.4005 93.2812 81.4965 93.2544 81.5993C93.2321 81.6976 93.2053 81.7981 93.174 81.9008L92.2702 85.0166H91.6609L90.3955 80.2324H91.0249L91.768 83.1538C91.7948 83.2566 91.8194 83.3593 91.8417 83.4621C91.864 83.5603 91.8841 83.6586 91.9019 83.7569C91.9243 83.8507 91.9421 83.9423 91.9555 84.0316C91.9689 84.121 91.9823 84.2081 91.9957 84.2929C92.0091 84.2036 92.0224 84.112 92.0358 84.0182C92.0537 83.9244 92.0738 83.8284 92.0961 83.7301C92.1184 83.6274 92.143 83.5246 92.1698 83.4219C92.1965 83.3191 92.2233 83.2186 92.2501 83.1203L93.0937 80.2324H93.7163L94.5934 83.1404C94.6247 83.2432 94.6537 83.3482 94.6805 83.4554C94.7073 83.5581 94.7318 83.6586 94.7541 83.7569C94.7764 83.8552 94.7943 83.9512 94.8077 84.045C94.8255 84.1344 94.8412 84.217 94.8545 84.2929C94.8679 84.1813 94.8858 84.0651 94.9081 83.9445C94.9304 83.8194 94.9572 83.6899 94.9885 83.5559C95.0197 83.4219 95.0532 83.2856 95.0889 83.1471L95.8254 80.2324H96.4547Z" fill="#157EFC"/>
<path d="M88.4104 82.5843L89.6557 80.2324H90.3052L88.7117 83.1605V85.0166H88.1091V83.1873L86.5156 80.2324H87.1718L88.4104 82.5843Z" fill="#157EFC"/>
<path d="M85.8745 85.0166H85.1715L82.6139 81.0431H82.5871C82.5916 81.1235 82.596 81.2129 82.6005 81.3112C82.6094 81.4094 82.6161 81.5166 82.6206 81.6328C82.6251 81.7445 82.6295 81.8606 82.634 81.9812C82.6384 82.1018 82.6407 82.2225 82.6407 82.3431V85.0166H82.085V80.2324H82.7813L85.3322 84.1924H85.359C85.3545 84.1388 85.35 84.0651 85.3456 83.9713C85.3411 83.873 85.3366 83.7658 85.3322 83.6497C85.3277 83.5291 85.3233 83.4062 85.3188 83.2812C85.3143 83.1561 85.3121 83.0399 85.3121 82.9327V80.2324H85.8745V85.0166Z" fill="#157EFC"/>
<path d="M80.8005 85.0176L80.2247 83.5367H78.33L77.7609 85.0176H77.1516L79.0196 80.2132H79.5619L81.4232 85.0176H80.8005ZM79.5083 81.5533C79.495 81.5176 79.4726 81.4528 79.4414 81.359C79.4101 81.2652 79.3789 81.1692 79.3477 81.0709C79.3209 80.9681 79.2986 80.89 79.2807 80.8364C79.2584 80.9257 79.2338 81.0173 79.2071 81.1111C79.1847 81.2004 79.1602 81.2831 79.1334 81.359C79.1111 81.4349 79.091 81.4997 79.0732 81.5533L78.5308 83.0007H80.044L79.5083 81.5533Z" fill="#157EFC"/>
<path d="M74.0115 84.3184H74.7143V85.1199C74.7143 85.7067 74.4801 86.0001 74.0115 86.0001V85.7449C74.2033 85.7361 74.322 85.662 74.3678 85.5224C74.3983 85.4373 74.4136 85.3075 74.4136 85.133V85.0153H74.0115V84.3184Z" fill="#157EFC"/>
<path d="M73.0308 85.0166H70.3594V80.2324H73.0308V80.7617H70.9619V82.256H72.9103V82.7786H70.9619V84.4873H73.0308V85.0166Z" fill="#157EFC"/>
<path d="M66.3893 85.0166L64.8159 80.822H64.7891C64.798 80.9114 64.8047 81.0253 64.8092 81.1637C64.8181 81.3022 64.8248 81.4541 64.8293 81.6194C64.8337 81.7802 64.836 81.9455 64.836 82.1152V85.0166H64.2803V80.2324H65.1707L66.6437 84.1522H66.6705L68.1702 80.2324H69.054V85.0166H68.4581V82.075C68.4581 81.9187 68.4604 81.7646 68.4648 81.6127C68.4693 81.4563 68.476 81.3112 68.4849 81.1772C68.4938 81.0387 68.5005 80.9225 68.505 80.8287H68.4782L66.8847 85.0166H66.3893Z" fill="#157EFC"/>
<path d="M63.3621 85.0166H61.6348V84.6682L62.1972 84.5409V80.7148L61.6348 80.5808V80.2324H63.3621V80.5808L62.7997 80.7148V84.5409L63.3621 84.6682V85.0166Z" fill="#157EFC"/>
<path d="M59.8044 85.0166H59.2018V80.7617H57.7087V80.2324H61.2907V80.7617H59.8044V85.0166Z" fill="#157EFC"/>
<path d="M55.7471 82.5843L56.9924 80.2324H57.6418L56.0483 83.1605V85.0166H55.4458V83.1873L53.8523 80.2324H54.5084L55.7471 82.5843Z" fill="#157EFC"/>
<path d="M53.2046 85.0166H52.5016L49.944 81.0431H49.9172C49.9216 81.1235 49.9261 81.2129 49.9306 81.3112C49.9395 81.4094 49.9462 81.5166 49.9507 81.6328C49.9551 81.7445 49.9596 81.8606 49.964 81.9812C49.9685 82.1018 49.9707 82.2225 49.9707 82.3431V85.0166H49.415V80.2324H50.1113L52.6622 84.1924H52.689C52.6846 84.1388 52.6801 84.0651 52.6756 83.9713C52.6712 83.873 52.6667 83.7658 52.6622 83.6497C52.6578 83.5291 52.6533 83.4062 52.6489 83.2812C52.6444 83.1561 52.6422 83.0399 52.6422 82.9327V80.2324H53.2046V85.0166Z" fill="#157EFC"/>
<path d="M48.1396 85.0176L47.5638 83.5367H45.6691L45.1 85.0176H44.4907L46.3587 80.2132H46.901L48.7623 85.0176H48.1396ZM46.8475 81.5533C46.8341 81.5176 46.8117 81.4528 46.7805 81.359C46.7493 81.2652 46.718 81.1692 46.6868 81.0709C46.66 80.9681 46.6377 80.89 46.6198 80.8364C46.5975 80.9257 46.5729 81.0173 46.5462 81.1111C46.5238 81.2004 46.4993 81.2831 46.4725 81.359C46.4502 81.4349 46.4301 81.4997 46.4123 81.5533L45.8699 83.0007H47.3831L46.8475 81.5533Z" fill="#157EFC"/>
<path d="M42.2273 85.0166H39.5559V80.2324H42.2273V80.7617H40.1585V82.256H42.1068V82.7786H40.1585V84.4873H42.2273V85.0166Z" fill="#157EFC"/>
<path d="M36.7086 80.2324C37.1059 80.2324 37.4317 80.2837 37.6861 80.3865C37.945 80.4848 38.1369 80.6344 38.2619 80.8354C38.3869 81.0364 38.4494 81.2888 38.4494 81.5926C38.4494 81.8472 38.4025 82.0594 38.3088 82.2292C38.215 82.3989 38.0945 82.5351 37.9472 82.6379C37.8044 82.7362 37.6526 82.8143 37.492 82.8724L38.8042 85.0166H38.1012L36.9429 83.0399H35.9922V85.0166H35.3896V80.2324H36.7086ZM36.6751 80.755H35.9922V82.5307H36.7086C36.9675 82.5307 37.1795 82.4972 37.3447 82.4302C37.5098 82.3587 37.6303 82.256 37.7062 82.1219C37.7866 81.9879 37.8267 81.8204 37.8267 81.6194C37.8267 81.4094 37.7843 81.2419 37.6995 81.1168C37.6192 80.9918 37.4942 80.9002 37.3246 80.8421C37.155 80.784 36.9385 80.755 36.6751 80.755Z" fill="#157EFC"/>
<path d="M34.116 85.0176L33.5402 83.5367H31.6454L31.0763 85.0176H30.467L32.335 80.2132H32.8773L34.7386 85.0176H34.116ZM32.8238 81.5533C32.8104 81.5176 32.7881 81.4528 32.7568 81.359C32.7256 81.2652 32.6943 81.1692 32.6631 81.0709C32.6363 80.9681 32.614 80.89 32.5961 80.8364C32.5738 80.9257 32.5493 81.0173 32.5225 81.1111C32.5002 81.2004 32.4756 81.2831 32.4488 81.359C32.4265 81.4349 32.4064 81.4997 32.3886 81.5533L31.8463 83.0007H33.3594L32.8238 81.5533Z" fill="#157EFC"/>
<path d="M28.9341 80.695C28.6796 80.695 28.4498 80.7397 28.2445 80.829C28.0391 80.9139 27.8651 81.0412 27.7222 81.2109C27.5794 81.3762 27.47 81.5795 27.3942 81.8207C27.3183 82.0575 27.2803 82.3255 27.2803 82.6248C27.2803 83.0179 27.3406 83.3596 27.4611 83.65C27.5861 83.9403 27.7691 84.1637 28.0101 84.32C28.2556 84.4764 28.5614 84.5546 28.9274 84.5546C29.1372 84.5546 29.3358 84.5367 29.5232 84.501C29.7107 84.4652 29.8937 84.4206 30.0723 84.367V84.8896C29.8937 84.9566 29.7085 85.0057 29.5166 85.037C29.3291 85.0683 29.1037 85.0839 28.8403 85.0839C28.3538 85.0839 27.9476 84.9834 27.6218 84.7824C27.296 84.5814 27.0505 84.2955 26.8853 83.9247C26.7246 83.5539 26.6443 83.1184 26.6443 82.6181C26.6443 82.2562 26.6934 81.9257 26.7916 81.6264C26.8942 81.3271 27.0415 81.068 27.2335 80.8491C27.4299 80.6302 27.6709 80.4627 27.9566 80.3466C28.2422 80.226 28.5703 80.1656 28.9408 80.1656C29.1863 80.1656 29.4228 80.1902 29.6505 80.2394C29.8781 80.2885 30.0812 80.3577 30.2597 80.4471L30.0187 80.9563C29.8714 80.8893 29.7063 80.829 29.5232 80.7754C29.3447 80.7218 29.1483 80.695 28.9341 80.695Z" fill="#157EFC"/>
<path d="M23.7181 85.0166H23.1155V82.7853H20.6651V85.0166H20.0625V80.2324H20.6651V82.256H23.1155V80.2324H23.7181V85.0166Z" fill="#157EFC"/>
<path d="M17.8527 85.0166H17.2501V80.7617H15.7571V80.2324H19.339V80.7617H17.8527V85.0166Z" fill="#157EFC"/>
<path d="M12.9658 85.0166V80.2324H13.5684V84.4806H15.6573V85.0166H12.9658Z" fill="#157EFC"/>
<path d="M11.6794 85.0176L11.1036 83.5367H9.20888L8.63978 85.0176H8.03052L9.89849 80.2132H10.4408L12.3021 85.0176H11.6794ZM10.3872 81.5533C10.3739 81.5176 10.3515 81.4528 10.3203 81.359C10.2891 81.2652 10.2578 81.1692 10.2266 81.0709C10.1998 80.9681 10.1775 80.89 10.1596 80.8364C10.1373 80.9257 10.1127 81.0173 10.086 81.1111C10.0636 81.2004 10.0391 81.2831 10.0123 81.359C9.98999 81.4349 9.96991 81.4997 9.95205 81.5533L9.40974 83.0007H10.9229L10.3872 81.5533Z" fill="#157EFC"/>
<path d="M7.6365 85.0166H4.96509V80.2324H7.6365V80.7617H5.56766V82.256H7.51598V82.7786H5.56766V84.4873H7.6365V85.0166Z" fill="#157EFC"/>
<path d="M3.65561 85.0166H3.05304V82.7853H0.602574V85.0166H0V80.2324H0.602574V82.256H3.05304V80.2324H3.65561V85.0166Z" fill="#157EFC"/>
<path fill-rule="evenodd" clip-rule="evenodd" d="M42.3499 38.3921C41.7743 37.8161 41.7743 36.8817 42.3499 36.3057C42.9249 35.7304 43.8565 35.7304 44.4314 36.3057L56.0981 47.9795L67.7647 36.3057C68.3396 35.7304 69.2713 35.7304 69.8462 36.3057C70.4218 36.8817 70.4218 37.8161 69.8462 38.3921L56.0981 52.1487L42.3499 38.3921Z" fill="#FF5CAE"/>
<path fill-rule="evenodd" clip-rule="evenodd" d="M51.1598 4.87022L81.5192 34.299C82.1039 34.8658 82.1187 35.8001 81.5523 36.3851C80.9865 36.9695 80.0551 36.9843 79.4711 36.4182L49.085 6.96352C46.472 4.3489 40.8086 1.98173 35.2975 6.11764L35.2648 6.14219L35.2307 6.16488C33.9161 7.04187 31.6889 9.05504 30.4833 11.7967C29.3307 14.4179 29.0659 17.7816 31.6513 21.7188L41.396 32.4446L39.2159 34.4277L29.321 23.5364L29.2596 23.4443C26.0162 18.5763 26.2473 14.1099 27.7866 10.6094C29.2713 7.23302 31.9274 4.83409 33.5621 3.735C40.6053 -1.52444 47.8814 1.59705 51.1598 4.87022Z" fill="#FF5CAE"/>
<path fill-rule="evenodd" clip-rule="evenodd" d="M63.0634 6.02052L59.642 9.44398L56.2206 12.8674L54.1374 10.7829L61.0425 3.87347L61.0748 3.84469C62.726 2.37613 65.6361 0.652986 69.1345 0.146449C72.6961 -0.369255 76.8191 0.389142 80.7 3.83623C82.0387 4.98898 84.407 7.91571 85.5574 11.6349C86.7384 15.4527 86.6474 20.1923 82.8036 24.5879L82.7713 24.6248L72.9159 34.4863L70.8326 32.4017L80.6178 22.6105C83.6176 19.1557 83.6865 15.557 82.743 12.5066C81.7686 9.35683 79.727 6.88443 78.7722 6.06556L78.752 6.04826C75.5648 3.21342 72.3262 2.66306 69.5564 3.0641C66.743 3.47146 64.3655 4.8736 63.0634 6.02052Z" fill="#FF5CAE"/>
<path d="M52.2105 30.2057H55.4577V33.3966H52.2105V30.2057Z" fill="#157EFC"/>
<path d="M52.1853 34.992H55.4325V38.1828H52.1853V34.992Z" fill="#157EFC"/>
<path d="M57.0561 34.992H60.3034V38.1828H57.0561V34.992Z" fill="#157EFC"/>
<path d="M57.0561 30.2057H60.3034V33.3966H57.0561V30.2057Z" fill="#157EFC"/>
<path d="M52.2105 30.2057H55.4577V33.3966H52.2105V30.2057Z" fill="#157EFC"/>
<path d="M52.1853 34.992H55.4325V38.1828H52.1853V34.992Z" fill="#157EFC"/>
<path d="M57.0561 34.992H60.3034V38.1828H57.0561V34.992Z" fill="#157EFC"/>
<path d="M57.0561 30.2057H60.3034V33.3966H57.0561V30.2057Z" fill="#157EFC"/>
<path fill-rule="evenodd" clip-rule="evenodd" d="M56.0955 15.6292L78.6361 37.203C79.2243 37.766 79.245 38.7001 78.6823 39.2888C78.1203 39.8767 77.1889 39.8975 76.6014 39.3351L56.0955 19.7087L35.5896 39.3351C35.0021 39.8975 34.0707 39.8767 33.5087 39.2888C32.946 38.7001 32.9667 37.766 33.555 37.203L56.0955 15.6292Z" fill="#157EFC"/>
<path d="M107.733 74.2712C107.389 74.2712 107.108 74.159 106.892 73.9346C106.675 73.7101 106.566 73.4109 106.566 73.0368V63.2509C106.566 62.8918 106.671 62.6075 106.88 62.398C107.09 62.1811 107.355 62.0726 107.677 62.0726C108.005 62.0726 108.271 62.1811 108.473 62.398C108.682 62.6075 108.787 62.8918 108.787 63.2509V64.2721H108.831C109.003 63.6287 109.332 63.105 109.818 62.701C110.312 62.2895 110.85 62.0838 111.433 62.0838C111.65 62.0838 111.837 62.11 111.994 62.1623C112.151 62.2072 112.281 62.2783 112.386 62.3756C112.491 62.4579 112.569 62.5701 112.622 62.7122C112.674 62.8544 112.7 63.0115 112.7 63.1836C112.7 63.5427 112.58 63.8195 112.341 64.014C112.229 64.1113 112.083 64.1861 111.904 64.2385C111.732 64.2834 111.523 64.3058 111.276 64.3058C110.431 64.3133 109.822 64.5714 109.448 65.0802C109.082 65.5814 108.899 66.1986 108.899 66.9318V73.0368C108.899 73.4109 108.79 73.7101 108.574 73.9346C108.364 74.159 108.084 74.2712 107.733 74.2712Z" fill="#157EFC"/>
<path d="M98.344 74.2581C97.3497 74.2581 96.4788 74.0075 95.7313 73.5062C94.9837 73.005 94.4044 72.298 93.9932 71.3852C93.582 70.4725 93.3765 69.3989 93.3765 68.1644C93.3765 66.93 93.582 65.8564 93.9932 64.9436C94.4044 64.0309 94.98 63.3276 95.7201 62.8338C96.4601 62.3326 97.3236 62.0819 98.3103 62.0819C98.8785 62.0819 99.4018 62.1717 99.8802 62.3513C100.359 62.5308 100.777 62.7814 101.136 63.1032C101.502 63.4174 101.794 63.7915 102.011 64.2254H102.067V58.8836C102.067 58.502 102.175 58.2027 102.392 57.9858C102.609 57.7613 102.889 57.6491 103.233 57.6491C103.569 57.6491 103.846 57.7613 104.063 57.9858C104.287 58.2027 104.399 58.502 104.399 58.8836V73.1135C104.399 73.4651 104.291 73.7457 104.074 73.9551C103.865 74.1646 103.592 74.2694 103.255 74.2694C102.919 74.2694 102.635 74.1684 102.403 73.9664C102.179 73.7569 102.067 73.4726 102.067 73.1135V71.9576H102.022C101.82 72.4214 101.547 72.8254 101.203 73.1696C100.859 73.5137 100.448 73.7831 99.9699 73.9776C99.4989 74.1646 98.957 74.2581 98.344 74.2581ZM98.9271 72.2718C99.5625 72.2718 100.116 72.1035 100.587 71.7668C101.058 71.4301 101.424 70.955 101.686 70.3415C101.947 69.7206 102.078 68.9986 102.078 68.1756C102.078 67.3452 101.947 66.6232 101.686 66.0097C101.424 65.3962 101.058 64.9212 100.587 64.5845C100.116 64.2403 99.5625 64.0683 98.9271 64.0683C98.2767 64.0683 97.7123 64.2366 97.2339 64.5733C96.7629 64.9099 96.4003 65.385 96.1462 65.9985C95.892 66.6045 95.7649 67.3265 95.7649 68.1644C95.7649 69.0098 95.892 69.7393 96.1462 70.3528C96.4003 70.9663 96.7629 71.4413 97.2339 71.778C97.7123 72.1072 98.2767 72.2718 98.9271 72.2718Z" fill="#157EFC"/>
<path d="M90.5957 74.1798C90.1995 74.1798 89.8594 74.0414 89.5753 73.7646C89.2987 73.4878 89.1604 73.1474 89.1604 72.7433C89.1604 72.3468 89.2987 72.0102 89.5753 71.7333C89.8594 71.4565 90.1995 71.3181 90.5957 71.3181C90.9919 71.3181 91.3283 71.4565 91.6049 71.7333C91.889 72.0102 92.031 72.3468 92.031 72.7433C92.031 73.1474 91.889 73.4878 91.6049 73.7646C91.3283 74.0414 90.9919 74.1798 90.5957 74.1798Z" fill="#157EFC"/>
<path d="M82.4766 71.2509V64.136H81.602C81.2955 64.136 81.0526 64.0537 80.8731 63.8891C80.7012 63.7245 80.6152 63.4963 80.6152 63.2045C80.6152 62.9127 80.7012 62.6883 80.8731 62.5312C81.0526 62.3666 81.2955 62.2843 81.602 62.2843H82.4766V60.4775C82.4766 60.1034 82.5813 59.8042 82.7906 59.5797C83.0074 59.3553 83.2915 59.243 83.6428 59.243C83.9942 59.243 84.2745 59.3553 84.4838 59.5797C84.7006 59.8042 84.809 60.1034 84.809 60.4775V62.2843H86.2107C86.5247 62.2843 86.7676 62.3666 86.9395 62.5312C87.1115 62.6883 87.1975 62.9127 87.1975 63.2045C87.1975 63.4963 87.1115 63.7245 86.9395 63.8891C86.7676 64.0537 86.5247 64.136 86.2107 64.136H84.809V70.7459C84.809 71.2173 84.9025 71.5689 85.0894 71.8008C85.2762 72.0253 85.594 72.1562 86.0425 72.1936L86.2219 72.2048C86.5658 72.2348 86.8199 72.3208 86.9844 72.4629C87.1563 72.6051 87.2423 72.8146 87.2423 73.0914C87.2423 73.3233 87.1825 73.5216 87.0629 73.6862C86.9508 73.8433 86.7713 73.963 86.5247 74.0453C86.278 74.1201 85.9565 74.1575 85.5603 74.1575H85.437C84.4502 74.1575 83.7101 73.9144 83.2167 73.4281C82.7233 72.9418 82.4766 72.2161 82.4766 71.2509Z" fill="#157EFC"/>
<path d="M78.4034 60.456C78.0296 60.456 77.7082 60.3251 77.4391 60.0632C77.17 59.7939 77.0354 59.4722 77.0354 59.0981C77.0354 58.724 77.17 58.406 77.4391 58.1442C77.7082 57.8823 78.0296 57.7514 78.4034 57.7514C78.7847 57.7514 79.1099 57.8823 79.379 58.1442C79.6481 58.406 79.7827 58.724 79.7827 59.0981C79.7827 59.4722 79.6481 59.7939 79.379 60.0632C79.1099 60.3251 78.7847 60.456 78.4034 60.456ZM78.4034 74.2707C78.0596 74.2707 77.7792 74.1584 77.5624 73.934C77.3456 73.7095 77.2372 73.4103 77.2372 73.0362V63.3065C77.2372 62.9324 77.3456 62.6331 77.5624 62.4087C77.7792 62.1842 78.0596 62.072 78.4034 62.072C78.7548 62.072 79.0351 62.1842 79.2444 62.4087C79.4612 62.6331 79.5696 62.9324 79.5696 63.3065V73.0362C79.5696 73.4103 79.4612 73.7095 79.2444 73.934C79.0351 74.1584 78.7548 74.2707 78.4034 74.2707Z" fill="#157EFC"/>
<path d="M70.7058 74.2707C69.5695 74.2707 68.6015 74.0537 67.8016 73.6198C67.0092 73.1784 66.4709 72.5986 66.1869 71.8803C66.1196 71.7157 66.0859 71.5511 66.0859 71.3865C66.0859 71.0873 66.1794 70.8554 66.3663 70.6908C66.5606 70.5262 66.8036 70.4439 67.0951 70.4439C67.4913 70.4439 67.8315 70.6534 68.1156 71.0723C68.4146 71.5511 68.7659 71.9065 69.1696 72.1384C69.5733 72.3629 70.1302 72.4751 70.8404 72.4751C71.3113 72.4751 71.7225 72.4115 72.0739 72.2843C72.4252 72.1571 72.6981 71.9738 72.8924 71.7344C73.0868 71.4875 73.184 71.1995 73.184 70.8703C73.184 70.4813 73.0532 70.1708 72.7915 69.9389C72.5373 69.7069 72.0888 69.5124 71.4459 69.3553L69.5957 68.9176C68.4519 68.6408 67.5997 68.2256 67.0391 67.672C66.4784 67.1183 66.1981 66.4225 66.1981 65.5846C66.1981 64.5297 66.6204 63.6805 67.4652 63.0371C68.3099 62.3862 69.4275 62.0608 70.818 62.0608C71.5132 62.0608 72.1523 62.173 72.7354 62.3975C73.326 62.6144 73.8194 62.9099 74.2156 63.284C74.6118 63.6581 74.8622 64.0808 74.9669 64.5521C74.9968 64.6793 75.0117 64.7953 75.0117 64.9C75.0117 65.1544 74.9333 65.3639 74.7763 65.5285C74.6193 65.6856 74.395 65.7642 74.1035 65.7642C73.9091 65.7642 73.7297 65.7268 73.5652 65.6519C73.4082 65.5696 73.2699 65.4312 73.1503 65.2367C72.8887 64.7878 72.5672 64.4474 72.186 64.2155C71.8047 63.9835 71.3151 63.8676 70.717 63.8676C70.0592 63.8676 69.521 64.0172 69.1023 64.3165C68.6912 64.6083 68.4856 64.9898 68.4856 65.4612C68.4856 65.8352 68.6351 66.1532 68.9341 66.4151C69.2331 66.6769 69.6966 66.8827 70.3246 67.0323L72.1299 67.4587C73.3709 67.7505 74.2492 68.1396 74.7651 68.6259C75.2809 69.1122 75.5388 69.7892 75.5388 70.6571C75.5388 71.3828 75.3369 72.0187 74.9333 72.5649C74.5296 73.1036 73.9652 73.5225 73.24 73.8218C72.5149 74.1211 71.6702 74.2707 70.7058 74.2707Z" fill="#157EFC"/>
<path d="M63.024 60.456C62.6503 60.456 62.3288 60.3251 62.0597 60.0632C61.7906 59.7939 61.656 59.4722 61.656 59.0981C61.656 58.724 61.7906 58.406 62.0597 58.1442C62.3288 57.8823 62.6503 57.7514 63.024 57.7514C63.4053 57.7514 63.7305 57.8823 63.9996 58.1442C64.2687 58.406 64.4033 58.724 64.4033 59.0981C64.4033 59.4722 64.2687 59.7939 63.9996 60.0632C63.7305 60.3251 63.4053 60.456 63.024 60.456ZM63.024 74.2707C62.6802 74.2707 62.3998 74.1584 62.183 73.934C61.9662 73.7095 61.8578 73.4103 61.8578 73.0362V63.3065C61.8578 62.9324 61.9662 62.6331 62.183 62.4087C62.3998 62.1842 62.6802 62.072 63.024 62.072C63.3754 62.072 63.6557 62.1842 63.865 62.4087C64.0818 62.6331 64.1902 62.9324 64.1902 63.3065V73.0362C64.1902 73.4103 64.0818 73.7095 63.865 73.934C63.6557 74.1584 63.3754 74.2707 63.024 74.2707Z" fill="#157EFC"/>
<path d="M53.7738 74.2373C53.3552 74.2373 53.0188 74.1438 52.7646 73.9567C52.5105 73.7622 52.3011 73.4443 52.1367 73.0028L46.9785 59.4463C46.8814 59.2069 46.8328 58.9824 46.8328 58.773C46.8328 58.4512 46.9449 58.1894 47.1692 57.9874C47.4009 57.7854 47.6999 57.6844 48.0662 57.6844C48.6568 57.6844 49.053 57.9836 49.2548 58.5822L53.7514 71.3083H53.8299L58.3264 58.5709C58.5283 57.9799 58.9133 57.6844 59.4814 57.6844C59.8402 57.6844 60.1355 57.7854 60.3673 57.9874C60.599 58.1894 60.7149 58.4475 60.7149 58.7617C60.7149 58.9562 60.6663 59.177 60.5691 59.4238L55.3998 73.0141C55.2353 73.448 55.026 73.7622 54.7718 73.9567C54.5251 74.1438 54.1925 74.2373 53.7738 74.2373Z" fill="#157EFC"/>
<path d="M44.5179 60.456C44.1442 60.456 43.8227 60.3251 43.5536 60.0632C43.2845 59.7939 43.1499 59.4722 43.1499 59.0981C43.1499 58.724 43.2845 58.406 43.5536 58.1442C43.8227 57.8823 44.1442 57.7514 44.5179 57.7514C44.8992 57.7514 45.2244 57.8823 45.4935 58.1442C45.7626 58.406 45.8972 58.724 45.8972 59.0981C45.8972 59.4722 45.7626 59.7939 45.4935 60.0632C45.2244 60.3251 44.8992 60.456 44.5179 60.456ZM44.5179 74.2707C44.1741 74.2707 43.8937 74.1584 43.6769 73.934C43.4601 73.7095 43.3517 73.4103 43.3517 73.0362V63.3065C43.3517 62.9324 43.4601 62.6331 43.6769 62.4087C43.8937 62.1842 44.1741 62.072 44.5179 62.072C44.8693 62.072 45.1496 62.1842 45.3589 62.4087C45.5757 62.6331 45.6841 62.9324 45.6841 63.3065V73.0362C45.6841 73.4103 45.5757 73.7095 45.3589 73.934C45.1496 74.1584 44.8693 74.2707 44.5179 74.2707Z" fill="#FF5CAE"/>
<path d="M34.9599 74.2581C33.9657 74.2581 33.0948 74.0075 32.3472 73.5062C31.5997 73.005 31.0203 72.298 30.6092 71.3852C30.198 70.4725 29.9924 69.3989 29.9924 68.1644C29.9924 66.93 30.198 65.8564 30.6092 64.9436C31.0203 64.0309 31.5959 63.3276 32.336 62.8338C33.0761 62.3326 33.9395 62.0819 34.9263 62.0819C35.4944 62.0819 36.0177 62.1717 36.4962 62.3513C36.9746 62.5308 37.3932 62.7814 37.7521 63.1032C38.1184 63.4174 38.4099 63.7915 38.6267 64.2254H38.6828V58.8836C38.6828 58.502 38.7912 58.2027 39.008 57.9858C39.2247 57.7613 39.5051 57.6491 39.849 57.6491C40.1854 57.6491 40.4619 57.7613 40.6787 57.9858C40.903 58.2027 41.0151 58.502 41.0151 58.8836V73.1135C41.0151 73.4651 40.9067 73.7457 40.69 73.9551C40.4806 74.1646 40.2078 74.2694 39.8714 74.2694C39.535 74.2694 39.2509 74.1684 39.0192 73.9664C38.7949 73.7569 38.6828 73.4726 38.6828 73.1135V71.9576H38.6379C38.4361 72.4214 38.1632 72.8254 37.8193 73.1696C37.4755 73.5137 37.0643 73.7831 36.5859 73.9776C36.1149 74.1646 35.5729 74.2581 34.9599 74.2581ZM35.543 72.2718C36.1785 72.2718 36.7316 72.1035 37.2026 71.7668C37.6736 71.4301 38.0399 70.955 38.3015 70.3415C38.5632 69.7206 38.694 68.9986 38.694 68.1756C38.694 67.3452 38.5632 66.6232 38.3015 66.0097C38.0399 65.3962 37.6736 64.9212 37.2026 64.5845C36.7316 64.2403 36.1785 64.0683 35.543 64.0683C34.8927 64.0683 34.3283 64.2366 33.8498 64.5733C33.3789 64.9099 33.0163 65.385 32.7621 65.9985C32.508 66.6045 32.3809 67.3265 32.3809 68.1644C32.3809 69.0098 32.508 69.7393 32.7621 70.3528C33.0163 70.9663 33.3789 71.4413 33.8498 71.778C34.3283 72.1072 34.8927 72.2718 35.543 72.2718Z" fill="#FF5CAE"/>
<path d="M23.8235 74.2707C22.0592 74.2707 20.6837 73.7395 19.697 72.6771C18.7102 71.6073 18.2168 70.1222 18.2168 68.2218C18.2168 66.9724 18.4373 65.8876 18.8784 64.9674C19.3269 64.0471 19.9586 63.3327 20.7734 62.8239C21.5883 62.3152 22.5489 62.0608 23.6553 62.0608C24.6869 62.0608 25.5952 62.2965 26.3801 62.7678C27.1725 63.2317 27.793 63.8751 28.2415 64.698C28.69 65.521 28.9143 66.4712 28.9143 67.5485C28.9143 67.9301 28.8097 68.2293 28.6003 68.4463C28.391 68.6558 28.1032 68.7605 27.7369 68.7605H20.5716C20.5716 68.768 20.5716 68.7755 20.5716 68.783C20.5716 68.7904 20.5716 68.7979 20.5716 68.8054C20.5716 69.8977 20.8557 70.7656 21.4238 71.409C21.9994 72.0524 22.7769 72.3741 23.7562 72.3741C24.429 72.3741 24.9971 72.2432 25.4606 71.9813C25.9241 71.7195 26.3801 71.2781 26.8286 70.6571C26.9557 70.5075 27.0828 70.4027 27.2099 70.3429C27.337 70.2755 27.4865 70.2419 27.6584 70.2419C27.9425 70.2419 28.1742 70.3279 28.3536 70.5C28.5405 70.6721 28.634 70.904 28.634 71.1958C28.634 71.3753 28.5779 71.5885 28.4658 71.8354C28.092 72.6135 27.4977 73.2158 26.6829 73.6422C25.868 74.0612 24.9149 74.2707 23.8235 74.2707ZM20.5828 67.0996H26.5707C26.5483 66.4712 26.41 65.9213 26.1558 65.4499C25.9091 64.9786 25.569 64.6157 25.1354 64.3614C24.7093 64.0995 24.2122 63.9686 23.644 63.9686C23.0684 63.9686 22.5601 64.0995 22.119 64.3614C21.678 64.6232 21.3229 64.9898 21.0538 65.4612C20.7846 65.925 20.6277 66.4712 20.5828 67.0996Z" fill="#FF5CAE"/>
<path d="M1.09891 74.2373C0.755032 74.2373 0.485912 74.1363 0.291547 73.9343C0.0971823 73.7248 0 73.4405 0 73.0814V59.2106C0 58.7468 0.138298 58.3764 0.414894 58.0996C0.69149 57.8228 1.06901 57.6844 1.54744 57.6844C1.9586 57.6844 2.295 57.7854 2.55664 57.9874C2.81829 58.1894 3.03882 58.5148 3.21823 58.9637L8.09604 70.792H8.18574L13.0523 58.9637C13.2317 58.5148 13.456 58.1894 13.7251 57.9874C13.9943 57.7854 14.3381 57.6844 14.7568 57.6844C15.2277 57.6844 15.5978 57.8228 15.8669 58.0996C16.1435 58.3689 16.2818 58.7393 16.2818 59.2106V73.0814C16.2818 73.4405 16.1846 73.7248 15.9902 73.9343C15.7959 74.1363 15.5267 74.2373 15.1829 74.2373C14.839 74.2373 14.5661 74.1363 14.3643 73.9343C14.1699 73.7248 14.0727 73.4405 14.0727 73.0814V62.0274H13.9943L9.41921 73.0253C9.16504 73.6388 8.73893 73.9455 8.14089 73.9455C7.53537 73.9455 7.10926 73.6463 6.86257 73.0477L2.28752 62.0274H2.20903V73.0814C2.20903 73.4405 2.10811 73.7248 1.90627 73.9343C1.7119 74.1363 1.44278 74.2373 1.09891 74.2373Z" fill="#FF5CAE"/>
</svg>
