<svg width="145" height="70" viewBox="0 0 145 70" fill="none" xmlns="http://www.w3.org/2000/svg">
<path d="M139.18 69.9592C138.889 69.9592 138.653 69.8638 138.471 69.6732C138.298 69.4825 138.212 69.2374 138.212 68.9378V56.286C138.212 55.9864 138.294 55.7503 138.457 55.5778C138.63 55.3963 138.853 55.3055 139.125 55.3055C139.389 55.3055 139.607 55.3963 139.779 55.5778C139.952 55.7503 140.038 55.9864 140.038 56.286V58.0701H140.079C140.316 57.2348 140.747 56.5675 141.374 56.0681C142.001 55.5597 142.701 55.3055 143.473 55.3055C143.728 55.3055 143.95 55.3327 144.141 55.3872C144.341 55.4326 144.514 55.5052 144.659 55.6051C144.768 55.6868 144.85 55.7867 144.905 55.9047C144.968 56.0227 145 56.1589 145 56.3132C145 56.631 144.886 56.858 144.659 56.9942C144.532 57.0668 144.368 57.1122 144.169 57.1304C143.978 57.1394 143.719 57.144 143.392 57.144C142.292 57.144 141.474 57.5117 140.938 58.2471C140.411 58.9825 140.148 59.8859 140.148 60.9572V68.9378C140.148 69.2374 140.057 69.4825 139.875 69.6732C139.693 69.8638 139.461 69.9592 139.18 69.9592Z" fill="#081021"/>
<path d="M127.479 69.9592C126.288 69.9592 125.234 69.655 124.316 69.0467C123.408 68.4384 122.699 67.585 122.19 66.4864C121.681 65.3878 121.427 64.1031 121.427 62.6323C121.427 61.1615 121.677 59.8768 122.176 58.7782C122.685 57.6797 123.39 56.8262 124.289 56.2179C125.198 55.6096 126.247 55.3055 127.438 55.3055C128.201 55.3055 128.901 55.4416 129.537 55.714C130.182 55.9773 130.736 56.345 131.2 56.8171C131.672 57.2893 132.031 57.8295 132.277 58.4378H132.318V50.8658C132.318 50.5571 132.408 50.3119 132.59 50.1304C132.772 49.9397 133.004 49.8444 133.285 49.8444C133.567 49.8444 133.799 49.9397 133.98 50.1304C134.162 50.3119 134.253 50.5571 134.253 50.8658V69.0059C134.253 69.2873 134.167 69.5188 133.994 69.7004C133.821 69.8729 133.594 69.9592 133.313 69.9592C133.031 69.9592 132.795 69.8729 132.604 69.7004C132.413 69.5279 132.318 69.2964 132.318 69.0059V66.6907H132.277C132.049 67.3262 131.709 67.8937 131.254 68.393C130.809 68.8833 130.268 69.2691 129.632 69.5506C128.996 69.823 128.278 69.9592 127.479 69.9592ZM127.86 68.2704C128.742 68.2704 129.519 68.0389 130.191 67.5759C130.864 67.1038 131.386 66.4455 131.759 65.6012C132.14 64.7477 132.331 63.7581 132.331 62.6323C132.331 61.5065 132.14 60.5214 131.759 59.6771C131.386 58.8327 130.864 58.1745 130.191 57.7024C129.519 57.2302 128.742 56.9942 127.86 56.9942C126.961 56.9942 126.175 57.2302 125.502 57.7024C124.839 58.1654 124.321 58.8191 123.948 59.6634C123.585 60.4987 123.403 61.4883 123.403 62.6323C123.403 63.7672 123.585 64.7614 123.948 65.6148C124.321 66.4592 124.839 67.1129 125.502 67.5759C126.175 68.0389 126.961 68.2704 127.86 68.2704Z" fill="#081021"/>
<path d="M117.209 69.8502C116.836 69.8502 116.518 69.7231 116.255 69.4689C116 69.2056 115.873 68.8924 115.873 68.5292C115.873 68.157 116 67.8437 116.255 67.5895C116.518 67.3262 116.836 67.1946 117.209 67.1946C117.581 67.1946 117.895 67.3262 118.149 67.5895C118.404 67.8437 118.531 68.157 118.531 68.5292C118.531 68.8924 118.404 69.2056 118.149 69.4689C117.895 69.7231 117.581 69.8502 117.209 69.8502Z" fill="#081021"/>
<path d="M107.225 66.5V57.1304H105.849C105.576 57.1304 105.362 57.0577 105.208 56.9125C105.053 56.7672 104.976 56.572 104.976 56.3269C104.976 56.0726 105.053 55.8774 105.208 55.7413C105.362 55.6051 105.576 55.537 105.849 55.537H107.225V52.7996C107.225 52.4909 107.316 52.2413 107.498 52.0506C107.68 51.8599 107.911 51.7646 108.193 51.7646C108.484 51.7646 108.716 51.8599 108.888 52.0506C109.07 52.2413 109.161 52.4909 109.161 52.7996V55.537H111.233C111.505 55.537 111.714 55.6051 111.86 55.7413C112.014 55.8774 112.091 56.0726 112.091 56.3269C112.091 56.572 112.014 56.7672 111.86 56.9125C111.714 57.0577 111.505 57.1304 111.233 57.1304H109.161V66.1051C109.161 66.7951 109.293 67.299 109.556 67.6167C109.829 67.9345 110.283 68.107 110.919 68.1343L111.301 68.1479C111.61 68.166 111.837 68.2387 111.982 68.3658C112.137 68.4929 112.214 68.6745 112.214 68.9105C112.214 69.1012 112.169 69.2646 112.078 69.4008C111.987 69.537 111.842 69.6414 111.642 69.714C111.442 69.7776 111.174 69.8094 110.837 69.8094H110.483C109.393 69.8094 108.575 69.5415 108.029 69.0059C107.493 68.4611 107.225 67.6258 107.225 66.5Z" fill="#081021"/>
<path d="M101.549 52.7315C101.213 52.7315 100.917 52.6135 100.663 52.3774C100.418 52.1323 100.295 51.8372 100.295 51.4922C100.295 51.1472 100.418 50.8567 100.663 50.6206C100.917 50.3755 101.213 50.2529 101.549 50.2529C101.894 50.2529 102.19 50.3755 102.435 50.6206C102.689 50.8567 102.817 51.1472 102.817 51.4922C102.817 51.8372 102.689 52.1323 102.435 52.3774C102.19 52.6135 101.894 52.7315 101.549 52.7315ZM101.549 69.9592C101.267 69.9592 101.036 69.8638 100.854 69.6732C100.672 69.4825 100.581 69.2374 100.581 68.9378V56.3269C100.581 56.0182 100.672 55.773 100.854 55.5915C101.036 55.4008 101.267 55.3055 101.549 55.3055C101.831 55.3055 102.062 55.4008 102.244 55.5915C102.426 55.773 102.517 56.0182 102.517 56.3269V68.9378C102.517 69.2374 102.426 69.4825 102.244 69.6732C102.062 69.8638 101.831 69.9592 101.549 69.9592Z" fill="#081021"/>
<path d="M91.838 69.9592C90.5113 69.9592 89.3754 69.6732 88.4303 69.1012C87.4853 68.5201 86.8583 67.7529 86.5493 66.7996C86.4857 66.6362 86.4539 66.4773 86.4539 66.323C86.4539 66.0688 86.5357 65.8736 86.6993 65.7374C86.8628 65.5921 87.0718 65.5195 87.3263 65.5195C87.6807 65.5195 87.9714 65.7374 88.1986 66.1732C88.5257 66.8995 88.9892 67.4533 89.5889 67.8346C90.1887 68.2069 90.9838 68.393 91.9743 68.393C92.6467 68.393 93.2374 68.2931 93.7463 68.0934C94.2551 67.8937 94.655 67.6122 94.9458 67.249C95.2456 66.8859 95.3956 66.4592 95.3956 65.9689C95.3956 65.3697 95.2002 64.893 94.8095 64.5389C94.4187 64.1848 93.7554 63.8988 92.8194 63.6809L90.7203 63.1634C89.3481 62.8366 88.3304 62.3599 87.667 61.7335C87.0128 61.107 86.6856 60.3081 86.6856 59.3366C86.6856 58.1381 87.1672 57.1667 88.1305 56.4222C89.0937 55.6777 90.3523 55.3055 91.9061 55.3055C92.7331 55.3055 93.4918 55.4462 94.1824 55.7276C94.8731 56 95.4455 56.3813 95.8999 56.8716C96.3633 57.3619 96.6587 57.9248 96.7859 58.5603C96.8131 58.6965 96.8268 58.8145 96.8268 58.9144C96.8268 59.1505 96.7586 59.3411 96.6223 59.4864C96.4951 59.6226 96.3088 59.6907 96.0635 59.6907C95.8817 59.6907 95.7182 59.6498 95.5728 59.5681C95.4365 59.4773 95.3138 59.3184 95.2047 59.0915C94.9321 58.4105 94.5187 57.8703 93.9644 57.4708C93.4191 57.0714 92.7013 56.8716 91.8107 56.8716C90.8657 56.8716 90.0933 57.094 89.4935 57.5389C88.8938 57.9838 88.5939 58.5512 88.5939 59.2413C88.5939 59.8042 88.8075 60.2717 89.2345 60.644C89.6616 61.0162 90.3341 61.3113 91.2519 61.5292L93.3101 62.0195C94.7822 62.3736 95.8227 62.8366 96.4315 63.4086C97.0403 63.9806 97.3447 64.7795 97.3447 65.8055C97.3447 66.6317 97.113 67.358 96.6496 67.9845C96.1861 68.6109 95.541 69.0966 94.714 69.4417C93.8962 69.7867 92.9375 69.9592 91.838 69.9592Z" fill="#081021"/>
<path d="M82.0725 52.7315C81.7363 52.7315 81.4409 52.6135 81.1865 52.3774C80.9411 52.1323 80.8185 51.8372 80.8185 51.4922C80.8185 51.1472 80.9411 50.8567 81.1865 50.6206C81.4409 50.3755 81.7363 50.2529 82.0725 50.2529C82.4178 50.2529 82.7131 50.3755 82.9585 50.6206C83.2129 50.8567 83.3401 51.1472 83.3401 51.4922C83.3401 51.8372 83.2129 52.1323 82.9585 52.3774C82.7131 52.6135 82.4178 52.7315 82.0725 52.7315ZM82.0725 69.9592C81.7908 69.9592 81.5591 69.8638 81.3773 69.6732C81.1956 69.4825 81.1047 69.2374 81.1047 68.9378V56.3269C81.1047 56.0182 81.1956 55.773 81.3773 55.5915C81.5591 55.4008 81.7908 55.3055 82.0725 55.3055C82.3542 55.3055 82.5859 55.4008 82.7677 55.5915C82.9494 55.773 83.0403 56.0182 83.0403 56.3269V68.9378C83.0403 69.2374 82.9494 69.4825 82.7677 69.6732C82.5859 69.8638 82.3542 69.9592 82.0725 69.9592Z" fill="#081021"/>
<path d="M70.3306 69.9319C70.0125 69.9319 69.7535 69.8593 69.5536 69.714C69.3628 69.5688 69.2038 69.3236 69.0765 68.9786L62.2749 51.3288C62.1931 51.1109 62.1522 50.9202 62.1522 50.7568C62.1522 50.4935 62.2431 50.2802 62.4248 50.1167C62.6156 49.9533 62.8565 49.8716 63.1472 49.8716C63.6289 49.8716 63.9514 50.1167 64.115 50.607L70.3033 67.3035H70.3714L76.5597 50.5934C76.7324 50.1122 77.0504 49.8716 77.5139 49.8716C77.8047 49.8716 78.0455 49.9533 78.2363 50.1167C78.4271 50.2802 78.5225 50.489 78.5225 50.7432C78.5225 50.9066 78.4817 51.0973 78.3999 51.3152L71.5846 68.9922C71.4574 69.3282 71.2983 69.5688 71.1075 69.714C70.9167 69.8593 70.6577 69.9319 70.3306 69.9319Z" fill="#081021"/>
<path d="M57.8662 53.2354C57.3937 53.2354 56.9893 53.072 56.6531 52.7452C56.326 52.4092 56.1624 52.0097 56.1624 51.5467C56.1624 51.0746 56.326 50.6797 56.6531 50.3619C56.9893 50.035 57.3937 49.8716 57.8662 49.8716C58.3478 49.8716 58.7522 50.035 59.0793 50.3619C59.4155 50.6797 59.5837 51.0746 59.5837 51.5467C59.5837 52.0097 59.4155 52.4092 59.0793 52.7452C58.7522 53.072 58.3478 53.2354 57.8662 53.2354ZM57.8662 69.9864C57.43 69.9864 57.0756 69.8457 56.803 69.5642C56.5304 69.2828 56.3941 68.906 56.3941 68.4339V56.7082C56.3941 56.2361 56.5304 55.8593 56.803 55.5778C57.0756 55.2873 57.43 55.142 57.8662 55.142C58.3115 55.142 58.6659 55.2873 58.9294 55.5778C59.202 55.8593 59.3383 56.2361 59.3383 56.7082V68.4339C59.3383 68.906 59.202 69.2828 58.9294 69.5642C58.6659 69.8457 58.3115 69.9864 57.8662 69.9864Z" fill="#157EFC"/>
<path d="M44.952 69.9728C43.7435 69.9728 42.6848 69.6686 41.7761 69.0603C40.8765 68.452 40.1768 67.5941 39.677 66.4864C39.1772 65.3787 38.9273 64.0714 38.9273 62.5642C38.9273 61.0571 39.1727 59.7497 39.6634 58.642C40.1632 57.5344 40.8629 56.681 41.7625 56.0817C42.6712 55.4734 43.7253 55.1693 44.9248 55.1693C45.6154 55.1693 46.2515 55.2782 46.8331 55.4961C47.4146 55.714 47.9235 56.0182 48.3597 56.4086C48.7959 56.799 49.1503 57.2575 49.4229 57.7841H49.4774V51.3697C49.4774 50.8885 49.6137 50.5117 49.8863 50.2393C50.168 49.9579 50.527 49.8171 50.9631 49.8171C51.3902 49.8171 51.7401 49.9579 52.0127 50.2393C52.2944 50.5117 52.4352 50.8885 52.4352 51.3697V68.5156C52.4352 68.9695 52.2989 69.3282 52.0263 69.5915C51.7628 69.8548 51.4129 69.9864 50.9768 69.9864C50.5588 69.9864 50.2044 69.8593 49.9136 69.6051C49.6228 69.3418 49.4774 68.9786 49.4774 68.5156V67.181H49.4365C49.1912 67.7348 48.8595 68.225 48.4415 68.6518C48.0235 69.0694 47.5237 69.3963 46.9421 69.6323C46.3605 69.8593 45.6972 69.9728 44.952 69.9728ZM45.729 67.4806C46.4923 67.4806 47.1557 67.2808 47.7191 66.8813C48.2825 66.4819 48.7186 65.9144 49.0276 65.179C49.3456 64.4345 49.5047 63.5629 49.5047 62.5642C49.5047 61.5746 49.3456 60.7121 49.0276 59.9767C48.7186 59.2413 48.2779 58.6693 47.7054 58.2607C47.142 57.8522 46.4832 57.6479 45.729 57.6479C44.9475 57.6479 44.2751 57.8522 43.7117 58.2607C43.1483 58.6602 42.7121 59.2276 42.4031 59.9631C42.0942 60.6894 41.9397 61.5564 41.9397 62.5642C41.9397 63.572 42.0896 64.4436 42.3895 65.179C42.6985 65.9144 43.1346 66.4819 43.698 66.8813C44.2705 67.2808 44.9475 67.4806 45.729 67.4806Z" fill="#157EFC"/>
<path d="M30.225 70C28.0623 70 26.3766 69.3509 25.1681 68.0525C23.9686 66.7542 23.3688 64.9475 23.3688 62.6323C23.3688 61.1161 23.6369 59.7951 24.173 58.6693C24.7183 57.5435 25.4907 56.6764 26.4902 56.0681C27.4989 55.4507 28.6757 55.142 30.0205 55.142C31.2927 55.142 32.4104 55.428 33.3737 56C34.346 56.5629 35.1048 57.3437 35.65 58.3424C36.1952 59.3411 36.4678 60.4942 36.4678 61.8016C36.4678 62.2737 36.3406 62.6414 36.0862 62.9047C35.8317 63.168 35.4728 63.2996 35.0093 63.2996H26.3403C26.3403 63.3178 26.3403 63.3314 26.3403 63.3405C26.3403 63.3496 26.3403 63.3586 26.3403 63.3677C26.3403 64.666 26.6811 65.7011 27.3626 66.4728C28.0532 67.2354 28.9846 67.6167 30.1569 67.6167C30.9656 67.6167 31.6471 67.4624 32.2014 67.1537C32.7648 66.845 33.3192 66.3184 33.8644 65.5739C34.0189 65.3833 34.1779 65.2516 34.3414 65.179C34.505 65.0973 34.6913 65.0564 34.9003 65.0564C35.2547 65.0564 35.5455 65.1654 35.7727 65.3833C36.0089 65.5921 36.1271 65.8826 36.1271 66.2549C36.1271 66.4728 36.0589 66.7361 35.9226 67.0448C35.4592 67.9799 34.7276 68.7062 33.7281 69.2238C32.7376 69.7413 31.5699 70 30.225 70ZM26.3539 61.2432H33.5236C33.4963 60.4896 33.3328 59.8359 33.0329 59.2821C32.733 58.7192 32.3241 58.2834 31.8062 57.9747C31.2882 57.666 30.6884 57.5117 30.0069 57.5117C29.3345 57.5117 28.7302 57.666 28.1941 57.9747C27.667 58.2834 27.2399 58.7192 26.9128 59.2821C26.5947 59.845 26.4084 60.4987 26.3539 61.2432Z" fill="#157EFC"/>
<path d="M1.39032 69.9455C0.954141 69.9455 0.613376 69.8184 0.368026 69.5642C0.122675 69.3009 0 68.9423 0 68.4883V51.7918C0 51.2017 0.172654 50.7341 0.517962 50.3891C0.872358 50.035 1.35397 49.858 1.9628 49.858C2.48077 49.858 2.90332 49.9851 3.23045 50.2393C3.55758 50.4845 3.83928 50.893 4.07555 51.465L9.89581 65.5876H10.0049L15.8115 51.465C16.0387 50.893 16.3204 50.4845 16.6566 50.2393C17.0019 49.9851 17.4381 49.858 17.9651 49.858C18.5558 49.858 19.0238 50.0305 19.3691 50.3755C19.7235 50.7205 19.9007 51.1926 19.9007 51.7918V68.4883C19.9007 68.9423 19.778 69.3009 19.5326 69.5642C19.2873 69.8184 18.9465 69.9455 18.5103 69.9455C18.0742 69.9455 17.7289 69.8184 17.4744 69.5642C17.2291 69.3009 17.1064 68.9423 17.1064 68.4883V55.2646H17.011L11.5315 68.4747C11.2134 69.2283 10.6864 69.6051 9.95033 69.6051C9.20519 69.6051 8.67814 69.2328 8.36918 68.4883L2.87605 55.2646H2.78064V68.4883C2.78064 68.9423 2.65796 69.3009 2.41261 69.5642C2.16726 69.8184 1.8265 69.9455 1.39032 69.9455Z" fill="#157EFC"/>
<path fill-rule="evenodd" clip-rule="evenodd" d="M70.9272 13.5487L90.4411 32.1979C90.9504 32.6846 90.9683 33.4921 90.4812 34.001C89.9946 34.5092 89.1883 34.5271 88.6797 34.041L70.9272 17.0752L53.1747 34.041C52.6661 34.5271 51.8598 34.5092 51.3732 34.001C50.8861 33.4921 50.904 32.6846 51.4133 32.1979L70.9272 13.5487Z" fill="#157EFC"/>
<path fill-rule="evenodd" clip-rule="evenodd" d="M66.7203 4.20999L93.0032 29.6493C93.5094 30.1392 93.5222 30.9468 93.0318 31.4526C92.542 31.9577 91.7356 31.9705 91.2301 31.4812L64.9241 6.01951C62.6619 3.75934 57.759 1.71308 52.9878 5.2883L52.9595 5.30952L52.9301 5.32914C51.7919 6.08724 49.8638 7.8275 48.8201 10.1975C47.8222 12.4634 47.593 15.371 49.8313 18.7745L58.2675 28.0463L56.3802 29.7605L47.8138 20.3457L47.7607 20.2661C44.9528 16.058 45.1529 12.1971 46.4855 9.17112C47.7708 6.25248 50.0703 4.17876 51.4855 3.22867C57.5829 -1.31778 63.8821 1.38055 66.7203 4.20999Z" fill="#157EFC"/>
<path fill-rule="evenodd" clip-rule="evenodd" d="M59.0251 32.405C58.5268 31.9071 58.5268 31.0993 59.0251 30.6014C59.5229 30.1041 60.3294 30.1041 60.8271 30.6014L70.9272 40.6927L81.0273 30.6014C81.5251 30.1041 82.3316 30.1041 82.8293 30.6014C83.3277 31.0993 83.3277 31.9071 82.8293 32.405L70.9272 44.2967L59.0251 32.405Z" fill="#157EFC"/>
<path fill-rule="evenodd" clip-rule="evenodd" d="M77.0255 5.20435L71.1016 11.1231L69.298 9.32109L75.276 3.34836L75.304 3.32349C76.7334 2.05401 79.2527 0.564464 82.2814 0.126596C85.3648 -0.319197 88.9342 0.336388 92.294 3.31617C93.4529 4.31265 95.5032 6.84262 96.4992 10.0576C97.5215 13.3578 97.4428 17.4549 94.1151 21.2546L94.0872 21.2866L85.5551 29.8112L83.7515 28.0092L92.2228 19.5454C94.8198 16.5589 94.8795 13.448 94.0626 10.8112C93.2191 8.08838 91.4516 5.95115 90.625 5.24328L90.6075 5.22833C87.8483 2.77779 85.0445 2.30204 82.6467 2.64872C80.211 3.00086 78.1527 4.21291 77.0255 5.20435Z" fill="#157EFC"/>
<path d="M67.2986 25.2961H70.1099V28.0543H67.2986V25.2961Z" fill="#FE0180"/>
<path d="M67.2769 29.4335H70.0881V32.1918H67.2769V29.4335Z" fill="#FE0180"/>
<path d="M71.4936 29.4335H74.3049V32.1918H71.4936V29.4335Z" fill="#FE0180"/>
<path d="M71.4936 25.2961H74.3049V28.0543H71.4936V25.2961Z" fill="#FE0180"/>
<path d="M67.2986 25.2961H70.1099V28.0543H67.2986V25.2961Z" fill="#FE0180"/>
<path d="M67.2769 29.4335H70.0881V32.1918H67.2769V29.4335Z" fill="#FE0180"/>
<path d="M71.4936 29.4335H74.3049V32.1918H71.4936V29.4335Z" fill="#FE0180"/>
<path d="M71.4936 25.2961H74.3049V28.0543H71.4936V25.2961Z" fill="#FE0180"/>
</svg>
