<svg width="166" height="100" viewBox="0 0 166 100" fill="none" xmlns="http://www.w3.org/2000/svg">
<path d="M158.62 94.828V80.9826H156.583C156.18 80.9826 155.864 80.8752 155.636 80.6606C155.407 80.4459 155.293 80.1575 155.293 79.7952C155.293 79.4196 155.407 79.1311 155.636 78.9299C155.864 78.7287 156.18 78.628 156.583 78.628H158.62V74.5831C158.62 74.1269 158.754 73.758 159.023 73.4763C159.292 73.1945 159.635 73.0537 160.052 73.0537C160.482 73.0537 160.825 73.1945 161.08 73.4763C161.349 73.758 161.483 74.1269 161.483 74.5831V78.628H164.548C164.951 78.628 165.261 78.7287 165.476 78.9299C165.704 79.1311 165.819 79.4196 165.819 79.7952C165.819 80.1575 165.704 80.4459 165.476 80.6606C165.261 80.8752 164.951 80.9826 164.548 80.9826H161.483V94.2444C161.483 95.264 161.678 96.0086 162.068 96.4781C162.471 96.9477 163.143 97.2026 164.084 97.2428L164.649 97.263C165.106 97.2898 165.442 97.3971 165.657 97.585C165.886 97.7728 166 98.0411 166 98.3899C166 98.6717 165.933 98.9132 165.798 99.1144C165.664 99.3156 165.449 99.4699 165.153 99.5772C164.857 99.6712 164.461 99.7181 163.963 99.7181H163.439C161.826 99.7181 160.616 99.3223 159.81 98.5308C159.017 97.7258 158.62 96.4916 158.62 94.828Z" fill="#081021"/>
<path d="M150.223 74.4825C149.726 74.4825 149.289 74.3081 148.912 73.9592C148.549 73.597 148.368 73.161 148.368 72.6512C148.368 72.1414 148.549 71.712 148.912 71.3632C149.289 71.001 149.726 70.8199 150.223 70.8199C150.734 70.8199 151.171 71.001 151.534 71.3632C151.91 71.712 152.098 72.1414 152.098 72.6512C152.098 73.161 151.91 73.597 151.534 73.9592C151.171 74.3081 150.734 74.4825 150.223 74.4825ZM150.223 99.9395C149.806 99.9395 149.463 99.7986 149.195 99.5169C148.926 99.2351 148.791 98.8729 148.791 98.4302V79.7952C148.791 79.3391 148.926 78.9769 149.195 78.7085C149.463 78.4268 149.806 78.2859 150.223 78.2859C150.64 78.2859 150.982 78.4268 151.251 78.7085C151.52 78.9769 151.655 79.3391 151.655 79.7952V98.4302C151.655 98.8729 151.52 99.2351 151.251 99.5169C150.982 99.7986 150.64 99.9395 150.223 99.9395Z" fill="#081021"/>
<path d="M135.857 99.9395C133.895 99.9395 132.214 99.5169 130.816 98.6717C129.418 97.813 128.491 96.6794 128.034 95.2707C127.94 95.0292 127.893 94.7944 127.893 94.5663C127.893 94.1907 128.014 93.9022 128.256 93.701C128.497 93.4863 128.807 93.379 129.183 93.379C129.707 93.379 130.137 93.701 130.474 94.345C130.957 95.4183 131.643 96.2366 132.53 96.8001C133.417 97.3502 134.594 97.6252 136.059 97.6252C137.054 97.6252 137.927 97.4776 138.68 97.1825C139.433 96.8873 140.025 96.4714 140.455 95.9348C140.898 95.3981 141.12 94.7676 141.12 94.0431C141.12 93.1577 140.831 92.4533 140.253 91.9301C139.675 91.4069 138.694 90.9842 137.309 90.6623L134.204 89.8975C132.174 89.4146 130.668 88.7102 129.687 87.7845C128.719 86.8588 128.235 85.6782 128.235 84.2427C128.235 82.4717 128.948 81.0362 130.373 79.9361C131.798 78.836 133.659 78.2859 135.958 78.2859C137.181 78.2859 138.304 78.4939 139.326 78.9098C140.347 79.3123 141.194 79.8757 141.866 80.6002C142.552 81.3247 142.989 82.1565 143.177 83.0956C143.217 83.2968 143.237 83.4712 143.237 83.6188C143.237 83.9676 143.137 84.2494 142.935 84.464C142.747 84.6653 142.471 84.7659 142.108 84.7659C141.839 84.7659 141.597 84.7055 141.382 84.5848C141.181 84.4506 140.999 84.2158 140.838 83.8804C140.435 82.8742 139.823 82.076 139.003 81.4857C138.196 80.8954 137.134 80.6002 135.817 80.6002C134.419 80.6002 133.276 80.9289 132.389 81.5863C131.502 82.2437 131.058 83.0822 131.058 84.1018C131.058 84.9336 131.374 85.6245 132.006 86.1746C132.638 86.7246 133.633 87.1607 134.99 87.4827L138.035 88.2071C140.213 88.7303 141.752 89.4146 142.653 90.2598C143.553 91.105 144.004 92.2856 144.004 93.8016C144.004 95.0225 143.661 96.0958 142.975 97.0215C142.29 97.9472 141.335 98.665 140.112 99.1748C138.902 99.6846 137.484 99.9395 135.857 99.9395Z" fill="#081021"/>
<path d="M121.411 74.4825C120.914 74.4825 120.477 74.3081 120.1 73.9592C119.737 73.597 119.556 73.161 119.556 72.6512C119.556 72.1414 119.737 71.712 120.1 71.3632C120.477 71.001 120.914 70.8199 121.411 70.8199C121.922 70.8199 122.359 71.001 122.722 71.3632C123.098 71.712 123.286 72.1414 123.286 72.6512C123.286 73.161 123.098 73.597 122.722 73.9592C122.359 74.3081 121.922 74.4825 121.411 74.4825ZM121.411 99.9395C120.994 99.9395 120.652 99.7986 120.383 99.5169C120.114 99.2351 119.979 98.8729 119.979 98.4302V79.7952C119.979 79.3391 120.114 78.9769 120.383 78.7085C120.652 78.4268 120.994 78.2859 121.411 78.2859C121.828 78.2859 122.171 78.4268 122.439 78.7085C122.708 78.9769 122.843 79.3391 122.843 79.7952V98.4302C122.843 98.8729 122.708 99.2351 122.439 99.5169C122.171 99.7986 121.828 99.9395 121.411 99.9395Z" fill="#081021"/>
<path d="M104.041 99.8992C103.571 99.8992 103.187 99.7919 102.892 99.5772C102.609 99.3626 102.374 99.0004 102.186 98.4905L92.1242 72.4097C92.0032 72.0877 91.9427 71.806 91.9427 71.5645C91.9427 71.1754 92.0771 70.8601 92.346 70.6186C92.6283 70.3771 92.9845 70.2564 93.4147 70.2564C94.1271 70.2564 94.6043 70.6186 94.8463 71.3431L104.001 96.0153H104.102L113.256 71.323C113.511 70.6119 113.982 70.2564 114.667 70.2564C115.098 70.2564 115.454 70.3771 115.736 70.6186C116.018 70.8601 116.16 71.1687 116.16 71.5443C116.16 71.7858 116.099 72.0676 115.978 72.3896L105.896 98.5107C105.708 99.0071 105.473 99.3626 105.19 99.5772C104.908 99.7919 104.525 99.8992 104.041 99.8992Z" fill="#081021"/>
<path d="M85.6024 75.2271C84.9033 75.2271 84.3051 74.9856 83.8078 74.5026C83.3238 74.0062 83.0819 73.4159 83.0819 72.7317C83.0819 72.034 83.3238 71.4504 83.8078 70.9809C84.3051 70.4979 84.9033 70.2564 85.6024 70.2564C86.3148 70.2564 86.913 70.4979 87.3969 70.9809C87.8943 71.4504 88.143 72.034 88.143 72.7317C88.143 73.4159 87.8943 74.0062 87.3969 74.5026C86.913 74.9856 86.3148 75.2271 85.6024 75.2271ZM85.6024 99.9797C84.9571 99.9797 84.4328 99.7718 84.0296 99.3559C83.6263 98.94 83.4247 98.3832 83.4247 97.6856V80.3587C83.4247 79.6611 83.6263 79.1043 84.0296 78.6884C84.4328 78.2591 84.9571 78.0444 85.6024 78.0444C86.261 78.0444 86.7853 78.2591 87.1751 78.6884C87.5784 79.1043 87.7801 79.6611 87.7801 80.3587V97.6856C87.7801 98.3832 87.5784 98.94 87.1751 99.3559C86.7853 99.7718 86.261 99.9797 85.6024 99.9797Z" fill="#157EFC"/>
<path d="M66.4982 99.9596C64.7104 99.9596 63.1443 99.5102 61.8 98.6113C60.4692 97.7124 59.4341 96.4446 58.6948 94.8078C57.9554 93.1711 57.5858 91.2392 57.5858 89.0121C57.5858 86.785 57.9487 84.8531 58.6746 83.2163C59.414 81.5796 60.4491 80.3185 61.7799 79.433C63.1241 78.5341 64.6835 78.0847 66.4579 78.0847C67.4796 78.0847 68.4205 78.2457 69.2809 78.5677C70.1412 78.8896 70.894 79.3391 71.5392 79.916C72.1845 80.4929 72.7087 81.1704 73.112 81.9485H73.1927V72.4701C73.1927 71.759 73.3943 71.2022 73.7976 70.7998C74.2143 70.3839 74.7453 70.1759 75.3905 70.1759C76.0223 70.1759 76.5399 70.3839 76.9432 70.7998C77.3599 71.2022 77.5682 71.759 77.5682 72.4701V97.8063C77.5682 98.4771 77.3666 99.0071 76.9633 99.3961C76.5735 99.7852 76.0559 99.9797 75.4107 99.9797C74.7923 99.9797 74.2681 99.7919 73.8379 99.4163C73.4077 99.0272 73.1927 98.4905 73.1927 97.8063V95.8342H73.1322C72.7692 96.6525 72.2786 97.377 71.6602 98.0076C71.0418 98.6247 70.3025 99.1077 69.4422 99.4565C68.5818 99.7919 67.6005 99.9596 66.4982 99.9596ZM67.6476 96.2769C68.7768 96.2769 69.7581 95.9817 70.5915 95.3914C71.425 94.8011 72.0702 93.9626 72.5273 92.8759C72.9977 91.7758 73.233 90.4879 73.233 89.0121C73.233 87.5497 72.9977 86.2752 72.5273 85.1885C72.0702 84.1018 71.4182 83.2566 70.5714 82.6529C69.7379 82.0491 68.7633 81.7473 67.6476 81.7473C66.4915 81.7473 65.4968 82.0491 64.6633 82.6529C63.8299 83.2432 63.1846 84.0817 62.7276 85.1684C62.2705 86.2417 62.042 87.5229 62.042 89.0121C62.042 90.5013 62.2638 91.7892 62.7074 92.8759C63.1645 93.9626 63.8097 94.8011 64.6432 95.3914C65.49 95.9817 66.4915 96.2769 67.6476 96.2769Z" fill="#157EFC"/>
<path d="M44.7123 99.9999C41.513 99.9999 39.0194 99.0406 37.2315 97.1221C35.4571 95.2036 34.5699 92.5338 34.5699 89.1127C34.5699 86.8722 34.9664 84.9202 35.7595 83.2566C36.5661 81.593 37.7087 80.3118 39.1874 79.4129C40.6795 78.5006 42.4203 78.0444 44.4099 78.0444C46.2918 78.0444 47.9453 78.467 49.3702 79.3123C50.8085 80.1441 51.931 81.2978 52.7376 82.7736C53.5441 84.2494 53.9474 85.9532 53.9474 87.8851C53.9474 88.5828 53.7592 89.1261 53.3828 89.5152C53.0064 89.9043 52.4754 90.0988 51.7899 90.0988H38.9656C38.9656 90.1256 38.9656 90.1457 38.9656 90.1592C38.9656 90.1726 38.9656 90.186 38.9656 90.1994C38.9656 92.1179 39.4697 93.6473 40.4779 94.7877C41.4995 95.9147 42.8774 96.4781 44.6115 96.4781C45.8079 96.4781 46.8161 96.2501 47.6361 95.7939C48.4695 95.3378 49.2895 94.5596 50.0961 93.4595C50.3246 93.1778 50.5599 92.9832 50.8018 92.8759C51.0438 92.7552 51.3194 92.6948 51.6285 92.6948C52.1528 92.6948 52.583 92.8558 52.919 93.1778C53.2685 93.4863 53.4433 93.9157 53.4433 94.4657C53.4433 94.7877 53.3425 95.1768 53.1408 95.6329C52.4553 97.0148 51.3731 98.0881 49.8944 98.8528C48.4292 99.6175 46.7018 99.9999 44.7123 99.9999ZM38.9858 87.06H49.592C49.5517 85.9465 49.3097 84.9806 48.8661 84.1622C48.4225 83.3304 47.8176 82.6864 47.0513 82.2303C46.2851 81.7741 45.3979 81.546 44.3897 81.546C43.3949 81.546 42.501 81.7741 41.7079 82.2303C40.9282 82.6864 40.2964 83.3304 39.8125 84.1622C39.342 84.994 39.0664 85.9599 38.9858 87.06Z" fill="#157EFC"/>
<path d="M2.05672 99.9194C1.41148 99.9194 0.907377 99.7315 0.544426 99.3559C0.181475 98.9668 0 98.4369 0 97.7661V73.0939C0 72.2219 0.25541 71.5309 0.76623 71.0211C1.29049 70.4979 2.00295 70.2363 2.90361 70.2363C3.66984 70.2363 4.29492 70.4241 4.77885 70.7998C5.26279 71.162 5.67951 71.7657 6.02902 72.6109L14.639 93.4796H14.8003L23.3902 72.6109C23.7262 71.7657 24.143 71.162 24.6403 70.7998C25.1511 70.4241 25.7964 70.2363 26.5761 70.2363C27.4498 70.2363 28.1421 70.4912 28.653 71.001C29.1772 71.5108 29.4393 72.2084 29.4393 73.0939V97.7661C29.4393 98.4369 29.2579 98.9668 28.8949 99.3559C28.532 99.7315 28.0279 99.9194 27.3826 99.9194C26.7374 99.9194 26.2266 99.7315 25.8502 99.3559C25.4872 98.9668 25.3057 98.4369 25.3057 97.7661V78.2256H25.1646L17.0587 97.746C16.5882 98.8595 15.8085 99.4163 14.7197 99.4163C13.6174 99.4163 12.8377 98.8662 12.3807 97.7661L4.25459 78.2256H4.11344V97.7661C4.11344 98.4369 3.93197 98.9668 3.56902 99.3559C3.20607 99.7315 2.70197 99.9194 2.05672 99.9194Z" fill="#157EFC"/>
<path fill-rule="evenodd" clip-rule="evenodd" d="M83.9833 18.686L110.925 44.4052C111.628 45.077 111.653 46.1923 110.98 46.8946C110.309 47.595 109.197 47.6197 108.496 46.9499L83.9833 23.5497L59.4711 46.9499C58.7694 47.6197 57.6579 47.595 56.9866 46.8946C56.3135 46.1923 56.3382 45.077 57.0419 44.4052L83.9833 18.686Z" fill="#157EFC"/>
<path fill-rule="evenodd" clip-rule="evenodd" d="M78.1749 5.80631L114.462 40.8902C115.162 41.5664 115.179 42.6819 114.502 43.38C113.826 44.0761 112.714 44.0937 112.017 43.4194L75.6948 8.30195C72.5715 5.18479 65.802 2.36263 59.2145 7.29349L59.1754 7.32275L59.1348 7.34981C57.5634 8.39536 54.9012 10.7955 53.4602 14.0641C52.0824 17.1891 51.7659 21.1993 54.8563 25.8933L66.5041 38.6807L63.8983 41.0449L52.0708 28.0602L51.9975 27.9505C48.1206 22.1467 48.3969 16.8219 50.2368 12.6486C52.0114 8.62326 55.1863 5.76324 57.1402 4.45289C65.559 -1.81745 74.2562 1.90401 78.1749 5.80631Z" fill="#157EFC"/>
<path fill-rule="evenodd" clip-rule="evenodd" d="M67.5516 44.6935C66.863 44.0062 66.863 42.8905 67.5516 42.2033C68.2382 41.518 69.3501 41.518 70.0368 42.2033L83.9833 56.1223L97.9299 42.2033C98.6166 41.518 99.7285 41.518 100.415 42.2033C101.104 42.8905 101.104 44.0062 100.415 44.6935L83.9833 61.0928L67.5516 44.6935Z" fill="#157EFC"/>
<path fill-rule="evenodd" clip-rule="evenodd" d="M92.4031 7.1777L84.2241 15.3406L81.7339 12.8554L89.9876 4.61798L90.0263 4.58367C91.9999 2.83283 95.4783 0.778494 99.6599 0.174598C103.917 -0.440228 108.845 0.463938 113.484 4.57358C115.084 5.94789 117.915 9.43716 119.29 13.8712C120.702 18.4228 120.593 24.0733 115.999 29.3138L115.96 29.3579L104.18 41.1148L101.69 38.6296L113.386 26.9564C116.972 22.8376 117.054 18.5472 115.926 14.9105C114.762 11.1553 112.321 8.20767 111.18 7.23139L111.156 7.21078C107.346 3.83106 103.475 3.17492 100.164 3.65304C96.8014 4.1387 93.9595 5.81033 92.4031 7.1777Z" fill="#157EFC"/>
<path d="M78.9794 34.887H82.8609V38.6911H78.9794V34.887Z" fill="#FE0180"/>
<path d="M78.9493 40.5932H82.8308V44.3973H78.9493V40.5932Z" fill="#FE0180"/>
<path d="M84.7714 40.5932H88.6529V44.3973H84.7714V40.5932Z" fill="#FE0180"/>
<path d="M84.7714 34.887H88.6529V38.6911H84.7714V34.887Z" fill="#FE0180"/>
<path d="M78.9794 34.887H82.8609V38.6911H78.9794V34.887Z" fill="#FE0180"/>
<path d="M78.9493 40.5932H82.8308V44.3973H78.9493V40.5932Z" fill="#FE0180"/>
<path d="M84.7714 40.5932H88.6529V44.3973H84.7714V40.5932Z" fill="#FE0180"/>
<path d="M84.7714 34.887H88.6529V38.6911H84.7714V34.887Z" fill="#FE0180"/>
</svg>
