<svg width="24" height="24" viewBox="0 0 24 24" fill="none" xmlns="http://www.w3.org/2000/svg">
<circle cx="12" cy="12" r="12" fill="#E2F0FF"/>
<path d="M17.7855 8.51543L16.8463 7.5785C16.7832 7.51339 16.7077 7.46162 16.6243 7.42626C16.5408 7.3909 16.4511 7.37268 16.3605 7.37268C16.2699 7.37268 16.1802 7.3909 16.0967 7.42626C16.0133 7.46162 15.9378 7.51339 15.8747 7.5785L10.364 13.0916L8.12321 10.8462C7.99379 10.7193 7.8198 10.6483 7.63859 10.6483C7.45738 10.6483 7.28339 10.7193 7.15398 10.8462L6.21705 11.7854C6.15194 11.8485 6.10017 11.924 6.06481 12.0074C6.02945 12.0909 6.01123 12.1806 6.01123 12.2712C6.01123 12.3618 6.02945 12.4515 6.06481 12.535C6.10017 12.6184 6.15194 12.6939 6.21705 12.757L9.87936 16.4216C9.94156 16.4874 10.0167 16.5397 10.1001 16.5751C10.1836 16.6104 10.2734 16.6281 10.364 16.627C10.4541 16.6274 10.5434 16.6093 10.6263 16.574C10.7092 16.5387 10.7841 16.4868 10.8463 16.4216L17.7809 9.4985C17.846 9.43546 17.8978 9.35997 17.9331 9.27652C17.9685 9.19307 17.9867 9.10336 17.9867 9.01273C17.9867 8.9221 17.9685 8.8324 17.9331 8.74895C17.8978 8.6655 17.846 8.59001 17.7809 8.52696L17.7855 8.51543Z" fill="#157EFC"/>
</svg>
