<svg width="14" height="15" viewBox="0 0 14 15" fill="none" xmlns="http://www.w3.org/2000/svg">
<path fill-rule="evenodd" clip-rule="evenodd" d="M3.13235 0.879984C5.70275 0.595507 8.29677 0.595507 10.8672 0.879984C12.376 1.04818 13.5941 2.23459 13.7708 3.74914C14.0764 6.352 14.0764 8.98124 13.7708 11.5841C13.5933 13.0987 12.3752 14.2842 10.8672 14.4533C8.29677 14.7377 5.70275 14.7377 3.13235 14.4533C1.62353 14.2842 0.405419 13.0987 0.228689 11.5841C-0.0762297 8.98132 -0.0762297 6.35192 0.228689 3.74914C0.405419 2.23459 1.62436 1.04818 3.13235 0.879984ZM10.7301 2.10845C8.25079 1.83409 5.74873 1.83409 3.26944 2.10845C2.81047 2.15928 2.38207 2.3631 2.05345 2.68699C1.72483 3.01088 1.51518 3.43591 1.45837 3.89343C1.16465 6.40062 1.16465 8.93344 1.45837 11.4406C1.51535 11.898 1.72508 12.3228 2.05368 12.6466C2.38229 12.9703 2.81059 13.174 3.26944 13.2248C5.72796 13.4985 8.27155 13.4985 10.7301 13.2248C11.1888 13.1738 11.6169 12.97 11.9453 12.6463C12.2738 12.3226 12.4834 11.8979 12.5403 11.4406C12.834 8.93345 12.834 6.40062 12.5403 3.89343C12.4832 3.43633 12.2735 3.01178 11.9451 2.68823C11.6167 2.36469 11.1887 2.16103 10.7301 2.1101" fill="#081021"/>
<path d="M3 7.66663C3 7.50727 3.0633 7.35445 3.17598 7.24177C3.28866 7.12909 3.44149 7.06578 3.60084 7.06578H6.39916V4.26747C6.39916 4.10811 6.46246 3.95529 6.57514 3.84261C6.68782 3.72993 6.84065 3.66663 7 3.66663C7.15935 3.66663 7.31218 3.72993 7.42486 3.84261C7.53754 3.95529 7.60084 4.10811 7.60084 4.26747V7.06578H10.3992C10.5585 7.06578 10.7113 7.12909 10.824 7.24177C10.9367 7.35445 11 7.50727 11 7.66663C11 7.82598 10.9367 7.97881 10.824 8.09148C10.7113 8.20416 10.5585 8.26747 10.3992 8.26747H7.60084V11.0658C7.60084 11.2251 7.53754 11.378 7.42486 11.4906C7.31218 11.6033 7.15935 11.6666 7 11.6666C6.84065 11.6666 6.68782 11.6033 6.57514 11.4906C6.46246 11.378 6.39916 11.2251 6.39916 11.0658V8.26747H3.60084C3.44149 8.26747 3.28866 8.20416 3.17598 8.09148C3.0633 7.97881 3 7.82598 3 7.66663Z" fill="#081021"/>
</svg>
