<svg width="20" height="20" viewBox="0 0 20 20" fill="none" xmlns="http://www.w3.org/2000/svg">
<g clip-path="url(#clip0_14_1382)">
<path d="M3.1533 14.4937H2.78117C2.4749 14.4937 2.22462 14.7407 2.22462 15.0502C2.22462 15.3565 2.47164 15.6068 2.78117 15.6068H3.15661C3.46288 15.6068 3.71316 15.3598 3.71316 15.0502C3.71316 14.7406 3.46288 14.4937 3.1533 14.4937Z" fill="#081021"/>
<path d="M6.1337 14.4937H5.75825C5.45199 14.4937 5.20171 14.7407 5.20171 15.0502C5.20171 15.3565 5.44873 15.6068 5.75825 15.6068H6.1337C6.43997 15.6068 6.69025 15.3598 6.69025 15.0502C6.69025 14.7406 6.43997 14.4937 6.1337 14.4937Z" fill="#081021"/>
<path d="M9.1108 14.4937H8.73535C8.42908 14.4937 8.1788 14.7407 8.1788 15.0502C8.1788 15.3565 8.42582 15.6068 8.73535 15.6068H9.1108C9.41707 15.6068 9.66735 15.3598 9.66735 15.0502C9.66735 14.7406 9.41712 14.4937 9.1108 14.4937Z" fill="#081021"/>
<path d="M3.1533 12.0896H2.78117C2.4749 12.0896 2.22462 12.3366 2.22462 12.6461C2.22462 12.9524 2.47164 13.2027 2.78117 13.2027H3.15661C3.46288 13.2027 3.71316 12.9557 3.71316 12.6461C3.71316 12.3366 3.46288 12.0896 3.1533 12.0896Z" fill="#081021"/>
<path d="M6.1337 12.0896H5.75825C5.45199 12.0896 5.20171 12.3366 5.20171 12.6461C5.20171 12.9524 5.44873 13.2027 5.75825 13.2027H6.1337C6.43997 13.2027 6.69025 12.9557 6.69025 12.6461C6.69025 12.3366 6.43997 12.0896 6.1337 12.0896Z" fill="#081021"/>
<path d="M9.1108 12.0896H8.73535C8.42908 12.0896 8.1788 12.3366 8.1788 12.6461C8.1788 12.9524 8.42582 13.2027 8.73535 13.2027H9.1108C9.41707 13.2027 9.66735 12.9557 9.66735 12.6461C9.6674 12.3366 9.41712 12.0896 9.1108 12.0896Z" fill="#081021"/>
<path d="M3.1533 9.68225H2.78117C2.4749 9.68225 2.22462 9.92922 2.22462 10.2388C2.22462 10.5451 2.47164 10.7953 2.78117 10.7953H3.15661C3.46288 10.7953 3.71316 10.5484 3.71316 10.2388C3.71316 9.92922 3.46288 9.68225 3.1533 9.68225Z" fill="#081021"/>
<path d="M6.1337 9.68225H5.75825C5.45199 9.68225 5.20171 9.92922 5.20171 10.2388C5.20171 10.5451 5.44873 10.7953 5.75825 10.7953H6.1337C6.43997 10.7953 6.69025 10.5484 6.69025 10.2388C6.69025 9.92922 6.43997 9.68225 6.1337 9.68225Z" fill="#081021"/>
<path d="M9.1108 9.68225H8.73535C8.42908 9.68225 8.1788 9.92922 8.1788 10.2388C8.1788 10.5451 8.42582 10.7953 8.73535 10.7953H9.1108C9.41707 10.7953 9.66735 10.5484 9.66735 10.2388C9.66735 9.92922 9.41712 9.68225 9.1108 9.68225Z" fill="#081021"/>
<path d="M12.0912 9.67896H11.7158C11.4095 9.67896 11.1592 9.92593 11.1592 10.2355C11.1626 10.5451 11.4095 10.7921 11.7158 10.7921H12.0912C12.3975 10.7921 12.6478 10.5451 12.6478 10.2355C12.6478 9.92593 12.4008 9.67896 12.0912 9.67896Z" fill="#081021"/>
<path d="M3.1533 7.27808H2.78117C2.4749 7.27808 2.22462 7.5251 2.22462 7.83463C2.22462 8.14089 2.47164 8.39117 2.77459 8.39117H3.15004C3.45631 8.39117 3.70659 8.14415 3.70659 7.83463C3.70659 7.52505 3.46288 7.27808 3.1533 7.27808Z" fill="#081021"/>
<path d="M6.1337 7.27808H5.75825C5.45199 7.27808 5.20171 7.5251 5.20171 7.83463C5.20171 8.14089 5.44873 8.39117 5.75825 8.39117H6.1337C6.43997 8.39117 6.69025 8.14415 6.69025 7.83463C6.69025 7.52505 6.43997 7.27808 6.1337 7.27808Z" fill="#081021"/>
<path d="M9.1108 7.27808H8.73535C8.42908 7.27808 8.1788 7.5251 8.1788 7.83463C8.1788 8.14089 8.42582 8.39117 8.73535 8.39117H9.1108C9.41707 8.39117 9.66735 8.14415 9.66735 7.83463C9.66409 7.52505 9.41712 7.27808 9.1108 7.27808Z" fill="#081021"/>
<path d="M15.0683 7.27478H14.6929C14.3866 7.27478 14.1363 7.5218 14.1363 7.83133C14.1363 8.14091 14.3866 8.38788 14.6929 8.38788H15.0683C15.3746 8.38788 15.6249 8.14086 15.6249 7.83133C15.6249 7.52506 15.3779 7.27478 15.0683 7.27478Z" fill="#081021"/>
<path d="M12.0912 7.27478H11.7158C11.4095 7.27478 11.1592 7.5218 11.1592 7.83133C11.1626 8.14091 11.4095 8.38788 11.7158 8.38788H12.0912C12.3975 8.38788 12.6478 8.14086 12.6478 7.83133C12.6478 7.52506 12.4008 7.27478 12.0912 7.27478Z" fill="#081021"/>
<path d="M17.8445 11.5791V3.03639C17.8445 2.11759 17.0969 1.37 16.1781 1.37H14.4854V0.556549C14.4854 0.250281 14.2383 0 13.9288 0C13.6225 0 13.3722 0.24697 13.3722 0.556549V1.37326H4.47053V0.55986C4.47053 0.253593 4.22351 0.00331128 3.91398 0.00331128C3.60446 0.00331128 3.35738 0.250281 3.35738 0.55986V1.37331H1.66792C0.749117 1.37331 0.00153351 2.1209 0.00153351 3.0397V16.16C0.00153351 17.0788 0.749117 17.8264 1.66792 17.8264H11.5642C12.3678 19.1306 13.8036 20 15.4404 20C17.9531 20 19.9983 17.9582 19.9983 15.4421C19.9983 13.8119 19.1354 12.3827 17.8445 11.5791ZM1.11137 3.03639C1.11137 2.73012 1.35834 2.47984 1.66792 2.47984H3.36064V3.3855C3.36064 3.69177 3.60767 3.94205 3.91719 3.94205C4.22346 3.94205 4.47374 3.69508 4.47374 3.3855V2.47984H13.382V3.3855C13.382 3.69177 13.6291 3.94205 13.9386 3.94205C14.2449 3.94205 14.4951 3.69508 14.4951 3.3855V2.47984H16.1879C16.4941 2.47984 16.7444 2.72686 16.7444 3.03639V5.05189H1.11137V3.03639ZM11.0702 16.7199L1.67123 16.7166C1.36496 16.7166 1.11468 16.4696 1.11468 16.16V6.16829H16.7379V11.0786C16.3296 10.9567 15.8916 10.8908 15.4437 10.8908C12.9309 10.8908 10.8858 12.9327 10.8858 15.4487C10.8858 15.89 10.9517 16.3181 11.0702 16.7199ZM15.4404 18.8902C13.5402 18.8902 11.9923 17.3423 11.9923 15.4421C11.9923 13.5419 13.5402 11.9941 15.4404 11.9941C17.3406 11.9941 18.8884 13.5419 18.8884 15.4421C18.8884 17.3423 17.3406 18.8902 15.4404 18.8902Z" fill="#081021"/>
<path d="M17.3144 14.0655C17.0937 13.8481 16.738 13.8481 16.524 14.0655L14.9498 15.6397L14.3603 15.0502C14.1429 14.8328 13.7939 14.8328 13.5732 15.0502C13.3558 15.2675 13.3558 15.6166 13.5732 15.8373L14.5578 16.822C14.8411 17.1019 15.2396 16.924 15.345 16.822L17.3144 14.8526C17.5317 14.6352 17.5317 14.2861 17.3144 14.0655Z" fill="#081021"/>
</g>
<defs>
<clipPath id="clip0_14_1382">
<rect width="20" height="20" fill="white"/>
</clipPath>
</defs>
</svg>
