<svg width="16" height="16" viewBox="0 0 16 16" fill="none" xmlns="http://www.w3.org/2000/svg">
<path d="M10.9562 2.79692C10.8656 2.58754 10.6281 2.46879 10.3844 2.51567C10.2781 2.53442 9.975 2.82817 7.65 5.15004C5.32812 7.47504 5.03437 7.77817 5.01562 7.88442C4.95937 8.17817 4.80937 8.00629 7.65 10.85C10.4906 13.6907 10.3219 13.5407 10.6156 13.4844C10.7687 13.4563 10.9562 13.2688 10.9844 13.1157C11.0406 12.8219 11.1687 12.9719 8.58437 10.3813L6.20312 8.00004L8.56875 5.63129C9.89375 4.30629 10.95 3.22817 10.9687 3.17817C11.0125 3.05942 11.0062 2.91254 10.9562 2.79692Z" fill="#081021"/>
</svg>
