<svg width="16" height="17" viewBox="0 0 16 17" fill="none" xmlns="http://www.w3.org/2000/svg">
<path d="M8 5.33367C8.17681 5.33367 8.34638 5.26343 8.4714 5.13841C8.59643 5.01338 8.66667 4.84381 8.66667 4.667C8.66667 4.49019 8.59643 4.32062 8.4714 4.1956C8.34638 4.07057 8.17681 4.00034 8 4.00034C7.82319 4.00034 7.65362 4.07057 7.5286 4.1956C7.40357 4.32062 7.33333 4.49019 7.33333 4.667C7.33333 4.84381 7.40357 5.01338 7.5286 5.13841C7.65362 5.26343 7.82319 5.33367 8 5.33367ZM8.44867 2.149C8.31909 2.05226 8.16171 2 8 2C7.83829 2 7.68091 2.05226 7.55133 2.149L2.23667 6.11634C1.78667 6.452 2.02433 7.167 2.58533 7.167H3V11.1687C2.70076 11.3106 2.44794 11.5346 2.27093 11.8145C2.09391 12.0944 1.99996 12.4188 2 12.75V13.9167C2 14.1467 2.18667 14.3333 2.41667 14.3333H13.5833C13.8133 14.3333 14 14.1467 14 13.9167V12.75C14 12.4188 13.9061 12.0944 13.7291 11.8145C13.5521 11.5346 13.2992 11.3106 13 11.1687V7.16667H13.4147C13.976 7.16667 14.2133 6.45167 13.7637 6.116L8.44867 2.149ZM12.1667 11H10.6667V7.16667H12.1667V11ZM9.83333 11H8.41667V7.16667H9.83333V11ZM7.58333 11H6.16667V7.16667H7.58333V11ZM5.33333 11H3.83333V7.16667H5.33333V11ZM3.338 6.33334L8 2.85367L12.6617 6.33367L3.338 6.33334ZM2.83333 12.7503C2.83333 12.5072 2.92991 12.2741 3.10182 12.1022C3.27373 11.9302 3.50688 11.8337 3.75 11.8337H12.25C12.4931 11.8337 12.7263 11.9302 12.8982 12.1022C13.0701 12.2741 13.1667 12.5072 13.1667 12.7503V13.5003H2.83333V12.7503Z" fill="#081021"/>
</svg>
