<svg width="20" height="20" viewBox="0 0 20 20" fill="none" xmlns="http://www.w3.org/2000/svg">
<path fill-rule="evenodd" clip-rule="evenodd" d="M4.75904 4.07484C3.92064 4.18756 3.4376 4.39895 3.08492 4.75162C3.08492 4.75162 3.08492 4.75162 3.08492 4.75162M3.08492 4.75162C2.73225 5.1043 2.52085 5.58734 2.40813 6.42575C2.29299 7.28214 2.29167 8.41102 2.29167 10V11.6667C2.29167 13.2557 2.29299 14.3846 2.40813 15.241C2.52085 16.0794 2.73225 16.5624 3.0849 16.9151C3.43758 17.2678 3.92064 17.4792 4.75904 17.5919C5.61543 17.707 6.74431 17.7084 8.33333 17.7084H11.6667C13.2557 17.7084 14.3846 17.707 15.241 17.5919C16.0794 17.4792 16.5624 17.2678 16.915 16.9151L16.9151 16.9151C17.2677 16.5624 17.4791 16.0794 17.5919 15.241C17.707 14.3846 17.7083 13.2557 17.7083 11.6667V10C17.7083 8.41102 17.707 7.28214 17.5919 6.42575C17.4791 5.58735 17.2677 5.10431 16.9151 4.75163C16.5624 4.39897 16.0794 4.18756 15.241 4.07484C14.3846 3.9597 13.2557 3.95837 11.6667 3.95837H8.33333C6.74432 3.95837 5.61543 3.9597 4.75904 4.07484M8.28632 2.70837H11.7137C13.2451 2.70836 14.4582 2.70835 15.4075 2.83599C16.3845 2.96734 17.1753 3.2441 17.799 3.86775C18.4226 4.49139 18.6994 5.28217 18.8307 6.25919C18.9584 7.20853 18.9583 8.42156 18.9583 9.95302V11.7137C18.9583 13.2452 18.9584 14.4582 18.8307 15.4076C18.6994 16.3846 18.4226 17.1754 17.799 17.799C17.799 17.799 17.799 17.799 17.799 17.799C17.799 17.799 17.7989 17.799 17.7989 17.799C17.1753 18.4226 16.3845 18.6994 15.4075 18.8308C14.4582 18.9584 13.2451 18.9584 11.7137 18.9584H8.28632C6.75485 18.9584 5.54182 18.9584 4.59248 18.8308C3.61547 18.6994 2.82468 18.4226 2.20105 17.799C1.5774 17.1754 1.30063 16.3846 1.16928 15.4076C1.04164 14.4582 1.04165 13.2452 1.04167 11.7137V9.95303C1.04165 8.42156 1.04164 7.20853 1.16928 6.25919C1.30063 5.28217 1.5774 4.49138 2.20103 3.86774C2.82467 3.24411 3.61546 2.96734 4.59248 2.83599C5.54183 2.70835 6.75485 2.70836 8.28632 2.70837Z" fill="#081021"/>
<path fill-rule="evenodd" clip-rule="evenodd" d="M1.45833 7.5C1.45833 7.15482 1.73816 6.875 2.08333 6.875H17.9167C18.2618 6.875 18.5417 7.15482 18.5417 7.5C18.5417 7.84518 18.2618 8.125 17.9167 8.125H2.08333C1.73816 8.125 1.45833 7.84518 1.45833 7.5Z" fill="#081021"/>
<path d="M15 14.1667C15 14.6269 14.6269 15 14.1667 15C13.7064 15 13.3333 14.6269 13.3333 14.1667C13.3333 13.7064 13.7064 13.3333 14.1667 13.3333C14.6269 13.3333 15 13.7064 15 14.1667Z" fill="#081021"/>
<path d="M15 10.8333C15 11.2936 14.6269 11.6667 14.1667 11.6667C13.7064 11.6667 13.3333 11.2936 13.3333 10.8333C13.3333 10.3731 13.7064 10 14.1667 10C14.6269 10 15 10.3731 15 10.8333Z" fill="#081021"/>
<path d="M10.8333 14.1667C10.8333 14.6269 10.4602 15 10 15C9.53975 15 9.16667 14.6269 9.16667 14.1667C9.16667 13.7064 9.53975 13.3333 10 13.3333C10.4602 13.3333 10.8333 13.7064 10.8333 14.1667Z" fill="#081021"/>
<path d="M10.8333 10.8333C10.8333 11.2936 10.4602 11.6667 10 11.6667C9.53975 11.6667 9.16667 11.2936 9.16667 10.8333C9.16667 10.3731 9.53975 10 10 10C10.4602 10 10.8333 10.3731 10.8333 10.8333Z" fill="#081021"/>
<path d="M6.66667 14.1667C6.66667 14.6269 6.29357 15 5.83333 15C5.3731 15 5 14.6269 5 14.1667C5 13.7064 5.3731 13.3333 5.83333 13.3333C6.29357 13.3333 6.66667 13.7064 6.66667 14.1667Z" fill="#081021"/>
<path d="M6.66667 10.8333C6.66667 11.2936 6.29357 11.6667 5.83333 11.6667C5.3731 11.6667 5 11.2936 5 10.8333C5 10.3731 5.3731 10 5.83333 10C6.29357 10 6.66667 10.3731 6.66667 10.8333Z" fill="#081021"/>
<path fill-rule="evenodd" clip-rule="evenodd" d="M5.83333 1.44995C6.17851 1.44995 6.45833 1.72977 6.45833 2.07495V3.32495C6.45833 3.67013 6.17851 3.94995 5.83333 3.94995C5.48816 3.94995 5.20833 3.67013 5.20833 3.32495V2.07495C5.20833 1.72977 5.48816 1.44995 5.83333 1.44995Z" fill="#081021"/>
<path fill-rule="evenodd" clip-rule="evenodd" d="M14.1667 1.44995C14.5118 1.44995 14.7917 1.72977 14.7917 2.07495V3.32495C14.7917 3.67013 14.5118 3.94995 14.1667 3.94995C13.8215 3.94995 13.5417 3.67013 13.5417 3.32495V2.07495C13.5417 1.72977 13.8215 1.44995 14.1667 1.44995Z" fill="#081021"/>
</svg>
