<svg width="16" height="17" viewBox="0 0 16 17" fill="none" xmlns="http://www.w3.org/2000/svg">
<path d="M13.725 2.91663H2.275C1.87075 2.91729 1.48324 3.07817 1.19739 3.36402C0.911543 3.64987 0.750661 4.03737 0.75 4.44163V12.8916C0.750661 13.2959 0.911543 13.6834 1.19739 13.9692C1.48324 14.2551 1.87075 14.416 2.275 14.4166H13.725C14.1293 14.416 14.5168 14.2551 14.8026 13.9692C15.0885 13.6834 15.2493 13.2959 15.25 12.8916V4.44163C15.2493 4.03737 15.0885 3.64987 14.8026 3.36402C14.5168 3.07817 14.1293 2.91729 13.725 2.91663ZM2.275 3.91663H13.725C13.8642 3.91663 13.9978 3.97194 14.0962 4.07039C14.1947 4.16885 14.25 4.30239 14.25 4.44163V5.91663H1.75V4.44163C1.75 4.30239 1.80531 4.16885 1.90377 4.07039C2.00223 3.97194 2.13576 3.91663 2.275 3.91663ZM13.725 13.4166H2.275C2.13576 13.4166 2.00223 13.3613 1.90377 13.2629C1.80531 13.1644 1.75 13.0309 1.75 12.8916V6.91663H14.25V12.8916C14.25 13.0309 14.1947 13.1644 14.0962 13.2629C13.9978 13.3613 13.8642 13.4166 13.725 13.4166Z" fill="#081021"/>
<path d="M12.75 11.4166H10.5C10.3674 11.4166 10.2402 11.4693 10.1464 11.5631C10.0527 11.6568 10 11.784 10 11.9166C10 12.0492 10.0527 12.1764 10.1464 12.2702C10.2402 12.3639 10.3674 12.4166 10.5 12.4166H12.75C12.8826 12.4166 13.0098 12.3639 13.1036 12.2702C13.1973 12.1764 13.25 12.0492 13.25 11.9166C13.25 11.784 13.1973 11.6568 13.1036 11.5631C13.0098 11.4693 12.8826 11.4166 12.75 11.4166Z" fill="#081021"/>
</svg>
