<svg width="20" height="21" viewBox="0 0 20 21" fill="none" xmlns="http://www.w3.org/2000/svg">
<path d="M5.70655 20.6666C6.22122 20.6666 6.60045 20.4012 7.22348 19.823L10.3205 16.9605H15.7562C18.474 16.9605 20 15.3112 20 12.496V5.13108C20 2.31592 18.474 0.666626 15.7562 0.666626H4.24379C1.53499 0.666626 0 2.31592 0 5.13108V12.496C0 15.3207 1.58014 16.9605 4.18059 16.9605H4.55079V19.2827C4.55079 20.1263 4.97517 20.6666 5.70655 20.6666ZM6.15801 18.5434V15.842C6.15801 15.2827 5.92325 15.0647 5.41761 15.0647H4.307C2.60948 15.0647 1.79684 14.1643 1.79684 12.4391V5.18795C1.79684 3.46283 2.60948 2.56236 4.307 2.56236H15.702C17.3905 2.56236 18.2032 3.46283 18.2032 5.18795V12.4391C18.2032 14.1643 17.3905 15.0647 15.702 15.0647H10.2212C9.67043 15.0647 9.39955 15.1595 9.02032 15.5766L6.15801 18.5434ZM5.65237 10.2306C6.39278 10.2306 6.98871 9.59554 6.98871 8.80881C6.98871 8.03156 6.39278 7.39648 5.65237 7.39648C4.90293 7.39648 4.29797 8.03156 4.29797 8.80881C4.29797 9.59554 4.90293 10.2306 5.65237 10.2306ZM10.0045 10.2306C10.7449 10.2306 11.3499 9.59554 11.3499 8.80881C11.3499 8.03156 10.7449 7.39648 10.0045 7.39648C9.26411 7.39648 8.65914 8.03156 8.65914 8.80881C8.65914 9.59554 9.26411 10.2306 10.0045 10.2306ZM14.3657 10.2306C15.1061 10.2306 15.7111 9.59554 15.7111 8.80881C15.7111 8.03156 15.1061 7.39648 14.3657 7.39648C13.6253 7.39648 13.0203 8.03156 13.0203 8.80881C13.0203 9.59554 13.6253 10.2306 14.3657 10.2306Z" fill="#081021"/>
</svg>
