<svg width="16" height="17" viewBox="0 0 16 17" fill="none" xmlns="http://www.w3.org/2000/svg">
<mask id="mask0_14_1301" style="mask-type:luminance" maskUnits="userSpaceOnUse" x="2" y="2" width="12" height="12">
<path d="M13.6093 2.58337H2.5V13.9606H13.6093V2.58337Z" fill="white"/>
</mask>
<g mask="url(#mask0_14_1301)">
<path fill-rule="evenodd" clip-rule="evenodd" d="M4.1205 5.67812C4.1205 3.96893 5.50606 2.58337 7.21525 2.58337C8.92444 2.58337 10.31 3.96893 10.31 5.67812C10.31 7.38732 8.92444 8.77287 7.21525 8.77287C5.50606 8.77287 4.1205 7.38732 4.1205 5.67812ZM7.21525 3.58337C6.05834 3.58337 5.1205 4.52122 5.1205 5.67812C5.1205 6.83503 6.05834 7.77287 7.21525 7.77287C8.37216 7.77287 9.31 6.83503 9.31 5.67812C9.31 4.52122 8.37216 3.58337 7.21525 3.58337Z" fill="#081021"/>
<path fill-rule="evenodd" clip-rule="evenodd" d="M7.45469 7.77234C8.63312 7.77084 9.76429 8.23574 10.6011 9.06557C10.7971 9.26001 10.7985 9.57659 10.604 9.77267C10.4096 9.96874 10.093 9.97006 9.89692 9.77562C9.24769 9.13178 8.37001 8.7711 7.45567 8.77234L6.97399 8.77234C6.05238 8.77234 5.16848 9.13846 4.5168 9.79015C3.86511 10.4418 3.49899 11.3257 3.49899 12.2473V12.9598H11.0387C11.1303 12.8455 11.2711 12.7723 11.429 12.7723C11.7051 12.7723 11.929 12.9962 11.929 13.2723V13.4598C11.929 13.736 11.7051 13.9598 11.429 13.9598H2.99899C2.72285 13.9598 2.49899 13.736 2.49899 13.4598V12.2473C2.49899 11.0605 2.97047 9.92226 3.80969 9.08304C4.64891 8.24382 5.78716 7.77234 6.97399 7.77234H7.45469Z" fill="#081021"/>
<path fill-rule="evenodd" clip-rule="evenodd" d="M11.3454 9.80834C11.5407 9.61306 11.8572 9.61304 12.0525 9.80828L13.4628 11.2183C13.658 11.4135 13.6581 11.7301 13.4628 11.9254C13.2676 12.1207 12.951 12.1207 12.7557 11.9254L11.3455 10.5154C11.1502 10.3202 11.1502 10.0036 11.3454 9.80834Z" fill="#081021"/>
<path fill-rule="evenodd" clip-rule="evenodd" d="M13.4628 9.80834C13.6581 10.0036 13.658 10.3202 13.4628 10.5154L12.0525 11.9254C11.8572 12.1207 11.5407 12.1207 11.3454 11.9254C11.1502 11.7301 11.1502 11.4135 11.3455 11.2183L12.7557 9.80828C12.951 9.61304 13.2676 9.61306 13.4628 9.80834Z" fill="#081021"/>
</g>
</svg>
