<svg width="16" height="16" viewBox="0 0 16 16" fill="none" xmlns="http://www.w3.org/2000/svg">
<mask id="mask0_14_1349" style="mask-type:luminance" maskUnits="userSpaceOnUse" x="2" y="2" width="12" height="12">
<path d="M13.6093 2.25H2.5V13.6272H13.6093V2.25Z" fill="white"/>
</mask>
<g mask="url(#mask0_14_1349)">
<path fill-rule="evenodd" clip-rule="evenodd" d="M4.1205 5.34475C4.1205 3.63556 5.50606 2.25 7.21525 2.25C8.92444 2.25 10.31 3.63556 10.31 5.34475C10.31 7.05394 8.92444 8.4395 7.21525 8.4395C5.50606 8.4395 4.1205 7.05394 4.1205 5.34475ZM7.21525 3.25C6.05834 3.25 5.1205 4.18784 5.1205 5.34475C5.1205 6.50166 6.05834 7.4395 7.21525 7.4395C8.37216 7.4395 9.31 6.50166 9.31 5.34475C9.31 4.18784 8.37216 3.25 7.21525 3.25Z" fill="#081021"/>
<path fill-rule="evenodd" clip-rule="evenodd" d="M7.45469 7.43897C8.63312 7.43746 9.76429 7.90237 10.6011 8.73219C10.7971 8.92664 10.7985 9.24322 10.604 9.43929C10.4096 9.63537 10.093 9.63669 9.89692 9.44224C9.24769 8.79841 8.37001 8.43772 7.45567 8.43897L6.97399 8.43897C6.05238 8.43897 5.16848 8.80509 4.5168 9.45677C3.86511 10.1085 3.49899 10.9924 3.49899 11.914V12.6265H11.0387C11.1303 12.5122 11.2711 12.439 11.429 12.439C11.7051 12.439 11.929 12.6628 11.929 12.939V13.1265C11.929 13.4026 11.7051 13.6265 11.429 13.6265H2.99899C2.72285 13.6265 2.49899 13.4026 2.49899 13.1265V11.914C2.49899 10.7271 2.97047 9.58888 3.80969 8.74966C4.64891 7.91045 5.78716 7.43897 6.97399 7.43897H7.45469Z" fill="#081021"/>
<path fill-rule="evenodd" clip-rule="evenodd" d="M11.3454 9.47497C11.5407 9.27969 11.8572 9.27966 12.0525 9.47491L13.4628 10.8849C13.658 11.0802 13.6581 11.3967 13.4628 11.592C13.2676 11.7873 12.951 11.7873 12.7557 11.5921L11.3455 10.1821C11.1502 9.98683 11.1502 9.67025 11.3454 9.47497Z" fill="#081021"/>
<path fill-rule="evenodd" clip-rule="evenodd" d="M13.4628 9.47497C13.6581 9.67025 13.658 9.98683 13.4628 10.1821L12.0525 11.5921C11.8572 11.7873 11.5407 11.7873 11.3454 11.592C11.1502 11.3967 11.1502 11.0802 11.3455 10.8849L12.7557 9.47491C12.951 9.27966 13.2676 9.27969 13.4628 9.47497Z" fill="#081021"/>
</g>
</svg>
