<svg width="16" height="17" viewBox="0 0 16 17" fill="none" xmlns="http://www.w3.org/2000/svg">
<path d="M8.369 11.6707C8.27427 11.7743 8.1404 11.8333 8 11.8333C7.8596 11.8333 7.72573 11.7743 7.631 11.6707L4.96432 8.75403C4.77799 8.55023 4.79215 8.23396 4.99595 8.04763C5.19975 7.86129 5.51601 7.87543 5.70235 8.07923L7.5 10.0454V2.66663C7.5 2.39049 7.72386 2.16663 8 2.16663C8.27613 2.16663 8.5 2.39049 8.5 2.66663V10.0454L10.2977 8.07923C10.484 7.87543 10.8003 7.86129 11.0041 8.04763C11.2079 8.23396 11.222 8.55023 11.0357 8.75403L8.369 11.6707Z" fill="#081021"/>
<path d="M2.5 10.6666C2.5 10.3905 2.27615 10.1666 2 10.1666C1.72386 10.1666 1.5 10.3905 1.5 10.6666V10.7032C1.49999 11.615 1.49997 12.3498 1.57768 12.9278C1.65836 13.5279 1.83095 14.0331 2.23223 14.4344C2.63351 14.8357 3.13876 15.0083 3.73883 15.089C4.31681 15.1666 5.05169 15.1666 5.96342 15.1666H10.0366C10.9483 15.1666 11.6832 15.1666 12.2612 15.089C12.8613 15.0083 13.3665 14.8357 13.7678 14.4344C14.1691 14.0331 14.3417 13.5279 14.4223 12.9278C14.5 12.3498 14.5 11.615 14.5 10.7032V10.6666C14.5 10.3905 14.2761 10.1666 14 10.1666C13.7239 10.1666 13.5 10.3905 13.5 10.6666C13.5 11.6236 13.4989 12.291 13.4313 12.7946C13.3655 13.2838 13.2452 13.5428 13.0607 13.7273C12.8761 13.9118 12.6171 14.0321 12.1279 14.0979C11.6243 14.1656 10.9569 14.1666 10 14.1666H6C5.04306 14.1666 4.37565 14.1656 3.87208 14.0979C3.3829 14.0321 3.12385 13.9118 2.93934 13.7273C2.75483 13.5428 2.63453 13.2838 2.56877 12.7946C2.50106 12.291 2.5 11.6236 2.5 10.6666Z" fill="#081021"/>
</svg>
