<svg width="16" height="16" viewBox="0 0 16 16" fill="none" xmlns="http://www.w3.org/2000/svg">
<g clip-path="url(#clip0_14_1296)">
<path fill-rule="evenodd" clip-rule="evenodd" d="M2.06312 2.06315C2.95276 1.17351 4.28402 0.833374 6 0.833374H7.33334C7.60948 0.833374 7.83334 1.05723 7.83334 1.33337C7.83334 1.60952 7.60948 1.83337 7.33334 1.83337H6C4.38265 1.83337 3.38058 2.15991 2.77022 2.77026C2.15987 3.38061 1.83334 4.38269 1.83334 6.00004V10C1.83334 11.6174 2.15987 12.6195 2.77022 13.2298C3.38058 13.8402 4.38265 14.1667 6 14.1667H10C11.6174 14.1667 12.6194 13.8402 13.2298 13.2298C13.8401 12.6195 14.1667 11.6174 14.1667 10V8.66671C14.1667 8.39056 14.3905 8.16671 14.6667 8.16671C14.9428 8.16671 15.1667 8.39056 15.1667 8.66671V10C15.1667 11.716 14.8265 13.0473 13.9369 13.9369C13.0472 14.8266 11.716 15.1667 10 15.1667H6C4.28402 15.1667 2.95276 14.8266 2.06312 13.9369C1.17347 13.0473 0.833336 11.716 0.833336 10V6.00004C0.833336 4.28406 1.17347 2.9528 2.06312 2.06315Z" fill="#081021"/>
<path fill-rule="evenodd" clip-rule="evenodd" d="M12.1312 0.675749C12.8734 0.602892 13.6093 0.92885 14.3402 1.6598C15.0712 2.39076 15.3971 3.12664 15.3243 3.86887C15.254 4.58488 14.8222 5.17829 14.3402 5.66024L9.08689 10.9136C9.08575 10.9147 9.08461 10.9158 9.08346 10.917C9.08266 10.9178 9.08185 10.9185 9.08105 10.9193C8.93092 11.0646 8.73472 11.1916 8.54538 11.2868C8.35714 11.3814 8.13542 11.4648 7.92405 11.495L5.91738 11.7817C5.91653 11.7818 5.91568 11.7819 5.91483 11.782C5.42011 11.8501 4.94676 11.715 4.61467 11.3843C4.28186 11.0528 4.14573 10.5793 4.21849 10.0817C4.21854 10.0814 4.21859 10.0811 4.21864 10.0807L4.5048 8.07759C4.50484 8.07729 4.50488 8.07699 4.50493 8.07669C4.53495 7.86253 4.61797 7.63923 4.71326 7.44964C4.80875 7.25965 4.93733 7.06225 5.08645 6.91313L5.44 7.26668L5.08645 6.91313L10.3398 1.6598C10.8217 1.17785 11.4152 0.746032 12.1312 0.675749ZM12.2288 1.67097C11.8582 1.70735 11.4716 1.9422 11.0469 2.36691L10.7006 2.02057L11.0469 2.36691L5.79356 7.62024C5.74268 7.67111 5.67125 7.77039 5.60675 7.89873C5.54217 8.0272 5.50528 8.14355 5.49521 8.21578L5.49498 8.2174L5.20831 10.2241L5.20804 10.226C5.17446 10.4547 5.2417 10.5974 5.32034 10.6757C5.39978 10.7549 5.54608 10.823 5.77737 10.7915C5.77775 10.7915 5.77813 10.7914 5.77851 10.7914L7.78263 10.505C7.85125 10.4952 7.9662 10.4587 8.09629 10.3933C8.22346 10.3294 8.32615 10.2575 8.3832 10.2031L13.6331 4.95314C14.0578 4.52842 14.2927 4.14184 14.3291 3.77118C14.3629 3.42675 14.2355 2.96929 13.6331 2.36691C13.0307 1.76453 12.5733 1.63716 12.2288 1.67097Z" fill="#081021"/>
<path fill-rule="evenodd" clip-rule="evenodd" d="M9.80504 2.28517C10.0709 2.21063 10.3469 2.36575 10.4214 2.63164C10.8208 4.05639 11.9361 5.17269 13.3696 5.57888C13.6353 5.65415 13.7897 5.93056 13.7144 6.19624C13.6391 6.46193 13.3627 6.61628 13.097 6.541C11.3306 6.04052 9.95249 4.66349 9.45856 2.90157C9.38402 2.63568 9.53914 2.35971 9.80504 2.28517Z" fill="#081021"/>
</g>
<defs>
<clipPath id="clip0_14_1296">
<rect width="16" height="16" fill="white"/>
</clipPath>
</defs>
</svg>
