<svg width="16" height="16" viewBox="0 0 16 16" fill="none" xmlns="http://www.w3.org/2000/svg">
<path d="M14.9639 4.06601C14.9008 3.74779 14.7598 3.45658 14.563 3.21601C14.5215 3.1636 14.4781 3.11666 14.4311 3.06971C14.0823 2.71886 13.5928 2.5 13.058 2.5H2.94198C2.40722 2.5 1.91946 2.71886 1.56905 3.06971C1.52216 3.11666 1.47879 3.1636 1.43717 3.21601C1.24022 3.45656 1.09926 3.74779 1.0379 4.06601C1.01269 4.18883 1 4.31575 1 4.44407V11.5561C1 11.829 1.0578 12.0912 1.16089 12.3281C1.25651 12.5542 1.3975 12.7587 1.56902 12.9303C1.6125 12.9737 1.65568 13.0136 1.70279 13.0533C2.03874 13.3318 2.47238 13.5 2.94198 13.5H13.058C13.5278 13.5 13.9633 13.3318 14.2973 13.0515C14.3443 13.0136 14.3877 12.9737 14.4311 12.9303C14.6025 12.7587 14.7435 12.5542 14.8411 12.3281V12.3263C14.9441 12.0895 15 11.829 15 11.5561V4.44407C15 4.31575 14.9875 4.18883 14.9639 4.06601ZM2.27173 3.77303C2.44523 3.59955 2.67823 3.49452 2.94198 3.49452H13.058C13.3218 3.49452 13.5568 3.59955 13.7283 3.77303C13.759 3.80393 13.7879 3.83836 13.8134 3.87258L8.51123 8.49825C8.365 8.62654 8.18437 8.6899 8.00001 8.6899C7.81752 8.6899 7.637 8.62654 7.48882 8.49825L2.18869 3.87061C2.21215 3.83639 2.24105 3.80393 2.27173 3.77303ZM1.99351 11.5561V4.89975L5.8305 8.25045L1.99545 11.5976C1.99351 11.5849 1.99351 11.5706 1.99351 11.5561ZM13.058 12.5053H2.94198C2.77024 12.5053 2.60954 12.4601 2.47238 12.3807L6.51866 8.85087L6.89642 9.17983C7.21254 9.4548 7.60812 9.59407 8.00001 9.59407C8.39393 9.59407 8.78948 9.4548 9.10558 9.17983L9.48314 8.85087L13.5278 12.3807C13.3905 12.4601 13.2298 12.5053 13.058 12.5053ZM14.0065 11.5561C14.0065 11.5706 14.0065 11.5849 14.0047 11.5976L10.1696 8.25239L14.0065 4.90153V11.5561Z" fill="#081021"/>
</svg>
