<svg width="16" height="16" viewBox="0 0 16 16" fill="none" xmlns="http://www.w3.org/2000/svg">
<g clip-path="url(#clip0_14_1347)">
<path d="M7.57235 3.92942C8.02538 3.85942 8.48961 3.9129 8.91424 4.08449C9.33898 4.2561 9.7087 4.53974 9.98132 4.90581C10.2541 5.27201 10.4187 5.70609 10.4553 6.16021C10.492 6.61433 10.399 7.0689 10.1878 7.47324C9.9767 7.87747 9.65612 8.21495 9.26327 8.44981C9.1591 8.51204 9.0459 8.57044 8.95475 8.61747C8.92858 8.63101 8.90424 8.64358 8.88241 8.65501C8.77087 8.71364 8.69841 8.7565 8.64475 8.79867C8.5963 8.83667 8.57544 8.86495 8.56344 8.8885C8.5519 8.9113 8.53321 8.95998 8.53321 9.06055V9.77684C8.53321 9.96621 8.37967 10.1197 8.19035 10.1197H7.73321C7.54384 10.1197 7.39035 9.96621 7.39035 9.77684V9.06055C7.39035 8.8081 7.43967 8.5773 7.54458 8.37078C7.64915 8.16495 7.79332 8.0141 7.93898 7.89976C8.07932 7.78953 8.2299 7.70684 8.35092 7.6433C8.38824 7.6237 8.42241 7.60604 8.4543 7.58958C8.5375 7.54661 8.60607 7.51113 8.67681 7.46884C8.89098 7.34084 9.06275 7.15873 9.17481 6.94415C9.28681 6.7297 9.33538 6.49033 9.31618 6.2521C9.29692 6.01381 9.21047 5.7841 9.06475 5.58845C8.91892 5.39266 8.7191 5.23826 8.48607 5.1441C8.25298 5.04991 7.99698 5.02023 7.74687 5.05887C7.49675 5.09752 7.26395 5.20269 7.07378 5.36111C6.97407 5.44418 6.88824 5.54011 6.81812 5.64548C6.71327 5.80313 6.52235 5.9041 6.3427 5.84427L5.90898 5.6998C5.72932 5.63996 5.63012 5.44433 5.71464 5.27488C5.86584 4.97181 6.07938 4.7021 6.34224 4.48308C6.69344 4.19047 7.11927 3.99942 7.57235 3.92942Z" fill="#081021"/>
<path d="M7.49207 11.3579C7.49207 11.2001 7.62001 11.0721 7.77778 11.0721H8.14784C8.30561 11.0721 8.43355 11.2001 8.43355 11.3579V11.7279C8.43355 11.8857 8.30561 12.0136 8.14784 12.0136H7.77778C7.62001 12.0136 7.49207 11.8857 7.49207 11.7279V11.3579Z" fill="#081021"/>
<path fill-rule="evenodd" clip-rule="evenodd" d="M8.00001 0.571411C3.89733 0.571411 0.571442 3.8973 0.571442 7.99998C0.571442 12.1027 3.89733 15.4286 8.00001 15.4286C12.1027 15.4286 15.4286 12.1027 15.4286 7.99998C15.4286 3.8973 12.1027 0.571411 8.00001 0.571411ZM1.7143 7.99998C1.7143 4.52848 4.52851 1.71427 8.00001 1.71427C11.4715 1.71427 14.2857 4.52848 14.2857 7.99998C14.2857 11.4715 11.4715 14.2857 8.00001 14.2857C4.52851 14.2857 1.7143 11.4715 1.7143 7.99998Z" fill="#081021"/>
</g>
<defs>
<clipPath id="clip0_14_1347">
<rect width="16" height="16" fill="white"/>
</clipPath>
</defs>
</svg>
