<svg width="20" height="21" viewBox="0 0 20 21" fill="none" xmlns="http://www.w3.org/2000/svg">
<path d="M5.07812 17.4007C5.43596 17.4007 5.74986 17.2501 6.18303 16.8734L8.19824 15.0779C8.66281 15.5613 9.35965 15.8187 10.2323 15.8187H12.3793L14.4699 17.6142C14.8842 17.9657 15.1793 18.1603 15.5183 18.1603C16.0205 18.1603 16.3156 17.8025 16.3156 17.2563V15.8187H16.6044C18.1864 15.8187 19.2411 14.8519 19.2411 13.2259V9.39012C19.2411 7.73903 18.1675 6.74712 16.5541 6.74712H15.4618V6.33906C15.4618 4.63147 14.4134 3.62073 12.6932 3.62073H3.52748C1.85756 3.62073 0.758926 4.63147 0.758926 6.33906V12.2152C0.758926 13.8977 1.83873 14.8958 3.47726 14.8958H4.26827V16.503C4.26827 17.0554 4.56961 17.4007 5.07812 17.4007ZM5.39202 14.2806C5.39202 13.9039 5.15974 13.7093 4.84584 13.7093H3.67815C2.63602 13.7093 2.00823 13.1255 2.00823 12.0394V6.47717C2.00823 5.3911 2.6423 4.80097 3.67815 4.80097H12.5363C13.5784 4.80097 14.2062 5.3911 14.2062 6.47717V6.74712H10.2323C8.56236 6.74712 7.54534 7.73903 7.54534 9.39012V13.2259C7.54534 13.4896 7.57045 13.7281 7.62067 13.9542L5.39202 16.0384V14.2806ZM15.1981 16.798L13.2331 15.0151C12.9569 14.764 12.7246 14.651 12.3542 14.651H10.3641C9.37849 14.651 8.78209 14.1048 8.78209 13.0627V9.5094C8.78209 8.47982 9.37849 7.92109 10.3641 7.92109H16.416C17.4079 7.92109 18.0043 8.47982 18.0043 9.5094V13.0627C18.0043 14.0985 17.4016 14.651 16.416 14.651H15.738C15.4304 14.651 15.1981 14.8393 15.1981 15.216V16.798Z" fill="#081021"/>
</svg>
