<svg width="16" height="18" viewBox="0 0 16 18" fill="none" xmlns="http://www.w3.org/2000/svg">
<path fill-rule="evenodd" clip-rule="evenodd" d="M0.833374 12.8958C0.833374 12.6024 1.05723 12.3645 1.33337 12.3645H4.66671C4.94285 12.3645 5.16671 12.6024 5.16671 12.8958C5.16671 13.1892 4.94285 13.427 4.66671 13.427H1.33337C1.05723 13.427 0.833374 13.1892 0.833374 12.8958Z" fill="#081021"/>
<path fill-rule="evenodd" clip-rule="evenodd" d="M10.8334 5.10411C10.8334 4.81071 11.0572 4.57286 11.3334 4.57286H14.6667C14.9428 4.57286 15.1667 4.81071 15.1667 5.10411C15.1667 5.39751 14.9428 5.63536 14.6667 5.63536H11.3334C11.0572 5.63536 10.8334 5.39751 10.8334 5.10411Z" fill="#081021"/>
<path fill-rule="evenodd" clip-rule="evenodd" d="M8.16671 12.8958C8.16671 12.6024 8.39056 12.3645 8.66671 12.3645H14.6667C14.9428 12.3645 15.1667 12.6024 15.1667 12.8958C15.1667 13.1892 14.9428 13.427 14.6667 13.427H8.66671C8.39056 13.427 8.16671 13.1892 8.16671 12.8958Z" fill="#081021"/>
<path fill-rule="evenodd" clip-rule="evenodd" d="M0.833374 5.10411C0.833374 4.81071 1.05723 4.57286 1.33337 4.57286H7.33337C7.60952 4.57286 7.83337 4.81071 7.83337 5.10411C7.83337 5.39751 7.60952 5.63536 7.33337 5.63536H1.33337C1.05723 5.63536 0.833374 5.39751 0.833374 5.10411Z" fill="#081021"/>
<path fill-rule="evenodd" clip-rule="evenodd" d="M6.66671 11.2311C5.83828 11.2311 5.16671 11.9446 5.16671 12.8249C5.16671 13.7051 5.83828 14.4186 6.66671 14.4186C7.49516 14.4186 8.16671 13.7051 8.16671 12.8249C8.16671 11.9446 7.49516 11.2311 6.66671 11.2311ZM4.16671 12.8249C4.16671 11.3578 5.286 10.1686 6.66671 10.1686C8.04745 10.1686 9.16671 11.3578 9.16671 12.8249C9.16671 14.2919 8.04745 15.4811 6.66671 15.4811C5.286 15.4811 4.16671 14.2919 4.16671 12.8249Z" fill="#081021"/>
<path fill-rule="evenodd" clip-rule="evenodd" d="M6.83337 5.0332C6.83337 3.56621 7.95263 2.37695 9.33337 2.37695C10.7141 2.37695 11.8334 3.56621 11.8334 5.0332C11.8334 6.50021 10.7141 7.68945 9.33337 7.68945C7.95263 7.68945 6.83337 6.50021 6.83337 5.0332ZM9.33337 3.43945C8.50492 3.43945 7.83337 4.153 7.83337 5.0332C7.83337 5.91342 8.50492 6.62695 9.33337 6.62695C10.1618 6.62695 10.8334 5.91342 10.8334 5.0332C10.8334 4.153 10.1618 3.43945 9.33337 3.43945Z" fill="#081021"/>
</svg>
