<svg width="16" height="17" viewBox="0 0 16 17" fill="none" xmlns="http://www.w3.org/2000/svg">
<g clip-path="url(#clip0_14_1384)">
<path fill-rule="evenodd" clip-rule="evenodd" d="M8 4C7.10554 4.00023 6.22999 4.25751 5.4776 4.74121C4.7252 5.22491 4.12767 5.91465 3.75614 6.7283C3.38462 7.54195 3.25475 8.44523 3.382 9.33059C3.50926 10.216 3.88827 11.0461 4.47392 11.7222C5.05957 12.3982 5.82718 12.8918 6.68535 13.144C7.54351 13.3962 8.45608 13.3965 9.3144 13.1448C10.1727 12.8931 10.9406 12.4 11.5267 11.7243C12.1127 11.0485 12.4922 10.2186 12.62 9.33333H8.66667C8.48986 9.33333 8.32029 9.26309 8.19526 9.13807C8.07024 9.01305 8 8.84348 8 8.66667C8 8.48985 8.07024 8.32028 8.19526 8.19526C8.32029 8.07024 8.48986 8 8.66667 8H13.3333C13.5101 8 13.6797 8.07024 13.8047 8.19526C13.9298 8.32028 14 8.48985 14 8.66667C14.0001 10.0541 13.5194 11.3987 12.6397 12.4716C11.76 13.5445 10.5357 14.2793 9.17512 14.551C7.81456 14.8228 6.40187 14.6146 5.17754 13.9619C3.9532 13.3093 2.99289 12.2525 2.46008 10.9714C1.92726 9.69038 1.85488 8.26427 2.25524 6.93586C2.6556 5.60745 3.50397 4.45885 4.65592 3.68557C5.80788 2.91229 7.19222 2.56213 8.57331 2.6947C9.95439 2.82727 11.2468 3.43437 12.2307 4.41266C12.3525 4.53805 12.4202 4.70627 12.4192 4.8811C12.4182 5.05593 12.3486 5.22337 12.2253 5.34734C12.102 5.47131 11.935 5.5419 11.7602 5.54389C11.5853 5.54589 11.4167 5.47913 11.2907 5.358C10.8582 4.92661 10.3451 4.58464 9.78043 4.35163C9.21581 4.11862 8.61081 3.99913 8 4Z" fill="#081021"/>
</g>
<defs>
<clipPath id="clip0_14_1384">
<rect width="16" height="16" fill="white" transform="translate(0 0.666626)"/>
</clipPath>
</defs>
</svg>
