<svg width="16" height="16" viewBox="0 0 16 16" fill="none" xmlns="http://www.w3.org/2000/svg">
    <path d="M8 3.21894L7.59784 3.60799C7.70307 3.71788 7.84826 3.77996 8 3.77996C8.15174 3.77996 8.29693 3.71788 8.40216 3.60799L8 3.21894ZM6.0845 12.8097C4.95657 11.9159 3.72321 11.0431 2.74477 9.93566C1.78547 8.84982 1.11628 7.58287 1.11628 5.93914H0C0 7.93303 0.826419 9.45415 1.91012 10.6807C2.97468 11.8856 4.33174 12.8496 5.39343 13.6909L6.0845 12.8097ZM1.11628 5.93914C1.11628 4.33022 2.02074 2.98098 3.25534 2.41373C4.45475 1.86264 6.06635 2.00858 7.59784 3.60799L8.40216 2.82989C6.58493 0.932117 4.4756 0.619342 2.79126 1.39323C1.14211 2.15096 0 3.91042 0 5.93914H1.11628ZM5.39343 13.6909C5.77462 13.9929 6.18384 14.315 6.59855 14.5586C7.01313 14.8021 7.48621 15 8 15V13.8779C7.7696 13.8779 7.49849 13.7877 7.16175 13.5898C6.82515 13.3921 6.47597 13.1199 6.0845 12.8097L5.39343 13.6909ZM10.6066 13.6909C11.6682 12.8496 13.0253 11.8856 14.0899 10.6807C15.1736 9.45415 16 7.93303 16 5.93914H14.8837C14.8837 7.58287 14.2145 8.84982 13.2552 9.93566C12.2768 11.0431 11.0434 11.9159 9.91553 12.8097L10.6066 13.6909ZM16 5.93914C16 3.91042 14.8579 2.15096 13.2087 1.39323C11.5244 0.619342 9.41507 0.932117 7.59784 2.82989L8.40216 3.60799C9.93362 2.00858 11.5452 1.86264 12.7446 2.41373C13.9792 2.98098 14.8837 4.33022 14.8837 5.93914H16ZM9.91553 12.8097C9.52402 13.1199 9.17485 13.3921 8.83825 13.5898C8.50151 13.7877 8.2304 13.8779 8 13.8779V15C8.51379 15 8.98687 14.8021 9.40145 14.5586C9.81619 14.315 10.2253 13.9929 10.6066 13.6909L9.91553 12.8097Z"
          fill="#081021"/>
</svg>
