<svg width="16" height="16" viewBox="0 0 16 16" fill="none" xmlns="http://www.w3.org/2000/svg">
<path fill-rule="evenodd" clip-rule="evenodd" d="M8 4.83337C8.27614 4.83337 8.5 5.05723 8.5 5.33337V7.79293L10.0202 9.31315C10.2155 9.50842 10.2155 9.825 10.0202 10.0203C9.82496 10.2155 9.50838 10.2155 9.31311 10.0203L7.64645 8.35359C7.55268 8.25983 7.5 8.13265 7.5 8.00004V5.33337C7.5 5.05723 7.72386 4.83337 8 4.83337Z" fill="#081021"/>
<path d="M2.89183 4.58035L2.39184 4.58286C2.39322 4.85704 2.61514 5.07896 2.88932 5.08034L2.89183 4.58035ZM4.58635 5.08887C4.86249 5.09026 5.08747 4.86753 5.08886 4.59139C5.09025 4.31525 4.86752 4.09027 4.59138 4.08888L4.58635 5.08887ZM3.3833 2.8808C3.38191 2.60466 3.15693 2.38194 2.88079 2.38332C2.60465 2.38471 2.38193 2.60969 2.38331 2.88583L3.3833 2.8808ZM2.55107 7.18994C2.58857 6.91634 2.39718 6.66418 2.12359 6.62668C1.85001 6.58918 1.59783 6.78054 1.56033 7.05414L2.55107 7.18994ZM12.5748 3.42518C10.028 0.878391 5.91248 0.852597 3.38253 3.38254L4.08964 4.08965C6.22238 1.95691 9.70473 1.9693 11.8677 4.13229L12.5748 3.42518ZM3.42517 12.5748C5.97197 15.1216 10.0875 15.1474 12.6175 12.6175L11.9103 11.9103C9.77759 14.0431 6.29527 14.0307 4.13228 11.8677L3.42517 12.5748ZM12.6175 12.6175C15.1474 10.0875 15.1216 5.97198 12.5748 3.42518L11.8677 4.13229C14.0307 6.29528 14.0431 9.7776 11.9103 11.9103L12.6175 12.6175ZM3.38253 3.38254L2.53828 4.2268L3.24539 4.9339L4.08964 4.08965L3.38253 3.38254ZM2.88932 5.08034L4.58635 5.08887L4.59138 4.08888L2.89435 4.08036L2.88932 5.08034ZM3.39183 4.57784L3.3833 2.8808L2.38331 2.88583L2.39184 4.58286L3.39183 4.57784ZM1.56033 7.05414C1.29271 9.0066 1.91594 11.0656 3.42517 12.5748L4.13228 11.8677C2.85189 10.5873 2.32441 8.84347 2.55107 7.18994L1.56033 7.05414Z" fill="#081021"/>
</svg>
