<svg width="20" height="20" viewBox="0 0 20 20" fill="none" xmlns="http://www.w3.org/2000/svg">
<path fill-rule="evenodd" clip-rule="evenodd" d="M9.45607 1.20275C9.75647 0.932418 10.2435 0.932418 10.5439 1.20275L19.7747 9.50934C20.0751 9.77966 20.0751 10.218 19.7747 10.4883C19.4743 10.7586 18.9872 10.7586 18.6868 10.4883L10 2.67116L1.31316 10.4883C1.01276 10.7586 0.525706 10.7586 0.225302 10.4883C-0.0751008 10.218 -0.0751008 9.77966 0.225302 9.50934L9.45607 1.20275Z" fill="#081021"/>
<path fill-rule="evenodd" clip-rule="evenodd" d="M2.82051 7.46068C3.24535 7.46068 3.58974 7.7706 3.58974 8.1529V17.6068C3.59088 17.6084 3.59231 17.6099 3.594 17.6112C3.59814 17.6144 3.6035 17.6159 3.6089 17.6155C3.62982 17.614 3.6508 17.6132 3.67179 17.6132H6.87179V11.937C6.87179 11.5547 7.21619 11.2448 7.64103 11.2448H12.359C12.7838 11.2448 13.1282 11.5547 13.1282 11.937V17.6132H16.3282C16.3492 17.6132 16.3702 17.614 16.3911 17.6155C16.3965 17.6159 16.4019 17.6144 16.406 17.6112C16.4077 17.6099 16.4091 17.6084 16.4103 17.6068V8.1529C16.4103 7.7706 16.7547 7.46068 17.1795 7.46068C17.6043 7.46068 17.9487 7.7706 17.9487 8.1529V17.6593C17.9487 17.6796 17.9477 17.6998 17.9458 17.7199C17.9097 18.0892 17.7127 18.4306 17.3979 18.6695C17.0924 18.9014 16.7 19.0185 16.302 18.9976H12.359C11.9341 18.9976 11.5897 18.6877 11.5897 18.3054V12.6292H8.41026V18.3054C8.41026 18.6877 8.06586 18.9976 7.64103 18.9976H3.69799C3.29998 19.0185 2.90763 18.9014 2.60215 18.6695C2.28728 18.4306 2.0903 18.0892 2.05424 17.7199C2.05227 17.6998 2.05128 17.6796 2.05128 17.6593V8.1529C2.05128 7.7706 2.39568 7.46068 2.82051 7.46068Z" fill="#081021"/>
</svg>
