<svg width="16" height="16" viewBox="0 0 16 16" fill="none" xmlns="http://www.w3.org/2000/svg">
<g clip-path="url(#clip0_14_1348)">
<path fill-rule="evenodd" clip-rule="evenodd" d="M4.17334 5.97327C4.17334 5.69712 4.3972 5.47327 4.67334 5.47327H11.3267C11.6028 5.47327 11.8267 5.69712 11.8267 5.97327C11.8267 6.24941 11.6028 6.47327 11.3267 6.47327H4.67334C4.3972 6.47327 4.17334 6.24941 4.17334 5.97327Z" fill="#081021"/>
<path fill-rule="evenodd" clip-rule="evenodd" d="M8 4.35339C8.27614 4.35339 8.5 4.57725 8.5 4.85339V5.97339C8.5 6.24953 8.27614 6.47339 8 6.47339C7.72386 6.47339 7.5 6.24953 7.5 5.97339V4.85339C7.5 4.57725 7.72386 4.35339 8 4.35339Z" fill="#081021"/>
<path fill-rule="evenodd" clip-rule="evenodd" d="M9.66667 5.45996C9.94281 5.45996 10.1667 5.68382 10.1667 5.95996C10.1667 9.08554 7.7197 11.6466 4.66667 11.6466C4.39053 11.6466 4.16667 11.4227 4.16667 11.1466C4.16667 10.8705 4.39053 10.6466 4.66667 10.6466C7.13364 10.6466 9.16667 8.56766 9.16667 5.95996C9.16667 5.68382 9.39053 5.45996 9.66667 5.45996Z" fill="#081021"/>
<path fill-rule="evenodd" clip-rule="evenodd" d="M7.99706 9.10225C8.21674 8.93494 8.53047 8.9774 8.69778 9.19708C9.39295 10.1099 10.3239 10.6467 11.3333 10.6467C11.6094 10.6467 11.8333 10.8706 11.8333 11.1467C11.8333 11.4228 11.6094 11.6467 11.3333 11.6467C9.94268 11.6467 8.74038 10.9035 7.90222 9.80297C7.73491 9.58328 7.77737 9.26956 7.99706 9.10225Z" fill="#081021"/>
<path fill-rule="evenodd" clip-rule="evenodd" d="M0.833328 8.00004C0.833328 4.042 4.04195 0.833374 7.99999 0.833374C11.958 0.833374 15.1667 4.042 15.1667 8.00004C15.1667 11.958 11.958 15.1667 7.99999 15.1667C4.04195 15.1667 0.833328 11.958 0.833328 8.00004ZM7.99999 1.83337C4.59424 1.83337 1.83333 4.59428 1.83333 8.00004C1.83333 11.4058 4.59424 14.1667 7.99999 14.1667C11.4057 14.1667 14.1667 11.4058 14.1667 8.00004C14.1667 4.59428 11.4057 1.83337 7.99999 1.83337Z" fill="#081021"/>
</g>
<defs>
<clipPath id="clip0_14_1348">
<rect width="16" height="16" fill="white"/>
</clipPath>
</defs>
</svg>
