<svg width="16" height="17" viewBox="0 0 16 17" fill="none" xmlns="http://www.w3.org/2000/svg">
<path fill-rule="evenodd" clip-rule="evenodd" d="M4.17334 6.30664C4.17334 6.0305 4.3972 5.80664 4.67334 5.80664H11.3267C11.6028 5.80664 11.8267 6.0305 11.8267 6.30664C11.8267 6.58278 11.6028 6.80664 11.3267 6.80664H4.67334C4.3972 6.80664 4.17334 6.58278 4.17334 6.30664Z" fill="#081021"/>
<path fill-rule="evenodd" clip-rule="evenodd" d="M8 4.68677C8.27614 4.68677 8.5 4.91063 8.5 5.18677V6.30676C8.5 6.5829 8.27614 6.80676 8 6.80676C7.72386 6.80676 7.5 6.5829 7.5 6.30676V5.18677C7.5 4.91063 7.72386 4.68677 8 4.68677Z" fill="#081021"/>
<path fill-rule="evenodd" clip-rule="evenodd" d="M9.66667 5.79333C9.94281 5.79333 10.1667 6.01719 10.1667 6.29333C10.1667 9.41892 7.7197 11.98 4.66667 11.98C4.39053 11.98 4.16667 11.7561 4.16667 11.48C4.16667 11.2038 4.39053 10.98 4.66667 10.98C7.13364 10.98 9.16667 8.90103 9.16667 6.29333C9.16667 6.01719 9.39053 5.79333 9.66667 5.79333Z" fill="#081021"/>
<path fill-rule="evenodd" clip-rule="evenodd" d="M7.99706 9.43562C8.21674 9.26831 8.53047 9.31077 8.69778 9.53046C9.39295 10.4433 10.3239 10.9801 11.3333 10.9801C11.6094 10.9801 11.8333 11.2039 11.8333 11.4801C11.8333 11.7562 11.6094 11.9801 11.3333 11.9801C9.94268 11.9801 8.74038 11.2369 7.90222 10.1363C7.73491 9.91666 7.77737 9.60293 7.99706 9.43562Z" fill="#081021"/>
<path fill-rule="evenodd" clip-rule="evenodd" d="M0.833328 8.33341C0.833328 4.37537 4.04195 1.16675 7.99999 1.16675C11.958 1.16675 15.1667 4.37537 15.1667 8.33341C15.1667 12.2914 11.958 15.5001 7.99999 15.5001C4.04195 15.5001 0.833328 12.2914 0.833328 8.33341ZM7.99999 2.16675C4.59424 2.16675 1.83333 4.92766 1.83333 8.33341C1.83333 11.7391 4.59424 14.5001 7.99999 14.5001C11.4057 14.5001 14.1667 11.7391 14.1667 8.33341C14.1667 4.92766 11.4057 2.16675 7.99999 2.16675Z" fill="#081021"/>
</svg>
