<svg width="23" height="22" viewBox="0 0 23 22" fill="none" xmlns="http://www.w3.org/2000/svg">
<path d="M1.2601 20L0.0890321 19.5066C0.00535655 19.7296 -0.0199675 19.9723 0.0157291 20.2092C0.0514258 20.446 0.146821 20.6684 0.291859 20.8526C0.436896 21.0369 0.626203 21.1764 0.839825 21.2563C1.05345 21.3362 1.28347 21.3536 1.50564 21.3066L1.2601 20ZM7.18594 18.752L7.7828 17.5773L7.38364 17.3506L6.94039 17.444L7.18594 18.752ZM3.30505 14.556L4.47612 15.0493L4.68137 14.4973L4.43457 13.9653L3.30505 14.556ZM20.1482 10.6666C20.1482 14.9946 16.5557 18.6666 11.9256 18.6666V21.3333C17.7696 21.3333 22.6667 16.648 22.6667 10.6666H20.1482ZM3.70422 10.6666C3.70422 6.33865 7.29801 2.66666 11.9269 2.66666V0C6.08287 0 1.18454 4.68532 1.18454 10.6666H3.70422ZM11.9269 2.66666C16.5557 2.66666 20.1482 6.33865 20.1482 10.6666H22.6667C22.6667 4.68532 17.7709 0 11.9269 0V2.66666ZM11.9256 18.6666C10.4083 18.6666 8.99542 18.2666 7.7828 17.5773L6.58907 19.9253C8.23088 20.8551 10.0637 21.3389 11.9256 21.3333V18.6666ZM1.50564 21.3066L7.43148 20.0586L6.94039 17.444L1.01455 18.692L1.50564 21.308V21.3066ZM4.43457 13.9653C3.95364 12.9402 3.7045 11.8112 3.70422 10.6666H1.18454C1.18454 12.2666 1.53964 13.784 2.17428 15.1466L4.43457 13.9653ZM2.13525 14.0626L0.0890321 19.508L2.42864 20.492L4.4736 15.048L2.13399 14.0626H2.13525Z" fill="#081021"/>
<path d="M7.55706 11.9999C8.2525 11.9999 8.81627 11.403 8.81627 10.6666C8.81627 9.9302 8.2525 9.33325 7.55706 9.33325C6.86162 9.33325 6.29785 9.9302 6.29785 10.6666C6.29785 11.403 6.86162 11.9999 7.55706 11.9999Z" fill="#081021"/>
<path d="M11.9628 11.9999C12.6583 11.9999 13.222 11.403 13.222 10.6666C13.222 9.9302 12.6583 9.33325 11.9628 9.33325C11.2674 9.33325 10.7036 9.9302 10.7036 10.6666C10.7036 11.403 11.2674 11.9999 11.9628 11.9999Z" fill="#081021"/>
<path d="M16.371 11.9999C17.0665 11.9999 17.6302 11.403 17.6302 10.6666C17.6302 9.9302 17.0665 9.33325 16.371 9.33325C15.6756 9.33325 15.1118 9.9302 15.1118 10.6666C15.1118 11.403 15.6756 11.9999 16.371 11.9999Z" fill="#081021"/>
</svg>
