<svg width="16" height="17" viewBox="0 0 16 17" fill="none" xmlns="http://www.w3.org/2000/svg">
<path d="M10 4.33337C10 3.2288 9.10457 2.33337 8 2.33337C6.89543 2.33337 6 3.2288 6 4.33337V7.66671C6 8.77128 6.89543 9.66671 8 9.66671C9.10457 9.66671 10 8.77128 10 7.66671V4.33337Z" stroke="#081021" stroke-width="1.2" stroke-linecap="round" stroke-linejoin="round"/>
<path d="M12.6667 7.66675C12.6667 8.27958 12.546 8.88642 12.3114 9.4526C12.0769 10.0188 11.7332 10.5332 11.2998 10.9666C10.8665 11.3999 10.352 11.7437 9.78586 11.9782C9.21967 12.2127 8.61284 12.3334 8 12.3334M8 12.3334C7.38717 12.3334 6.78033 12.2127 6.21415 11.9782C5.64796 11.7437 5.13351 11.3999 4.70017 10.9666C4.26683 10.5332 3.92309 10.0188 3.68856 9.4526C3.45404 8.88642 3.33334 8.27958 3.33334 7.66675M8 12.3334V14.3334" stroke="#081021" stroke-width="1.2" stroke-linecap="round" stroke-linejoin="round"/>
</svg>
