<svg width="16" height="17" viewBox="0 0 16 17" fill="none" xmlns="http://www.w3.org/2000/svg">
<path d="M11.8926 2.5255H10.4835C10.3501 2.5255 10.2419 2.63295 10.2419 2.7664C10.2419 2.89985 10.3501 3.00798 10.4835 3.00798H11.8926C12.3128 3.00798 12.6557 3.37 12.6557 3.81689V14.3752C12.6557 14.8214 12.3128 15.1841 11.8926 15.1841H4.24622C3.82534 15.1841 3.48316 14.8214 3.48316 14.3752V3.81689C3.48316 3.37 3.82534 3.00798 4.24622 3.00798H5.65533C5.78878 3.00798 5.89691 2.89985 5.89691 2.7664C5.89691 2.63295 5.78878 2.5255 5.65533 2.5255H4.24622C3.55844 2.5255 3 3.10379 3 3.81689V14.3752C3 15.0883 3.55844 15.6666 4.24622 15.6666H11.8926C12.5797 15.6666 13.1388 15.0883 13.1388 14.3752V3.81689C13.1388 3.10379 12.5797 2.5255 11.8926 2.5255ZM5.94276 11C5.80862 11 5.70049 11.1081 5.70049 11.2415C5.70049 11.375 5.80862 11.4831 5.94276 11.4831H8.06907C8.20252 11.4831 8.31065 11.375 8.31065 11.2415C8.31065 11.1081 8.20252 11 8.06907 11H5.94276ZM10.4383 9.5628C10.4383 9.42935 10.3302 9.3219 10.1968 9.3219H5.94276C5.80862 9.3219 5.70049 9.42935 5.70049 9.5628C5.70049 9.69625 5.80862 9.80438 5.94276 9.80438H10.1968C10.3302 9.80438 10.4383 9.69625 10.4383 9.5628ZM10.1968 7.5583H5.94276C5.80862 7.5583 5.70049 7.66643 5.70049 7.79988C5.70049 7.93333 5.80862 8.04146 5.94276 8.04146H10.1968C10.3302 8.04146 10.4383 7.93333 10.4383 7.79988C10.4383 7.66643 10.3302 7.5583 10.1968 7.5583ZM5.70049 6.0924C5.70049 6.22585 5.80862 6.33329 5.94276 6.33329H10.1968C10.3302 6.33329 10.4383 6.22585 10.4383 6.0924C10.4383 5.95895 10.3302 5.85082 10.1968 5.85082H5.94276C5.80862 5.85082 5.70049 5.95895 5.70049 6.0924ZM5.89691 3.83948C5.89691 3.70603 5.78878 3.5979 5.65533 3.5979H5.22828C4.71091 3.5979 4.29071 4.01878 4.29071 4.53616V13.2809C4.29071 13.7976 4.71091 14.2192 5.22828 14.2192H10.9105C11.4279 14.2192 11.8474 13.7976 11.8474 13.2809V4.53616C11.8474 4.01878 11.4279 3.5979 10.9105 3.5979H10.4835C10.3501 3.5979 10.2419 3.70603 10.2419 3.83948C10.2419 3.97293 10.3501 4.08106 10.4835 4.08106H10.9105C11.161 4.08106 11.365 4.285 11.365 4.53616V13.2809C11.365 13.5314 11.161 13.736 10.9105 13.736H5.22828C4.97781 13.736 4.77387 13.5314 4.77387 13.2809V4.53616C4.77387 4.285 4.97781 4.08106 5.22828 4.08106H5.65533C5.78878 4.08106 5.89691 3.97293 5.89691 3.83948ZM6.80642 2.97718H9.3324V4.14333H6.80642V2.97718ZM8.08002 2.14979C8.30791 2.14979 8.50227 2.2935 8.57961 2.4947H7.57975C7.6564 2.2935 7.85144 2.14979 8.08002 2.14979ZM6.56484 4.62512H9.57398C9.70744 4.62512 9.81556 4.51699 9.81556 4.38354V2.73628C9.81556 2.60283 9.70744 2.4947 9.57398 2.4947H9.07714C8.98749 2.02455 8.5755 1.66663 8.08002 1.66663C7.58454 1.66663 7.17256 2.02318 7.08222 2.4947H6.56484C6.43139 2.4947 6.32326 2.60283 6.32326 2.73628V4.38354C6.32326 4.51699 6.43139 4.62512 6.56484 4.62512Z" fill="black"/>
</svg>
