<svg width="16" height="17" viewBox="0 0 16 17" fill="none" xmlns="http://www.w3.org/2000/svg">
<path d="M4.96387 1.83337C4.48737 1.83337 4.0587 2.09878 3.8457 2.52478L3.69141 2.83337H3.5C2.9485 2.83337 2.5 3.28187 2.5 3.83337V5.83337H3V13.8334C3 14.3849 3.4485 14.8334 4 14.8334H12C12.5515 14.8334 13 14.3849 13 13.8334V5.83337H13.5V3.83337C13.5 3.28187 13.0515 2.83337 12.5 2.83337H12.3086L12.1543 2.52478C11.9418 2.09878 11.5131 1.83337 11.0361 1.83337H4.96387ZM4.96387 2.83337H11.0361C11.1316 2.83337 11.2173 2.88607 11.2598 2.97107L11.6914 3.83337H12.5V4.83337H3.5V3.83337H4.30859L4.74023 2.97107C4.78273 2.88607 4.86837 2.83337 4.96387 2.83337ZM4 5.83337H12V13.8334H4V5.83337ZM7.5 7.33337V9.33337H5.5V10.3334H7.5V12.3334H8.5V10.3334H10.5V9.33337H8.5V7.33337H7.5Z" fill="black"/>
</svg>
