<svg width="16" height="16" viewBox="0 0 16 16" fill="none" xmlns="http://www.w3.org/2000/svg">
<path d="M4.96387 1.5C4.48737 1.5 4.0587 1.76541 3.8457 2.19141L3.69141 2.5H3.5C2.9485 2.5 2.5 2.9485 2.5 3.5V5.5H3V13.5C3 14.0515 3.4485 14.5 4 14.5H12C12.5515 14.5 13 14.0515 13 13.5V5.5H13.5V3.5C13.5 2.9485 13.0515 2.5 12.5 2.5H12.3086L12.1543 2.19141C11.9418 1.76541 11.5131 1.5 11.0361 1.5H4.96387ZM4.96387 2.5H11.0361C11.1316 2.5 11.2173 2.5527 11.2598 2.6377L11.6914 3.5H12.5V4.5H3.5V3.5H4.30859L4.74023 2.6377C4.78273 2.5527 4.86837 2.5 4.96387 2.5ZM4 5.5H12V13.5H4V5.5ZM7.5 7V9H5.5V10H7.5V12H8.5V10H10.5V9H8.5V7H7.5Z" fill="black"/>
</svg>
