<svg width="16" height="18" viewBox="0 0 16 18" fill="none" xmlns="http://www.w3.org/2000/svg">
<path fill-rule="evenodd" clip-rule="evenodd" d="M11.3595 11.5673C12.1809 10.4762 12.6721 9.09219 12.6721 7.58628C12.6721 4.06386 9.9846 1.20837 6.6694 1.20837C3.35418 1.20837 0.666672 4.06386 0.666672 7.58628C0.666672 11.1087 3.35418 13.9642 6.6694 13.9642C8.08674 13.9642 9.38934 13.4423 10.4163 12.5695L14.1947 16.5842C14.4552 16.8609 14.8775 16.8609 15.138 16.5842C15.3985 16.3074 15.3985 15.8587 15.138 15.5819L11.3595 11.5673ZM6.6694 12.554C4.0872 12.554 1.99392 10.3299 1.99392 7.58628C1.99392 4.84269 4.0872 2.61857 6.6694 2.61857C9.2516 2.61857 11.3449 4.84269 11.3449 7.58628C11.3449 10.3299 9.2516 12.554 6.6694 12.554Z" fill="#081021"/>
</svg>
