<svg width="16" height="17" viewBox="0 0 16 17" fill="none" xmlns="http://www.w3.org/2000/svg">
<path d="M13.62 3.08706L14.0994 2.55804C14.3423 2.29019 14.3615 1.92188 14.1186 1.66742L13.9524 1.48661C13.7351 1.25894 13.3707 1.29242 13.1342 1.54019L12.6356 2.04911L13.62 3.08706ZM6.05184 10.2121L7.36221 9.63617L13.1534 3.5692L12.169 2.54465L6.37784 8.61831L5.80255 9.9442C5.73863 10.0982 5.90483 10.2723 6.05184 10.2121ZM3.62287 14.7054H11.0696C12.2969 14.7054 13.0192 13.9554 13.0192 12.5223V5.4509L11.7408 6.78349V12.4018C11.7408 13.0447 11.4148 13.3661 10.9865 13.3661H3.70596C3.11789 13.3661 2.79829 13.0447 2.79829 12.4018V4.96206C2.79829 4.3192 3.11789 3.99778 3.70596 3.99778H9.13281L10.4048 2.65849H3.62287C2.24218 2.65849 1.51988 3.40849 1.51988 4.84153V12.5223C1.51988 13.9554 2.24218 14.7054 3.62287 14.7054Z" fill="#081021"/>
</svg>
