<svg width="16" height="16" viewBox="0 0 16 16" fill="none" xmlns="http://www.w3.org/2000/svg">
<path d="M13.62 2.75369L14.0994 2.22467C14.3423 1.95681 14.3615 1.58851 14.1186 1.33404L13.9524 1.15324C13.7351 0.925562 13.3707 0.959044 13.1342 1.20681L12.6357 1.71574L13.62 2.75369ZM6.05185 9.87869L7.36222 9.30279L13.1534 3.23583L12.169 2.21128L6.37784 8.28494L5.80256 9.61083C5.73864 9.76485 5.90483 9.93896 6.05185 9.87869ZM3.62287 14.372H11.0696C12.2969 14.372 13.0192 13.622 13.0192 12.189V5.11753L11.7408 6.45012V12.0684C11.7408 12.7113 11.4148 13.0327 10.9865 13.0327H3.70597C3.1179 13.0327 2.7983 12.7113 2.7983 12.0684V4.62869C2.7983 3.98583 3.1179 3.6644 3.70597 3.6644H9.13282L10.4048 2.32512H3.62287C2.24219 2.32512 1.51989 3.07512 1.51989 4.50815V12.189C1.51989 13.622 2.24219 14.372 3.62287 14.372Z" fill="#081021"/>
</svg>
