<svg width="16" height="18" viewBox="0 0 16 18" fill="none" xmlns="http://www.w3.org/2000/svg">
<path fill-rule="evenodd" clip-rule="evenodd" d="M6.85224 2.88719C7.29873 1.82927 8.70127 1.82927 9.14776 2.88719L10.1695 5.30815C10.2102 5.40466 10.2943 5.46548 10.3853 5.47303L13.3364 5.71752C14.3878 5.80463 14.8664 7.13887 14.1778 7.96282L12.0624 10.4943C12.0033 10.565 11.9795 10.6648 12.0016 10.7601L12.6425 13.5209C12.8981 14.6221 11.8318 15.5785 10.8543 15.052L8.11363 13.5762C8.04196 13.5376 7.95811 13.5375 7.88644 13.5761L5.14567 15.0521C4.16815 15.5785 3.10194 14.6221 3.35756 13.5209L3.99838 10.7602C4.02051 10.6648 3.99669 10.565 3.93764 10.4943L1.82222 7.96283C1.13373 7.13894 1.61205 5.80464 2.66358 5.71752L5.61463 5.47303C5.70571 5.46548 5.78977 5.40473 5.83052 5.30816L6.85224 2.88719Z" fill="#081021"/>
</svg>
