<svg width="16" height="18" viewBox="0 0 16 18" fill="none" xmlns="http://www.w3.org/2000/svg">
<path fill-rule="evenodd" clip-rule="evenodd" d="M7.7647 3.32194C7.76469 3.32194 7.7647 3.32193 7.7647 3.32194L6.74299 5.74288C6.55461 6.18923 6.1534 6.49412 5.69238 6.53232L2.74132 6.7768C2.53588 6.79383 2.41514 7.07208 2.57 7.25739L4.68541 9.78889C4.96436 10.1227 5.06971 10.5819 4.9693 11.0146L4.32847 13.7753C4.26929 14.0302 4.51019 14.2031 4.69357 14.1043L7.43423 12.6285C7.43425 12.6285 7.43427 12.6285 7.43429 12.6284C7.79018 12.4368 8.20982 12.4368 8.5657 12.6284C8.56573 12.6285 8.56575 12.6285 8.56577 12.6285L11.3064 14.1043L11.3065 14.1043C11.4898 14.2031 11.7307 14.0302 11.6715 13.7753L11.0307 11.0146L11.0307 11.0145C10.9303 10.5819 11.0356 10.1227 11.3146 9.78889L13.43 7.2574L13.43 7.25736C13.5848 7.07212 13.4642 6.79383 13.2587 6.7768L10.3076 6.53232C9.84665 6.49412 9.44536 6.18925 9.25701 5.74283L8.23531 3.32194C8.23531 3.32193 8.23531 3.32194 8.23531 3.32194C8.14207 3.10103 7.85794 3.10103 7.7647 3.32194ZM6.85224 2.88719C7.29873 1.82927 8.70127 1.82927 9.14776 2.88719L10.1695 5.30815L10.1695 5.30821C10.2102 5.40471 10.2943 5.46548 10.3853 5.47303C10.3853 5.47303 10.3853 5.47303 10.3853 5.47303L13.3364 5.71752C14.3878 5.80463 14.8664 7.13887 14.1778 7.96282C14.1778 7.96284 14.1777 7.96285 14.1777 7.96286L12.0624 10.4943C12.0033 10.565 11.9795 10.6648 12.0016 10.7601C12.0016 10.7601 12.0016 10.7602 12.0016 10.7602L12.6425 13.5209C12.8981 14.6221 11.8318 15.5785 10.8543 15.052L8.11363 13.5762L8.11356 13.5761C8.04189 13.5375 7.95811 13.5375 7.88644 13.5761L7.88637 13.5762L5.14567 15.0521C4.16815 15.5785 3.10194 14.6221 3.35756 13.5209L3.99838 10.7602C3.99839 10.7602 3.99838 10.7602 3.99838 10.7602C4.02051 10.6648 3.99669 10.565 3.93764 10.4943L1.82222 7.96283C1.82222 7.96283 1.82222 7.96284 1.82222 7.96283C1.13373 7.13894 1.61205 5.80464 2.66358 5.71752L5.61463 5.47303C5.61464 5.47303 5.61463 5.47303 5.61463 5.47303C5.70571 5.46548 5.78976 5.40473 5.83052 5.30816C5.83052 5.30816 5.83052 5.30816 5.83052 5.30816L6.85224 2.88719Z" fill="#081021"/>
</svg>
