<svg width="20" height="20" viewBox="0 0 20 20" fill="none" xmlns="http://www.w3.org/2000/svg">
<g clip-path="url(#clip0_14_1379)">
<path d="M19.1667 10C19.1667 15.0626 15.0626 19.1667 10 19.1667C4.93739 19.1667 0.833334 15.0626 0.833334 10C0.833334 4.93743 4.93739 0.833374 10 0.833374C15.0626 0.833374 19.1667 4.93743 19.1667 10ZM2.50569 10C2.50569 14.139 5.86101 17.4944 10 17.4944C14.139 17.4944 17.4943 14.139 17.4943 10C17.4943 5.86105 14.139 2.50573 10 2.50573C5.86101 2.50573 2.50569 5.86105 2.50569 10Z" fill="#081021"/>
<path d="M10 4.16663C9.53975 4.16663 9.16667 4.53972 9.16667 4.99996V10.3889C9.16667 10.3889 9.16667 10.6061 9.27225 10.7695C9.34292 10.9081 9.45308 11.0285 9.59783 11.1121L13.4477 13.3349C13.8462 13.565 14.3559 13.4284 14.586 13.0298C14.8161 12.6312 14.6796 12.1215 14.281 11.8915L10.8333 9.90096V4.99996C10.8333 4.53973 10.4602 4.16663 10 4.16663Z" fill="#081021"/>
</g>
<defs>
<clipPath id="clip0_14_1379">
<rect width="20" height="20" fill="white"/>
</clipPath>
</defs>
</svg>
