<svg width="16" height="17" viewBox="0 0 16 17" fill="none" xmlns="http://www.w3.org/2000/svg">
<path d="M8 2.5C7.34767 2.5 6.7914 2.91669 6.58525 3.49995C6.49322 3.76031 6.20757 3.89678 5.94721 3.80475C5.68685 3.71273 5.55038 3.42707 5.64241 3.16671C5.98536 2.19639 6.91074 1.5 8 1.5C9.08934 1.5 10.0147 2.19639 10.3577 3.16671C10.4497 3.42707 10.3132 3.71273 10.0529 3.80475C9.79247 3.89678 9.5068 3.76031 9.4148 3.49995C9.20867 2.91669 8.65234 2.5 8 2.5Z" fill="#081021"/>
<path d="M1.83333 4.66663C1.83333 4.39049 2.05719 4.16663 2.33333 4.16663H13.6667C13.9429 4.16663 14.1667 4.39049 14.1667 4.66663C14.1667 4.94277 13.9429 5.16663 13.6667 5.16663H2.33333C2.05719 5.16663 1.83333 4.94277 1.83333 4.66663Z" fill="#081021"/>
<path d="M3.94338 6.30001C3.92501 6.02448 3.68676 5.81601 3.41123 5.83438C3.1357 5.85274 2.92723 6.091 2.9456 6.36653L3.25457 11.001C3.31156 11.8562 3.3576 12.5469 3.46558 13.089C3.57785 13.6525 3.76879 14.1233 4.16319 14.4922C4.55759 14.8612 5.03995 15.0204 5.60972 15.0949C6.15775 15.1666 6.85006 15.1666 7.70713 15.1666H8.29299C9.15006 15.1666 9.84233 15.1666 10.3904 15.0949C10.9601 15.0204 11.4425 14.8612 11.8369 14.4922C12.2313 14.1233 12.4223 13.6525 12.5345 13.089C12.6425 12.5469 12.6885 11.8562 12.7455 11.001L13.0545 6.36653C13.0729 6.091 12.8644 5.85274 12.5889 5.83438C12.3133 5.81601 12.0751 6.02448 12.0567 6.30001L11.7501 10.8994C11.6902 11.798 11.6475 12.4232 11.5538 12.8936C11.4629 13.3499 11.336 13.5915 11.1537 13.762C10.9715 13.9325 10.722 14.0431 10.2607 14.1034C9.78506 14.1656 9.15839 14.1666 8.25786 14.1666H7.74226C6.84173 14.1666 6.21503 14.1656 5.73943 14.1034C5.27809 14.0431 5.02865 13.9325 4.84637 13.762C4.6641 13.5915 4.53721 13.3499 4.44631 12.8936C4.3526 12.4232 4.30991 11.798 4.25001 10.8994L3.94338 6.30001Z" fill="#081021"/>
<path d="M6.28364 7.50239C6.55842 7.47493 6.8034 7.67539 6.83094 7.95019L7.16427 11.2835C7.19174 11.5583 6.99127 11.8033 6.71647 11.8308C6.44171 11.8583 6.19668 11.6578 6.16921 11.383L5.83588 8.04966C5.8084 7.77493 6.00887 7.52986 6.28364 7.50239Z" fill="#081021"/>
<path d="M10.1643 8.04966C10.1917 7.77493 9.99126 7.52986 9.71646 7.50239C9.44173 7.47493 9.19666 7.67539 9.16919 7.95019L8.83586 11.2835C8.80839 11.5583 9.00886 11.8033 9.28366 11.8308C9.55839 11.8583 9.80339 11.6578 9.83093 11.383L10.1643 8.04966Z" fill="#081021"/>
</svg>
