<svg width="20" height="20" viewBox="0 0 20 20" fill="none" xmlns="http://www.w3.org/2000/svg">
<path fill-rule="evenodd" clip-rule="evenodd" d="M10 2.29163C8.50423 2.29163 7.29167 3.50419 7.29167 4.99996C7.29167 6.49573 8.50423 7.70829 10 7.70829C11.4958 7.70829 12.7083 6.49573 12.7083 4.99996C12.7083 3.50419 11.4958 2.29163 10 2.29163ZM6.04167 4.99996C6.04167 2.81383 7.81387 1.04163 10 1.04163C12.1861 1.04163 13.9583 2.81383 13.9583 4.99996C13.9583 7.18609 12.1861 8.95829 10 8.95829C7.81387 8.95829 6.04167 7.18609 6.04167 4.99996Z" fill="#081021"/>
<path fill-rule="evenodd" clip-rule="evenodd" d="M4.97954 11.3869C6.29577 10.6465 8.07204 10.2083 10 10.2083C11.928 10.2083 13.7042 10.6465 15.0205 11.3869C16.3171 12.1163 17.2917 13.2217 17.2917 14.5833V14.5856C17.2917 14.7249 17.2917 14.8679 17.2895 15.0095C17.2843 15.3546 17.0002 15.6301 16.6551 15.6249C16.3099 15.6196 16.0344 15.3356 16.0397 14.9904C16.0417 14.8592 16.0417 14.725 16.0417 14.5833C16.0417 13.8738 15.5239 13.1042 14.4076 12.4764C13.311 11.8595 11.754 11.4583 10 11.4583C8.24606 11.4583 6.689 11.8595 5.59237 12.4764C4.47615 13.1042 3.95833 13.8738 3.95833 14.5833C3.95833 15.6731 3.99193 16.2866 4.56132 16.7503C4.8701 17.0018 5.38627 17.2472 6.26982 17.426C7.15062 17.6043 8.35481 17.7083 10 17.7083C11.8369 17.7083 13.1219 17.5786 14.0201 17.3619C14.3556 17.2809 14.6933 17.4873 14.7742 17.8229C14.8552 18.1584 14.6488 18.4961 14.3132 18.577C13.2777 18.8268 11.8814 18.9583 10 18.9583C8.31185 18.9583 7.01605 18.8524 6.02184 18.6512C5.0304 18.4505 4.29657 18.1468 3.77201 17.7196C2.70615 16.8516 2.70734 15.6365 2.70828 14.6683C2.70831 14.6397 2.70833 14.6114 2.70833 14.5833C2.70833 13.2217 3.6829 12.1163 4.97954 11.3869Z" fill="#081021"/>
</svg>
