<svg width="14" height="14" viewBox="0 0 14 14" fill="none" xmlns="http://www.w3.org/2000/svg">
<path d="M7.58333 10.9375H3.49999C3.07454 10.9375 2.66652 10.7685 2.36568 10.4676C2.06484 10.1668 1.89583 9.75876 1.89583 9.33333V4.66667C1.89583 4.24121 2.06484 3.83319 2.36568 3.53235C2.66652 3.23151 3.07454 3.0625 3.49999 3.0625H7.58333C8.00875 3.0625 8.41679 3.23151 8.71762 3.53235C9.0185 3.83319 9.18749 4.24121 9.18749 4.66667V9.33333C9.18749 9.75876 9.0185 10.1668 8.71762 10.4676C8.41679 10.7685 8.00875 10.9375 7.58333 10.9375ZM3.49999 3.9375C3.30661 3.9375 3.12114 4.01432 2.9844 4.15107C2.84765 4.28781 2.77083 4.47328 2.77083 4.66667V9.33333C2.77083 9.52671 2.84765 9.71221 2.9844 9.84894C3.12114 9.98567 3.30661 10.0625 3.49999 10.0625H7.58333C7.7767 10.0625 7.9622 9.98567 8.09894 9.84894C8.23567 9.71221 8.31249 9.52671 8.31249 9.33333V4.66667C8.31249 4.47328 8.23567 4.28781 8.09894 4.15107C7.9622 4.01432 7.7767 3.9375 7.58333 3.9375H3.49999Z" fill="#081021"/>
<path d="M11.6667 9.77081C11.5865 9.76958 11.5081 9.74747 11.4392 9.70664L8.5225 7.95664C8.45845 7.91767 8.40548 7.86284 8.36868 7.79745C8.33193 7.73206 8.31256 7.65832 8.3125 7.58331V6.41664C8.31256 6.34162 8.33193 6.26789 8.36868 6.20256C8.40548 6.13716 8.45845 6.08233 8.5225 6.04331L11.4392 4.29332C11.5061 4.25323 11.5828 4.23206 11.6608 4.23206C11.7389 4.23206 11.8155 4.25323 11.8825 4.29332C11.9496 4.33137 12.0054 4.38648 12.0444 4.45307C12.0833 4.51966 12.1039 4.59536 12.1042 4.67249V9.33914C12.1039 9.41631 12.0833 9.49197 12.0444 9.55859C12.0054 9.62515 11.9496 9.68027 11.8825 9.71831C11.8167 9.75517 11.742 9.77331 11.6667 9.77081ZM9.1875 7.33831L11.2292 8.56331V5.43665L9.1875 6.66164V7.33831Z" fill="#081021"/>
</svg>
