<svg width="26" height="26" viewBox="0 0 26 26" fill="none" xmlns="http://www.w3.org/2000/svg">
<path fill-rule="evenodd" clip-rule="evenodd" d="M2 19.2222C2 18.5472 2.54721 18 3.22222 18H22.7778C23.4528 18 24 18.5472 24 19.2222C24 19.8972 23.4528 20.4444 22.7778 20.4444H3.22222C2.54721 20.4444 2 19.8972 2 19.2222Z" fill="black"/>
<path fill-rule="evenodd" clip-rule="evenodd" d="M2 12.7222C2 12.0472 2.54721 11.5 3.22222 11.5H22.7778C23.4528 11.5 24 12.0472 24 12.7222C24 13.3972 23.4528 13.9444 22.7778 13.9444H3.22222C2.54721 13.9444 2 13.3972 2 12.7222Z" fill="black"/>
<path fill-rule="evenodd" clip-rule="evenodd" d="M2 6.22222C2 5.54721 2.54721 5 3.22222 5H22.7778C23.4528 5 24 5.54721 24 6.22222C24 6.89724 23.4528 7.44444 22.7778 7.44444H3.22222C2.54721 7.44444 2 6.89724 2 6.22222Z" fill="black"/>
</svg>
