<svg width="26" height="26" viewBox="0 0 26 26" fill="none" xmlns="http://www.w3.org/2000/svg">
<path d="M3.38203 20.7734C2.87266 21.2828 2.87266 22.1086 3.38203 22.618C3.89141 23.1273 4.71729 23.1273 5.22666 22.618L3.38203 20.7734ZM13.9223 13.9223C14.4317 13.4129 14.4317 12.5871 13.9223 12.0778C13.4129 11.5684 12.5871 11.5684 12.0778 12.0778L13.9223 13.9223ZM12.0778 12.0778C11.5684 12.5871 11.5684 13.4129 12.0778 13.9223C12.5871 14.4317 13.4129 14.4317 13.9223 13.9223L12.0778 12.0778ZM22.618 5.22666C23.1273 4.71729 23.1273 3.89141 22.618 3.38203C22.1086 2.87266 21.2828 2.87266 20.7734 3.38203L22.618 5.22666ZM13.9223 12.0778C13.4129 11.5684 12.5871 11.5684 12.0778 12.0778C11.5684 12.5871 11.5684 13.4129 12.0778 13.9223L13.9223 12.0778ZM20.7734 22.618C21.2828 23.1273 22.1086 23.1273 22.618 22.618C23.1273 22.1086 23.1273 21.2828 22.618 20.7734L20.7734 22.618ZM12.0778 13.9223C12.5871 14.4317 13.4129 14.4317 13.9223 13.9223C14.4317 13.4129 14.4317 12.5871 13.9223 12.0778L12.0778 13.9223ZM5.22666 3.38203C4.71729 2.87266 3.89141 2.87266 3.38203 3.38203C2.87266 3.89141 2.87266 4.71729 3.38203 5.22666L5.22666 3.38203ZM5.22666 22.618L13.9223 13.9223L12.0778 12.0778L3.38203 20.7734L5.22666 22.618ZM13.9223 13.9223L22.618 5.22666L20.7734 3.38203L12.0778 12.0778L13.9223 13.9223ZM12.0778 13.9223L20.7734 22.618L22.618 20.7734L13.9223 12.0778L12.0778 13.9223ZM13.9223 12.0778L5.22666 3.38203L3.38203 5.22666L12.0778 13.9223L13.9223 12.0778Z" fill="black"/>
</svg>
