<svg width="73" height="72" viewBox="0 0 73 72" fill="none" xmlns="http://www.w3.org/2000/svg">
<path d="M30.3569 11.8277C32.3999 10.0676 32.0594 7.81848 31.5244 6.69392L34.5889 5.52048C35.6104 5.22711 35.7735 7.13397 35.4645 8.01406C34.5889 10.5076 31.9622 11.6811 30.3569 11.8277Z" fill="#157EFC"/>
<path d="M19.9554 8.16918C12.9733 10.8908 8.75825 14.1745 7.59082 16.3747L7.88268 19.895L8.32047 23.4153C10.2987 23.4153 12.1975 24.341 12.8279 24.7355C13.6424 22.0139 13.7491 19.0654 13.7006 17.9314C17.1917 16.6298 20.1979 14.0364 21.2646 12.9024H23.301C30.865 12.3107 31.0104 8.81014 30.1377 7.13379L26.5012 7.87335L19.9554 8.16918Z" fill="#157EFC"/>
<path d="M19.5592 6.98714C12.2044 9.8034 8.12807 13.7344 7.00928 15.3479C7.35951 13.4704 9.87922 10.8497 11.0953 9.77407C14.7143 6.84046 19.0241 5.0314 20.7266 4.49357C24.2289 3.90685 26.7584 2.58672 27.5853 2C28.2858 2.23469 28.5582 2.97787 28.6068 3.32012C28.7235 5.08029 26.9043 6.30263 25.9801 6.69378C22.7113 6.81112 20.3375 6.93824 19.5592 6.98714Z" fill="#157EFC"/>
<path d="M3.21692 10.214C6.25225 12.2088 6.91379 19.846 6.86515 23.4152C5.46423 23.7673 4.91943 24.6376 4.82214 25.0287C4.47191 25.9674 5.94093 28.1579 6.71922 29.1357C8.0034 30.8959 9.58916 34.1718 10.2215 35.5897L12.4105 40.2835L15.1831 43.6571C17.985 46.5907 20.3393 49.9644 21.1662 51.2845C20.5825 48.4683 17.2261 43.4616 15.6209 41.3102C14.8037 40.3715 12.751 36.7142 11.8267 35.003L9.6378 30.7492L8.17851 28.4023L6.28143 25.7621C6.16469 25.2927 6.62194 25.0776 6.86515 25.0287C12.0019 24.2073 15.9128 29.0869 17.2261 31.6293C19.094 35.7364 21.9931 38.6211 23.2092 39.5501L27.733 42.4837C36.1385 48.8203 36.3915 63.019 35.4673 69.3262C32.7822 62.1682 22.7714 55.4894 18.1017 53.0447C16.2338 52.1059 13.1401 50.0133 11.8267 49.0843L7.74072 46.2974C6.3398 45.828 5.114 41.5058 4.67621 39.4034L3.21692 32.9494L1.31984 26.9355C0.736126 24.4713 0.882055 20.4327 1.02798 18.7214V11.3874C1.02798 9.92057 2.77913 9.92061 3.21692 10.214Z" fill="#157EFC"/>
<path d="M43.4331 11.8277C41.3901 10.0676 41.7306 7.81848 42.2657 6.69392L39.2012 5.52048C38.1797 5.22711 38.0166 7.13397 38.3256 8.01406C39.2012 10.5076 41.8279 11.6811 43.4331 11.8277Z" fill="#157EFC"/>
<path d="M53.8346 8.16918C60.8167 10.8908 65.0318 14.1745 66.1992 16.3747L65.9074 19.895L65.4696 23.4153C63.4913 23.4153 61.5925 24.341 60.9622 24.7355C60.1476 22.0139 60.0409 19.0654 60.0894 17.9314C56.5984 16.6298 53.5922 14.0364 52.5255 12.9024H50.489C42.9251 12.3107 42.7796 8.81014 43.6524 7.13379L47.2889 7.87335L53.8346 8.16918Z" fill="#157EFC"/>
<path d="M54.2357 6.98714C61.5906 9.8034 65.6669 13.7344 66.7856 15.3479C66.4354 13.4704 63.9157 10.8497 62.6996 9.77407C59.0806 6.84046 54.7708 5.0314 53.0683 4.49357C49.566 3.90685 47.0366 2.58672 46.2096 2C45.5092 2.23469 45.2368 2.97787 45.1881 3.32012C45.0714 5.08029 46.8906 6.30263 47.8149 6.69378C51.0837 6.81112 53.4574 6.93824 54.2357 6.98714Z" fill="#157EFC"/>
<path d="M70.578 10.214C67.5427 12.2088 66.8811 19.846 66.9298 23.4152C68.3307 23.7673 68.8755 24.6376 68.9728 25.0287C69.323 25.9674 67.854 28.1579 67.0757 29.1357C65.7915 30.8959 64.2058 34.1718 63.5734 35.5897L61.3845 40.2835L58.6118 43.6571C55.81 46.5907 53.4556 49.9644 52.6287 51.2845C53.2124 48.4683 56.5688 43.4616 58.174 41.3102C58.9912 40.3715 61.044 36.7142 61.9682 35.003L64.1571 30.7492L65.6164 28.4023L67.5135 25.7621C67.6302 25.2927 67.173 25.0776 66.9298 25.0287C61.7931 24.2073 57.8822 29.0869 56.5688 31.6293C54.7009 35.7364 51.8018 38.6211 50.5857 39.5501L46.0619 42.4837C37.6564 48.8203 37.4034 63.019 38.3277 69.3262C41.0127 62.1682 51.0235 55.4894 55.6932 53.0447C57.5611 52.1059 60.6548 50.0133 61.9682 49.0843L66.0542 46.2974C67.4551 45.828 68.6809 41.5058 69.1187 39.4034L70.578 32.9494L72.4751 26.9355C73.0588 24.4713 72.9129 20.4327 72.7669 18.7214V11.3874C72.7669 9.92057 71.0158 9.92061 70.578 10.214Z" fill="#157EFC"/>
<path d="M21.8787 26.7702C22.2281 28.1216 22.896 29.2963 23.8825 30.2943L37.0457 44.0792L50.2089 30.2943C51.1953 29.2963 51.8632 28.1216 52.2126 26.7702C52.562 25.4187 52.562 24.0776 52.2126 22.747C51.8632 21.4163 51.1953 20.252 50.2089 19.254C49.2224 18.256 48.0715 17.5802 46.7562 17.2268C45.4409 16.8733 44.1051 16.8733 42.7487 17.2268C41.3923 17.5802 40.2414 18.256 39.2961 19.254L37.0457 21.9985L34.7953 19.254C33.8088 18.256 32.6579 17.5802 31.3427 17.2268C30.0274 16.8733 28.7018 16.8733 27.366 17.2268C26.0301 17.5802 24.869 18.256 23.8825 19.254C22.896 20.252 22.2281 21.4163 21.8787 22.747C21.5294 24.0776 21.5294 25.4187 21.8787 26.7702Z" fill="#FF5CAE"/>
<path d="M30.9575 30.956C30.9575 30.2216 31.5528 29.6263 32.2872 29.6263H41.784C42.5184 29.6263 43.1137 30.2216 43.1137 30.956C43.1137 31.6903 42.5184 32.2856 41.784 32.2856H32.2872C31.5528 32.2856 30.9575 31.6903 30.9575 30.956Z" fill="white"/>
<path d="M37.0356 24.8824C37.7725 24.8824 38.3698 25.4798 38.3698 26.2167L38.3698 35.7044C38.3698 36.4413 37.7725 37.0386 37.0356 37.0386C36.2987 37.0386 35.7014 36.4413 35.7014 35.7044V26.2167C35.7014 25.4798 36.2987 24.8824 37.0356 24.8824Z" fill="white"/>
</svg>
