<svg width="100" height="100" viewBox="0 0 100 100" fill="none" xmlns="http://www.w3.org/2000/svg">
<path fill-rule="evenodd" clip-rule="evenodd" d="M26.2902 70.7571C25.3232 69.7865 25.3232 68.2118 26.2902 67.2412C27.2561 66.2717 28.8212 66.2717 29.787 67.2412L49.3866 86.9135L68.9862 67.2412C69.9521 66.2717 71.5172 66.2717 72.483 67.2412C73.4501 68.2118 73.4501 69.7865 72.483 70.7571L49.3866 93.9392L26.2902 70.7571Z" fill="#FF5CAE"/>
<path fill-rule="evenodd" clip-rule="evenodd" d="M41.0939 14.2677L92.0966 63.8599C93.0789 64.815 93.1038 66.3894 92.1522 67.3754C91.2018 68.3601 89.6369 68.385 88.6558 67.4311L37.6082 17.7953C33.2185 13.3892 23.7041 9.40014 14.4456 16.3698L14.3906 16.4112L14.3335 16.4494C12.1249 17.9273 8.38326 21.3198 6.35794 25.9399C4.42154 30.3571 3.97677 36.0254 8.32021 42.6603L24.6909 60.735L21.0285 64.0768L4.40525 45.7232L4.30224 45.5681C-1.14662 37.3646 -0.758405 29.838 1.82753 23.9391C4.32175 18.2494 8.78404 14.2068 11.5302 12.3547C23.3625 3.49168 35.5863 8.75189 41.0939 14.2677Z" fill="#FF5CAE"/>
<path fill-rule="evenodd" clip-rule="evenodd" d="M61.0914 16.2061L55.3436 21.9752L49.5959 27.7443L46.096 24.2315L57.6964 12.588L57.7507 12.5395C60.5246 10.0648 65.4135 7.16099 71.2906 6.3074C77.2741 5.43835 84.2006 6.71638 90.7204 12.5253C92.9693 14.4678 96.9479 19.3998 98.8807 25.6673C100.865 32.1008 100.712 40.0878 94.2544 47.4951L94.2001 47.5574L77.6433 64.1756L74.1435 60.6628L90.5822 44.163C95.6218 38.3411 95.7377 32.2767 94.1525 27.1363C92.5156 21.8284 89.0857 17.662 87.4817 16.282L87.4478 16.2529C82.0934 11.4757 76.6526 10.5483 71.9995 11.2241C67.273 11.9106 63.2789 14.2734 61.0914 16.2061Z" fill="#FF5CAE"/>
<path d="M42.8553 56.9625H48.3105V62.3396H42.8553V56.9625Z" fill="#157EFC"/>
<path d="M42.813 65.0281H48.2683V70.4052H42.813V65.0281Z" fill="#157EFC"/>
<path d="M50.9958 65.0281H56.4511V70.4052H50.9958V65.0281Z" fill="#157EFC"/>
<path d="M50.9958 56.9625H56.4511V62.3396H50.9958V56.9625Z" fill="#157EFC"/>
<path d="M42.8553 56.9625H48.3105V62.3396H42.8553V56.9625Z" fill="#157EFC"/>
<path d="M42.813 65.0281H48.2683V70.4052H42.813V65.0281Z" fill="#157EFC"/>
<path d="M50.9958 65.0281H56.4511V70.4052H50.9958V65.0281Z" fill="#157EFC"/>
<path d="M50.9958 56.9625H56.4511V62.3396H50.9958V56.9625Z" fill="#157EFC"/>
<path fill-rule="evenodd" clip-rule="evenodd" d="M49.3822 32.3986L87.2496 68.7539C88.2378 69.7027 88.2726 71.2769 87.3273 72.2689C86.3831 73.2596 84.8185 73.2946 83.8314 72.3469L49.3822 39.2732L14.933 72.3469C13.9459 73.2945 12.3812 73.2596 11.4371 72.2689C10.4917 71.2769 10.5266 69.7027 11.5148 68.7539L49.3822 32.3986Z" fill="#157EFC"/>
</svg>
