<svg width="160" height="60" viewBox="0 0 160 60" fill="none" xmlns="http://www.w3.org/2000/svg">
<rect width="160" height="60" rx="8" fill="#157EFC"/>
<path d="M29.3876 38.875C28.3501 40.425 27.2501 41.9375 25.5751 41.9625C23.9001 42 23.3626 40.975 21.4626 40.975C19.5501 40.975 18.9626 41.9375 17.3751 42C15.7376 42.0625 14.5001 40.35 13.4501 38.8375C11.3126 35.75 9.67505 30.0625 11.8751 26.2375C12.9626 24.3375 14.9126 23.1375 17.0251 23.1C18.6251 23.075 20.1501 24.1875 21.1376 24.1875C22.1126 24.1875 23.9626 22.85 25.9001 23.05C26.7126 23.0875 28.9876 23.375 30.4501 25.525C30.3376 25.6 27.7376 27.125 27.7626 30.2875C27.8001 34.0625 31.0751 35.325 31.1126 35.3375C31.0751 35.425 30.5876 37.1375 29.3876 38.875ZM22.2501 18.875C23.1626 17.8375 24.6751 17.05 25.9251 17C26.0876 18.4625 25.5001 19.9375 24.6251 20.9875C23.7626 22.05 22.3376 22.875 20.9376 22.7625C20.7501 21.325 21.4501 19.825 22.2501 18.875Z" fill="white"/>
<path d="M43.125 24H40.8807V16.7273H43.2244C43.9299 16.7273 44.5336 16.8729 45.0355 17.1641C45.5374 17.4529 45.9221 17.8684 46.1896 18.4105C46.4571 18.9503 46.5909 19.5966 46.5909 20.3494C46.5909 21.107 46.456 21.7592 46.1861 22.3061C45.9162 22.8506 45.5232 23.2696 45.0071 23.5632C44.491 23.8544 43.8636 24 43.125 24ZM41.7614 23.2188H43.0682C43.6695 23.2188 44.1679 23.1027 44.5632 22.8707C44.9586 22.6387 45.2533 22.3085 45.4474 21.88C45.6416 21.4515 45.7386 20.9413 45.7386 20.3494C45.7386 19.7623 45.6428 19.2569 45.451 18.8331C45.2592 18.407 44.9728 18.0803 44.5916 17.853C44.2105 17.6233 43.7358 17.5085 43.1676 17.5085H41.7614V23.2188ZM50.1705 24.1136C49.678 24.1136 49.246 23.9964 48.8743 23.7621C48.505 23.5277 48.2161 23.1998 48.0078 22.7784C47.8018 22.357 47.6989 21.8646 47.6989 21.3011C47.6989 20.733 47.8018 20.237 48.0078 19.8132C48.2161 19.3894 48.505 19.0604 48.8743 18.826C49.246 18.5916 49.678 18.4744 50.1705 18.4744C50.6629 18.4744 51.0938 18.5916 51.4631 18.826C51.8348 19.0604 52.1236 19.3894 52.3295 19.8132C52.5379 20.237 52.642 20.733 52.642 21.3011C52.642 21.8646 52.5379 22.357 52.3295 22.7784C52.1236 23.1998 51.8348 23.5277 51.4631 23.7621C51.0938 23.9964 50.6629 24.1136 50.1705 24.1136ZM50.1705 23.3608C50.5445 23.3608 50.8523 23.2649 51.0938 23.0732C51.3352 22.8814 51.514 22.6293 51.63 22.3168C51.746 22.0043 51.804 21.6657 51.804 21.3011C51.804 20.9366 51.746 20.5968 51.63 20.282C51.514 19.9671 51.3352 19.7126 51.0938 19.5185C50.8523 19.3243 50.5445 19.2273 50.1705 19.2273C49.7964 19.2273 49.4886 19.3243 49.2472 19.5185C49.0057 19.7126 48.8269 19.9671 48.7109 20.282C48.5949 20.5968 48.5369 20.9366 48.5369 21.3011C48.5369 21.6657 48.5949 22.0043 48.7109 22.3168C48.8269 22.6293 49.0057 22.8814 49.2472 23.0732C49.4886 23.2649 49.7964 23.3608 50.1705 23.3608ZM54.9716 24L53.3097 18.5455H54.1903L55.3693 22.7216H55.4261L56.5909 18.5455H57.4858L58.6364 22.7074H58.6932L59.8722 18.5455H60.7528L59.0909 24H58.267L57.0739 19.8097H56.9886L55.7955 24H54.9716ZM62.6989 20.7188V24H61.8608V18.5455H62.6705V19.3977H62.7415C62.8693 19.1207 63.0634 18.8982 63.3239 18.7301C63.5843 18.5597 63.9205 18.4744 64.3324 18.4744C64.7017 18.4744 65.0249 18.5502 65.3018 18.7017C65.5788 18.8509 65.7943 19.0781 65.9482 19.3835C66.102 19.6866 66.179 20.0701 66.179 20.5341V24H65.3409V20.5909C65.3409 20.1624 65.2296 19.8286 65.0071 19.5895C64.7846 19.348 64.4792 19.2273 64.0909 19.2273C63.8234 19.2273 63.5843 19.2853 63.3736 19.4013C63.1652 19.5173 63.0007 19.6866 62.88 19.9091C62.7592 20.1316 62.6989 20.4015 62.6989 20.7188ZM68.5485 16.7273V24H67.7104V16.7273H68.5485ZM72.2994 24.1136C71.8069 24.1136 71.3749 23.9964 71.0032 23.7621C70.6339 23.5277 70.3451 23.1998 70.1367 22.7784C69.9308 22.357 69.8278 21.8646 69.8278 21.3011C69.8278 20.733 69.9308 20.237 70.1367 19.8132C70.3451 19.3894 70.6339 19.0604 71.0032 18.826C71.3749 18.5916 71.8069 18.4744 72.2994 18.4744C72.7918 18.4744 73.2227 18.5916 73.592 18.826C73.9637 19.0604 74.2525 19.3894 74.4585 19.8132C74.6668 20.237 74.771 20.733 74.771 21.3011C74.771 21.8646 74.6668 22.357 74.4585 22.7784C74.2525 23.1998 73.9637 23.5277 73.592 23.7621C73.2227 23.9964 72.7918 24.1136 72.2994 24.1136ZM72.2994 23.3608C72.6734 23.3608 72.9812 23.2649 73.2227 23.0732C73.4641 22.8814 73.6429 22.6293 73.7589 22.3168C73.8749 22.0043 73.9329 21.6657 73.9329 21.3011C73.9329 20.9366 73.8749 20.5968 73.7589 20.282C73.6429 19.9671 73.4641 19.7126 73.2227 19.5185C72.9812 19.3243 72.6734 19.2273 72.2994 19.2273C71.9253 19.2273 71.6175 19.3243 71.3761 19.5185C71.1346 19.7126 70.9558 19.9671 70.8398 20.282C70.7238 20.5968 70.6658 20.9366 70.6658 21.3011C70.6658 21.6657 70.7238 22.0043 70.8398 22.3168C70.9558 22.6293 71.1346 22.8814 71.3761 23.0732C71.6175 23.2649 71.9253 23.3608 72.2994 23.3608ZM77.6554 24.1278C77.3097 24.1278 76.996 24.0627 76.7143 23.9325C76.4326 23.8 76.2089 23.6094 76.0431 23.3608C75.8774 23.1098 75.7946 22.8068 75.7946 22.4517C75.7946 22.1392 75.8561 21.8859 75.9792 21.6918C76.1023 21.4953 76.2669 21.3414 76.4728 21.2301C76.6788 21.1188 76.9061 21.036 77.1547 20.9815C77.4056 20.9247 77.6577 20.8797 77.911 20.8466C78.2425 20.804 78.5112 20.772 78.7172 20.7507C78.9255 20.727 79.077 20.688 79.1717 20.6335C79.2688 20.5791 79.3173 20.4844 79.3173 20.3494V20.321C79.3173 19.9706 79.2214 19.6984 79.0297 19.5043C78.8403 19.3101 78.5526 19.2131 78.1667 19.2131C77.7666 19.2131 77.4529 19.3007 77.2257 19.4759C76.9984 19.651 76.8386 19.8381 76.7463 20.0369L75.9508 19.7528C76.0929 19.4214 76.2823 19.1634 76.519 18.9787C76.7581 18.7917 77.0185 18.6615 77.3002 18.5881C77.5843 18.5123 77.8637 18.4744 78.1383 18.4744C78.3135 18.4744 78.5147 18.4957 78.742 18.5384C78.9717 18.5786 79.193 18.6626 79.4061 18.7905C79.6215 18.9183 79.8002 19.1113 79.9423 19.3693C80.0843 19.6274 80.1554 19.973 80.1554 20.4062V24H79.3173V23.2614H79.2747C79.2179 23.3797 79.1232 23.5064 78.9906 23.6413C78.858 23.7763 78.6816 23.8911 78.4615 23.9858C78.2413 24.0805 77.9726 24.1278 77.6554 24.1278ZM77.7832 23.375C78.1146 23.375 78.394 23.3099 78.6213 23.1797C78.8509 23.0495 79.0237 22.8814 79.1397 22.6754C79.2581 22.4695 79.3173 22.2528 79.3173 22.0256V21.2585C79.2818 21.3011 79.2037 21.3402 79.0829 21.3757C78.9645 21.4089 78.8272 21.4384 78.671 21.4645C78.5171 21.4882 78.3668 21.5095 78.22 21.5284C78.0756 21.545 77.9584 21.5592 77.8684 21.571C77.6506 21.5994 77.447 21.6456 77.2576 21.7095C77.0706 21.7711 76.9191 21.8646 76.8031 21.9901C76.6895 22.1132 76.6326 22.2812 76.6326 22.4943C76.6326 22.7855 76.7404 23.0057 76.9558 23.1548C77.1736 23.3016 77.4494 23.375 77.7832 23.375ZM83.7447 24.1136C83.2901 24.1136 82.8888 23.9988 82.5408 23.7692C82.1928 23.5372 81.9206 23.2105 81.7241 22.7891C81.5276 22.3653 81.4293 21.8646 81.4293 21.2869C81.4293 20.714 81.5276 20.2169 81.7241 19.7955C81.9206 19.3741 82.194 19.0485 82.5444 18.8189C82.8948 18.5893 83.2996 18.4744 83.7589 18.4744C84.114 18.4744 84.3945 18.5336 84.6005 18.652C84.8088 18.768 84.9674 18.9006 85.0763 19.0497C85.1876 19.1965 85.274 19.3172 85.3356 19.4119H85.4066V16.7273H86.2447V24H85.435V23.1619H85.3356C85.274 23.2614 85.1864 23.3868 85.0728 23.5384C84.9592 23.6875 84.797 23.8213 84.5863 23.9396C84.3756 24.0556 84.0951 24.1136 83.7447 24.1136ZM83.8583 23.3608C84.1945 23.3608 84.4786 23.2732 84.7106 23.098C84.9426 22.9205 85.119 22.6754 85.2397 22.3629C85.3604 22.0481 85.4208 21.6847 85.4208 21.2727C85.4208 20.8655 85.3616 20.5092 85.2433 20.2038C85.1249 19.8961 84.9497 19.657 84.7177 19.4865C84.4857 19.3137 84.1992 19.2273 83.8583 19.2273C83.5032 19.2273 83.2073 19.3184 82.9705 19.5007C82.7362 19.6806 82.5598 19.9257 82.4414 20.2358C82.3254 20.5436 82.2674 20.8892 82.2674 21.2727C82.2674 21.661 82.3266 22.0137 82.445 22.331C82.5657 22.6458 82.7433 22.8968 82.9776 23.0838C83.2144 23.2685 83.5079 23.3608 83.8583 23.3608ZM92.9244 24.1136C92.4319 24.1136 91.9999 23.9964 91.6282 23.7621C91.2589 23.5277 90.9701 23.1998 90.7617 22.7784C90.5558 22.357 90.4528 21.8646 90.4528 21.3011C90.4528 20.733 90.5558 20.237 90.7617 19.8132C90.9701 19.3894 91.2589 19.0604 91.6282 18.826C91.9999 18.5916 92.4319 18.4744 92.9244 18.4744C93.4168 18.4744 93.8477 18.5916 94.217 18.826C94.5887 19.0604 94.8775 19.3894 95.0835 19.8132C95.2918 20.237 95.396 20.733 95.396 21.3011C95.396 21.8646 95.2918 22.357 95.0835 22.7784C94.8775 23.1998 94.5887 23.5277 94.217 23.7621C93.8477 23.9964 93.4168 24.1136 92.9244 24.1136ZM92.9244 23.3608C93.2984 23.3608 93.6062 23.2649 93.8477 23.0732C94.0891 22.8814 94.2679 22.6293 94.3839 22.3168C94.4999 22.0043 94.5579 21.6657 94.5579 21.3011C94.5579 20.9366 94.4999 20.5968 94.3839 20.282C94.2679 19.9671 94.0891 19.7126 93.8477 19.5185C93.6062 19.3243 93.2984 19.2273 92.9244 19.2273C92.5503 19.2273 92.2425 19.3243 92.0011 19.5185C91.7596 19.7126 91.5808 19.9671 91.4648 20.282C91.3488 20.5968 91.2908 20.9366 91.2908 21.3011C91.2908 21.6657 91.3488 22.0043 91.4648 22.3168C91.5808 22.6293 91.7596 22.8814 92.0011 23.0732C92.2425 23.2649 92.5503 23.3608 92.9244 23.3608ZM97.5133 20.7188V24H96.6752V18.5455H97.4849V19.3977H97.5559C97.6838 19.1207 97.8779 18.8982 98.1383 18.7301C98.3987 18.5597 98.7349 18.4744 99.1468 18.4744C99.5162 18.4744 99.8393 18.5502 100.116 18.7017C100.393 18.8509 100.609 19.0781 100.763 19.3835C100.916 19.6866 100.993 20.0701 100.993 20.5341V24H100.155V20.5909C100.155 20.1624 100.044 19.8286 99.8216 19.5895C99.599 19.348 99.2936 19.2273 98.9054 19.2273C98.6378 19.2273 98.3987 19.2853 98.188 19.4013C97.9797 19.5173 97.8152 19.6866 97.6944 19.9091C97.5737 20.1316 97.5133 20.4015 97.5133 20.7188ZM107.71 18.5455V19.2557H104.883V18.5455H107.71ZM105.707 17.2386H106.545V22.4375C106.545 22.6742 106.579 22.8518 106.648 22.9702C106.719 23.0862 106.809 23.1643 106.918 23.2045C107.029 23.2424 107.146 23.2614 107.269 23.2614C107.362 23.2614 107.437 23.2566 107.496 23.2472C107.556 23.2353 107.603 23.2259 107.638 23.2188L107.809 23.9716C107.752 23.9929 107.673 24.0142 107.571 24.0355C107.469 24.0592 107.34 24.071 107.184 24.071C106.947 24.071 106.715 24.0201 106.488 23.9183C106.263 23.8165 106.076 23.6615 105.927 23.4531C105.78 23.2448 105.707 22.982 105.707 22.6648V17.2386ZM109.925 20.7188V24H109.087V16.7273H109.925V19.3977H109.996C110.124 19.116 110.316 18.8923 110.572 18.7266C110.83 18.5585 111.173 18.4744 111.602 18.4744C111.973 18.4744 112.299 18.549 112.578 18.6982C112.857 18.8449 113.074 19.071 113.228 19.3764C113.384 19.6795 113.462 20.0653 113.462 20.5341V24H112.624V20.5909C112.624 20.1577 112.512 19.8227 112.287 19.5859C112.064 19.3468 111.755 19.2273 111.36 19.2273C111.085 19.2273 110.839 19.2853 110.621 19.4013C110.406 19.5173 110.236 19.6866 110.11 19.9091C109.987 20.1316 109.925 20.4015 109.925 20.7188ZM117.282 24.1136C116.757 24.1136 116.304 23.9976 115.922 23.7656C115.544 23.5312 115.251 23.2045 115.045 22.7855C114.842 22.3641 114.74 21.8741 114.74 21.3153C114.74 20.7566 114.842 20.2642 115.045 19.8381C115.251 19.4096 115.538 19.0758 115.905 18.8366C116.274 18.5952 116.705 18.4744 117.197 18.4744C117.481 18.4744 117.762 18.5218 118.039 18.6165C118.316 18.7112 118.568 18.8651 118.795 19.0781C119.023 19.2888 119.204 19.5682 119.339 19.9162C119.474 20.2642 119.541 20.6927 119.541 21.2017V21.5568H115.336V20.8324H118.689C118.689 20.5246 118.627 20.25 118.504 20.0085C118.383 19.767 118.211 19.5765 117.986 19.4368C117.763 19.2971 117.5 19.2273 117.197 19.2273C116.863 19.2273 116.575 19.3101 116.331 19.4759C116.089 19.6392 115.903 19.8523 115.773 20.1151C115.643 20.3778 115.578 20.6596 115.578 20.9602V21.4432C115.578 21.8551 115.649 22.2043 115.791 22.4908C115.935 22.7749 116.135 22.9915 116.391 23.1406C116.647 23.2874 116.944 23.3608 117.282 23.3608C117.503 23.3608 117.702 23.33 117.879 23.2685C118.059 23.2045 118.214 23.1098 118.344 22.9844C118.474 22.8565 118.575 22.6979 118.646 22.5085L119.456 22.7358C119.371 23.0104 119.227 23.2519 119.026 23.4602C118.825 23.6662 118.576 23.8272 118.28 23.9432C117.984 24.0568 117.652 24.1136 117.282 24.1136ZM42.8267 46H40.4972L45.7315 31.4545H48.267L53.5014 46H51.1719L47.0597 34.0966H46.946L42.8267 46ZM43.2173 40.304H50.7741V42.1506H43.2173V40.304ZM55.4315 50.0909V35.0909H57.5053V36.8594H57.6829C57.806 36.6321 57.9835 36.3693 58.2156 36.071C58.4476 35.7727 58.7695 35.5123 59.1815 35.2898C59.5934 35.0625 60.1379 34.9489 60.815 34.9489C61.6957 34.9489 62.4817 35.1714 63.1729 35.6165C63.8642 36.0616 64.4064 36.7031 64.7994 37.5412C65.1971 38.3793 65.396 39.3878 65.396 40.5668C65.396 41.7457 65.1995 42.7566 64.8065 43.5994C64.4135 44.4375 63.8737 45.0838 63.1871 45.5384C62.5006 45.9882 61.717 46.2131 60.8363 46.2131C60.1734 46.2131 59.6313 46.1018 59.2099 45.8793C58.7932 45.6567 58.4665 45.3963 58.2298 45.098C57.993 44.7997 57.8107 44.5346 57.6829 44.3026H57.555V50.0909H55.4315ZM57.5124 40.5455C57.5124 41.3125 57.6237 41.9848 57.8462 42.5625C58.0688 43.1402 58.3907 43.5923 58.8121 43.919C59.2335 44.241 59.7496 44.402 60.3604 44.402C60.9949 44.402 61.5252 44.2339 61.9513 43.8977C62.3775 43.5568 62.6995 43.0952 62.9173 42.5128C63.1398 41.9304 63.2511 41.2746 63.2511 40.5455C63.2511 39.8258 63.1422 39.1795 62.9244 38.6065C62.7113 38.0336 62.3893 37.5814 61.9585 37.25C61.5323 36.9186 60.9996 36.7528 60.3604 36.7528C59.7449 36.7528 59.2241 36.9115 58.7979 37.2287C58.3765 37.5459 58.0569 37.9886 57.8391 38.5568C57.6213 39.125 57.5124 39.7879 57.5124 40.5455ZM67.7752 50.0909V35.0909H69.8491V36.8594H70.0266C70.1497 36.6321 70.3273 36.3693 70.5593 36.071C70.7913 35.7727 71.1133 35.5123 71.5252 35.2898C71.9371 35.0625 72.4817 34.9489 73.1587 34.9489C74.0394 34.9489 74.8254 35.1714 75.5167 35.6165C76.208 36.0616 76.7501 36.7031 77.1431 37.5412C77.5408 38.3793 77.7397 39.3878 77.7397 40.5668C77.7397 41.7457 77.5432 42.7566 77.1502 43.5994C76.7572 44.4375 76.2174 45.0838 75.5309 45.5384C74.8443 45.9882 74.0607 46.2131 73.18 46.2131C72.5172 46.2131 71.975 46.1018 71.5536 45.8793C71.137 45.6567 70.8103 45.3963 70.5735 45.098C70.3368 44.7997 70.1545 44.5346 70.0266 44.3026H69.8988V50.0909H67.7752ZM69.8562 40.5455C69.8562 41.3125 69.9674 41.9848 70.19 42.5625C70.4125 43.1402 70.7345 43.5923 71.1559 43.919C71.5773 44.241 72.0934 44.402 72.7042 44.402C73.3387 44.402 73.869 44.2339 74.2951 43.8977C74.7212 43.5568 75.0432 43.0952 75.261 42.5128C75.4835 41.9304 75.5948 41.2746 75.5948 40.5455C75.5948 39.8258 75.4859 39.1795 75.2681 38.6065C75.055 38.0336 74.7331 37.5814 74.3022 37.25C73.8761 36.9186 73.3434 36.7528 72.7042 36.7528C72.0887 36.7528 71.5678 36.9115 71.1417 37.2287C70.7203 37.5459 70.4007 37.9886 70.1829 38.5568C69.9651 39.125 69.8562 39.7879 69.8562 40.5455ZM93.5156 35.2756C93.4399 34.6032 93.1274 34.0824 92.5781 33.7131C92.0289 33.339 91.3376 33.152 90.5043 33.152C89.9077 33.152 89.3916 33.2467 88.956 33.4361C88.5204 33.6207 88.1818 33.8764 87.9403 34.2031C87.7036 34.5251 87.5852 34.892 87.5852 35.304C87.5852 35.6496 87.6657 35.9479 87.8267 36.1989C87.9924 36.4498 88.2079 36.6605 88.473 36.831C88.7429 36.9967 89.0317 37.1364 89.3395 37.25C89.6473 37.3589 89.9432 37.4489 90.2273 37.5199L91.6477 37.8892C92.1117 38.0028 92.5876 38.1567 93.0753 38.3509C93.563 38.545 94.0152 38.8007 94.4318 39.1179C94.8485 39.4351 95.1847 39.8281 95.4403 40.2969C95.7008 40.7656 95.831 41.3267 95.831 41.9801C95.831 42.804 95.6179 43.5355 95.1918 44.1747C94.7704 44.8139 94.1572 45.3182 93.3523 45.6875C92.5521 46.0568 91.5838 46.2415 90.4474 46.2415C89.3584 46.2415 88.4162 46.0687 87.6207 45.723C86.8253 45.3774 86.2027 44.8873 85.7528 44.2528C85.303 43.6136 85.0545 42.8561 85.0071 41.9801H87.2088C87.2514 42.5057 87.4219 42.9437 87.7202 43.294C88.0232 43.6397 88.4091 43.8977 88.8778 44.0682C89.3513 44.2339 89.8698 44.3168 90.4332 44.3168C91.0535 44.3168 91.6051 44.2197 92.0881 44.0256C92.5758 43.8267 92.9593 43.5521 93.2386 43.2017C93.518 42.8466 93.6577 42.4323 93.6577 41.9588C93.6577 41.5279 93.5346 41.1752 93.2884 40.9006C93.0469 40.6259 92.7178 40.3987 92.3011 40.2188C91.8892 40.0388 91.4228 39.8802 90.902 39.7429L89.1832 39.2741C88.0185 38.9569 87.0952 38.4905 86.4134 37.875C85.7363 37.2595 85.3977 36.4451 85.3977 35.4318C85.3977 34.5937 85.625 33.8622 86.0795 33.2372C86.5341 32.6122 87.1496 32.1269 87.9261 31.7812C88.7027 31.4309 89.5786 31.2557 90.554 31.2557C91.5388 31.2557 92.4077 31.4285 93.1605 31.7741C93.9181 32.1198 94.5147 32.5956 94.9503 33.2017C95.3859 33.803 95.6132 34.4943 95.6321 35.2756H93.5156ZM103.375 35.0909V36.7955H97.4165V35.0909H103.375ZM99.0146 32.4773H101.138V42.7969C101.138 43.2088 101.2 43.5189 101.323 43.7273C101.446 43.9309 101.605 44.0705 101.799 44.1463C101.998 44.2173 102.213 44.2528 102.445 44.2528C102.615 44.2528 102.765 44.241 102.892 44.2173C103.02 44.1937 103.12 44.1747 103.191 44.1605L103.574 45.9148C103.451 45.9621 103.276 46.0095 103.049 46.0568C102.821 46.1089 102.537 46.1373 102.196 46.142C101.638 46.1515 101.117 46.0521 100.634 45.8438C100.151 45.6354 99.7603 45.3134 99.462 44.8778C99.1637 44.4422 99.0146 43.8954 99.0146 43.2372V32.4773ZM110.202 46.2202C109.18 46.2202 108.287 45.9858 107.525 45.517C106.763 45.0483 106.171 44.3925 105.749 43.5497C105.328 42.7069 105.117 41.7221 105.117 40.5952C105.117 39.4635 105.328 38.474 105.749 37.6264C106.171 36.7789 106.763 36.1207 107.525 35.652C108.287 35.1832 109.18 34.9489 110.202 34.9489C111.225 34.9489 112.118 35.1832 112.88 35.652C113.642 36.1207 114.234 36.7789 114.656 37.6264C115.077 38.474 115.288 39.4635 115.288 40.5952C115.288 41.7221 115.077 42.7069 114.656 43.5497C114.234 44.3925 113.642 45.0483 112.88 45.517C112.118 45.9858 111.225 46.2202 110.202 46.2202ZM110.21 44.4375C110.872 44.4375 111.422 44.2623 111.857 43.9119C112.293 43.5616 112.615 43.0952 112.823 42.5128C113.036 41.9304 113.143 41.2888 113.143 40.5881C113.143 39.892 113.036 39.2528 112.823 38.6705C112.615 38.0833 112.293 37.6122 111.857 37.2571C111.422 36.902 110.872 36.7244 110.21 36.7244C109.542 36.7244 108.988 36.902 108.548 37.2571C108.112 37.6122 107.788 38.0833 107.575 38.6705C107.366 39.2528 107.262 39.892 107.262 40.5881C107.262 41.2888 107.366 41.9304 107.575 42.5128C107.788 43.0952 108.112 43.5616 108.548 43.9119C108.988 44.2623 109.542 44.4375 110.21 44.4375ZM117.658 46V35.0909H119.711V36.8239H119.824C120.023 36.2367 120.373 35.7751 120.875 35.4389C121.382 35.098 121.955 34.9276 122.594 34.9276C122.727 34.9276 122.883 34.9323 123.063 34.9418C123.248 34.9512 123.392 34.9631 123.496 34.9773V37.0085C123.411 36.9848 123.259 36.9588 123.042 36.9304C122.824 36.8973 122.606 36.8807 122.388 36.8807C121.886 36.8807 121.439 36.9872 121.046 37.2003C120.658 37.4086 120.35 37.6998 120.123 38.0739C119.895 38.4432 119.782 38.8646 119.782 39.3381V46H117.658ZM129.645 46.2202C128.57 46.2202 127.644 45.9905 126.868 45.5312C126.096 45.0672 125.5 44.4162 125.078 43.5781C124.661 42.7353 124.453 41.7481 124.453 40.6165C124.453 39.4991 124.661 38.5142 125.078 37.6619C125.5 36.8097 126.087 36.1444 126.839 35.6662C127.597 35.188 128.482 34.9489 129.496 34.9489C130.111 34.9489 130.708 35.0507 131.286 35.2543C131.863 35.4579 132.382 35.7775 132.841 36.2131C133.3 36.6487 133.662 37.2145 133.928 37.9105C134.193 38.6018 134.325 39.4422 134.325 40.4318V41.1847H125.653V39.5938H132.244C132.244 39.035 132.131 38.5402 131.903 38.1094C131.676 37.6738 131.357 37.3305 130.945 37.0795C130.537 36.8286 130.059 36.7031 129.51 36.7031C128.913 36.7031 128.393 36.8499 127.947 37.1435C127.507 37.4323 127.166 37.8111 126.925 38.2798C126.688 38.7438 126.57 39.2481 126.57 39.7926V41.0355C126.57 41.7647 126.697 42.3849 126.953 42.8963C127.214 43.4077 127.576 43.7983 128.04 44.0682C128.504 44.3333 129.046 44.4659 129.666 44.4659C130.069 44.4659 130.436 44.4091 130.767 44.2955C131.098 44.1771 131.385 44.0019 131.626 43.7699C131.868 43.5379 132.053 43.2514 132.18 42.9105L134.19 43.2727C134.029 43.8646 133.741 44.383 133.324 44.8281C132.912 45.2685 132.393 45.6117 131.768 45.858C131.148 46.0994 130.44 46.2202 129.645 46.2202Z" fill="white"/>
</svg>
