<svg width="160" height="60" viewBox="0 0 160 60" fill="none" xmlns="http://www.w3.org/2000/svg">
<rect x="0.5" y="0.5" width="159" height="59" rx="7.5" fill="#157EFC"/>
<rect x="0.5" y="0.5" width="159" height="59" rx="7.5" stroke="#157EFC"/>
<path d="M13.1603 17.1608L27.7162 25.3357L24.5963 28.3831L13.1603 17.1608ZM10.1446 16.5L23.506 29.5L10.1457 42.5C9.46583 42.2064 9 41.5532 9 40.7938C9 40.7688 9 40.7439 9.00111 40.7201V40.7233V18.2778C9 18.2572 9 18.2323 9 18.2073C9 17.4479 9.46583 16.7947 10.1335 16.5054L10.1457 16.5011L10.1446 16.5ZM32.2403 27.9768C32.6994 28.3094 32.9933 28.8381 32.9933 29.4328C32.9933 29.4567 32.9933 29.4794 32.9922 29.5033V29.5C32.9967 29.5466 33 29.6018 33 29.6571C33 30.2161 32.7227 30.7123 32.2946 31.0199L32.2902 31.0232L29.1702 32.7489L25.7919 29.5L29.1714 26.1991L32.2403 27.9768ZM13.1603 41.8392L24.5974 30.6169L27.7173 33.6643L13.1603 41.8392Z" fill="white"/>
<path d="M45.7209 19.0249C45.6522 18.8094 45.5599 18.6165 45.4439 18.446C45.3303 18.2732 45.1941 18.1264 45.0355 18.0057C44.8769 17.8826 44.6958 17.7891 44.4922 17.7251C44.291 17.6612 44.0696 17.6293 43.8281 17.6293C43.4186 17.6293 43.0492 17.7346 42.7202 17.9453C42.3911 18.156 42.1307 18.465 41.9389 18.8722C41.7495 19.277 41.6548 19.773 41.6548 20.3601C41.6548 20.9496 41.7507 21.4479 41.9425 21.8551C42.1342 22.2623 42.397 22.5713 42.7308 22.782C43.0646 22.9927 43.4446 23.098 43.8707 23.098C44.2661 23.098 44.6106 23.0175 44.9041 22.8565C45.2 22.6955 45.4285 22.4683 45.5895 22.1747C45.7528 21.8788 45.8345 21.5308 45.8345 21.1307L46.1186 21.1839H44.0376V20.2784H46.8963V21.1058C46.8963 21.7166 46.7661 22.2469 46.5057 22.6967C46.2476 23.1442 45.8902 23.4898 45.4332 23.7337C44.9787 23.9775 44.4579 24.0994 43.8707 24.0994C43.2126 24.0994 42.6349 23.9479 42.1378 23.6449C41.643 23.3419 41.2571 22.9122 40.9801 22.3558C40.7031 21.7971 40.5646 21.1342 40.5646 20.3672C40.5646 19.7872 40.6451 19.2663 40.8061 18.8047C40.9671 18.343 41.1932 17.9512 41.4844 17.6293C41.7779 17.3049 42.1224 17.0575 42.5178 16.8871C42.9155 16.7143 43.3499 16.6278 43.821 16.6278C44.214 16.6278 44.5798 16.6858 44.9183 16.8018C45.2592 16.9179 45.5623 17.0824 45.8274 17.2955C46.0949 17.5085 46.3163 17.7618 46.4915 18.0554C46.6667 18.3466 46.785 18.6697 46.8466 19.0249H45.7209ZM48.2892 24V16.7273H52.8489V17.6719H49.3865V19.8878H52.611V20.8288H49.3865V23.0554H52.8915V24H48.2892ZM53.956 17.6719V16.7273H59.5845V17.6719H57.3153V24H56.2216V17.6719H53.956ZM64.5721 16.7273V24H63.4748V16.7273H64.5721ZM65.8114 17.6719V16.7273H71.44V17.6719H69.1708V24H68.0771V17.6719H65.8114ZM81.6477 20.3636C81.6477 21.1402 81.5057 21.8078 81.2216 22.3665C80.9375 22.9228 80.5481 23.3513 80.0533 23.652C79.5608 23.9503 79.0009 24.0994 78.3736 24.0994C77.7438 24.0994 77.1816 23.9503 76.6868 23.652C76.1944 23.3513 75.8061 22.9216 75.522 22.3629C75.2379 21.8042 75.0959 21.1378 75.0959 20.3636C75.0959 19.5871 75.2379 18.9207 75.522 18.3643C75.8061 17.8056 76.1944 17.3771 76.6868 17.0788C77.1816 16.7782 77.7438 16.6278 78.3736 16.6278C79.0009 16.6278 79.5608 16.7782 80.0533 17.0788C80.5481 17.3771 80.9375 17.8056 81.2216 18.3643C81.5057 18.9207 81.6477 19.5871 81.6477 20.3636ZM80.5611 20.3636C80.5611 19.7718 80.4652 19.2734 80.2734 18.8686C80.084 18.4614 79.8236 18.1536 79.4922 17.9453C79.1631 17.7346 78.7902 17.6293 78.3736 17.6293C77.9545 17.6293 77.5805 17.7346 77.2514 17.9453C76.9223 18.1536 76.6619 18.4614 76.4702 18.8686C76.2808 19.2734 76.1861 19.7718 76.1861 20.3636C76.1861 20.9555 76.2808 21.455 76.4702 21.8622C76.6619 22.267 76.9223 22.5748 77.2514 22.7855C77.5805 22.9938 77.9545 23.098 78.3736 23.098C78.7902 23.098 79.1631 22.9938 79.4922 22.7855C79.8236 22.5748 80.084 22.267 80.2734 21.8622C80.4652 21.455 80.5611 20.9555 80.5611 20.3636ZM88.8858 16.7273V24H87.8773L84.1806 18.6662H84.1131V24H83.0158V16.7273H84.0314L87.7317 22.0682H87.7992V16.7273H88.8858ZM51.4418 36.0497C51.3045 35.6188 51.1198 35.233 50.8878 34.892C50.6605 34.5464 50.3883 34.2528 50.071 34.0114C49.7538 33.7652 49.3916 33.5781 48.9844 33.4503C48.5819 33.3224 48.1392 33.2585 47.6562 33.2585C46.8371 33.2585 46.0985 33.4692 45.4403 33.8906C44.7822 34.312 44.2614 34.9299 43.8778 35.7443C43.4991 36.554 43.3097 37.5459 43.3097 38.7202C43.3097 39.8991 43.5014 40.8958 43.8849 41.7102C44.2685 42.5246 44.794 43.1425 45.4616 43.5639C46.1293 43.9853 46.8892 44.196 47.7415 44.196C48.5322 44.196 49.2211 44.035 49.8082 43.7131C50.4001 43.3911 50.857 42.9366 51.179 42.3494C51.5057 41.7576 51.669 41.0616 51.669 40.2614L52.2372 40.3679H48.0753V38.5568H53.7926V40.2116C53.7926 41.4332 53.5322 42.4938 53.0114 43.3935C52.4953 44.2884 51.7803 44.9796 50.8665 45.4673C49.9574 45.955 48.9157 46.1989 47.7415 46.1989C46.4252 46.1989 45.2699 45.8958 44.2756 45.2898C43.286 44.6837 42.5142 43.8243 41.9602 42.7116C41.4063 41.5942 41.1293 40.2685 41.1293 38.7344C41.1293 37.5743 41.2902 36.5327 41.6122 35.6094C41.9342 34.6861 42.3864 33.9025 42.9688 33.2585C43.5559 32.6098 44.2448 32.1151 45.0355 31.7741C45.831 31.4285 46.6998 31.2557 47.642 31.2557C48.428 31.2557 49.1596 31.3717 49.8366 31.6037C50.5185 31.8357 51.1245 32.1648 51.6548 32.5909C52.1899 33.017 52.6326 33.5237 52.983 34.1108C53.3333 34.6932 53.5701 35.3395 53.6932 36.0497H51.4418ZM61.0032 46.2202C59.9805 46.2202 59.0879 45.9858 58.3256 45.517C57.5633 45.0483 56.9715 44.3925 56.5501 43.5497C56.1287 42.7069 55.918 41.7221 55.918 40.5952C55.918 39.4635 56.1287 38.474 56.5501 37.6264C56.9715 36.7789 57.5633 36.1207 58.3256 35.652C59.0879 35.1832 59.9805 34.9489 61.0032 34.9489C62.0259 34.9489 62.9184 35.1832 63.6808 35.652C64.4431 36.1207 65.0349 36.7789 65.4563 37.6264C65.8777 38.474 66.0884 39.4635 66.0884 40.5952C66.0884 41.7221 65.8777 42.7069 65.4563 43.5497C65.0349 44.3925 64.4431 45.0483 63.6808 45.517C62.9184 45.9858 62.0259 46.2202 61.0032 46.2202ZM61.0103 44.4375C61.6732 44.4375 62.2224 44.2623 62.658 43.9119C63.0936 43.5616 63.4156 43.0952 63.6239 42.5128C63.837 41.9304 63.9435 41.2888 63.9435 40.5881C63.9435 39.892 63.837 39.2528 63.6239 38.6705C63.4156 38.0833 63.0936 37.6122 62.658 37.2571C62.2224 36.902 61.6732 36.7244 61.0103 36.7244C60.3427 36.7244 59.7887 36.902 59.3484 37.2571C58.9128 37.6122 58.5884 38.0833 58.3754 38.6705C58.167 39.2528 58.0629 39.892 58.0629 40.5881C58.0629 41.2888 58.167 41.9304 58.3754 42.5128C58.5884 43.0952 58.9128 43.5616 59.3484 43.9119C59.7887 44.2623 60.3427 44.4375 61.0103 44.4375ZM73.054 46.2202C72.0313 46.2202 71.1387 45.9858 70.3764 45.517C69.6141 45.0483 69.0223 44.3925 68.6009 43.5497C68.1795 42.7069 67.9688 41.7221 67.9688 40.5952C67.9688 39.4635 68.1795 38.474 68.6009 37.6264C69.0223 36.7789 69.6141 36.1207 70.3764 35.652C71.1387 35.1832 72.0313 34.9489 73.054 34.9489C74.0767 34.9489 74.9692 35.1832 75.7315 35.652C76.4938 36.1207 77.0857 36.7789 77.5071 37.6264C77.9285 38.474 78.1392 39.4635 78.1392 40.5952C78.1392 41.7221 77.9285 42.7069 77.5071 43.5497C77.0857 44.3925 76.4938 45.0483 75.7315 45.517C74.9692 45.9858 74.0767 46.2202 73.054 46.2202ZM73.0611 44.4375C73.724 44.4375 74.2732 44.2623 74.7088 43.9119C75.1444 43.5616 75.4664 43.0952 75.6747 42.5128C75.8878 41.9304 75.9943 41.2888 75.9943 40.5881C75.9943 39.892 75.8878 39.2528 75.6747 38.6705C75.4664 38.0833 75.1444 37.6122 74.7088 37.2571C74.2732 36.902 73.724 36.7244 73.0611 36.7244C72.3935 36.7244 71.8395 36.902 71.3991 37.2571C70.9635 37.6122 70.6392 38.0833 70.4261 38.6705C70.2178 39.2528 70.1136 39.892 70.1136 40.5881C70.1136 41.2888 70.2178 41.9304 70.4261 42.5128C70.6392 43.0952 70.9635 43.5616 71.3991 43.9119C71.8395 44.2623 72.3935 44.4375 73.0611 44.4375ZM85.0835 50.3182C84.217 50.3182 83.4712 50.2045 82.8462 49.9773C82.226 49.75 81.7193 49.4493 81.3263 49.0753C80.9334 48.7012 80.6398 48.2917 80.4457 47.8466L82.271 47.0938C82.3988 47.3021 82.5692 47.5223 82.7823 47.7543C83.0001 47.991 83.2937 48.1922 83.663 48.358C84.0371 48.5237 84.5176 48.6065 85.1048 48.6065C85.9097 48.6065 86.5749 48.41 87.1005 48.017C87.6261 47.6288 87.8888 47.0085 87.8888 46.1562V44.0114H87.7539C87.6261 44.2434 87.4414 44.5014 87.1999 44.7855C86.9632 45.0696 86.6365 45.3158 86.2198 45.5241C85.8031 45.7325 85.261 45.8366 84.5934 45.8366C83.7317 45.8366 82.9551 45.6354 82.2638 45.233C81.5773 44.8258 81.0328 44.2268 80.6303 43.4361C80.2326 42.6406 80.0337 41.6629 80.0337 40.5028C80.0337 39.3428 80.2302 38.3485 80.6232 37.5199C81.021 36.6913 81.5655 36.0568 82.2567 35.6165C82.948 35.1714 83.7317 34.9489 84.6076 34.9489C85.2847 34.9489 85.8316 35.0625 86.2482 35.2898C86.6649 35.5123 86.9892 35.7727 87.2212 36.071C87.458 36.3693 87.6403 36.6321 87.7681 36.8594H87.9244V35.0909H90.0053V46.2415C90.0053 47.179 89.7875 47.9484 89.3519 48.5497C88.9163 49.151 88.3268 49.5961 87.5835 49.8849C86.8448 50.1738 86.0115 50.3182 85.0835 50.3182ZM85.0621 44.0753C85.6729 44.0753 86.189 43.9332 86.6104 43.6491C87.0366 43.3603 87.3585 42.9484 87.5763 42.4134C87.7989 41.8736 87.9102 41.2273 87.9102 40.4744C87.9102 39.7405 87.8013 39.0942 87.5835 38.5355C87.3656 37.9768 87.046 37.5412 86.6246 37.2287C86.2032 36.9115 85.6824 36.7528 85.0621 36.7528C84.4229 36.7528 83.8903 36.9186 83.4641 37.25C83.038 37.5767 82.716 38.0218 82.4982 38.5852C82.2852 39.1487 82.1786 39.7784 82.1786 40.4744C82.1786 41.1894 82.2875 41.8168 82.5053 42.3565C82.7231 42.8963 83.0451 43.3177 83.4712 43.6207C83.9021 43.9238 84.4324 44.0753 85.0621 44.0753ZM94.9769 31.4545V46H92.8533V31.4545H94.9769ZM102.536 46.2202C101.461 46.2202 100.535 45.9905 99.7585 45.5312C98.9867 45.0672 98.3902 44.4162 97.9688 43.5781C97.5521 42.7353 97.3438 41.7481 97.3438 40.6165C97.3438 39.4991 97.5521 38.5142 97.9688 37.6619C98.3902 36.8097 98.9773 36.1444 99.7301 35.6662C100.488 35.188 101.373 34.9489 102.386 34.9489C103.002 34.9489 103.598 35.0507 104.176 35.2543C104.754 35.4579 105.272 35.7775 105.732 36.2131C106.191 36.6487 106.553 37.2145 106.818 37.9105C107.083 38.6018 107.216 39.4422 107.216 40.4318V41.1847H98.544V39.5938H105.135C105.135 39.035 105.021 38.5402 104.794 38.1094C104.567 37.6738 104.247 37.3305 103.835 37.0795C103.428 36.8286 102.95 36.7031 102.401 36.7031C101.804 36.7031 101.283 36.8499 100.838 37.1435C100.398 37.4323 100.057 37.8111 99.8153 38.2798C99.5786 38.7438 99.4602 39.2481 99.4602 39.7926V41.0355C99.4602 41.7647 99.5881 42.3849 99.8438 42.8963C100.104 43.4077 100.466 43.7983 100.93 44.0682C101.394 44.3333 101.937 44.4659 102.557 44.4659C102.959 44.4659 103.326 44.4091 103.658 44.2955C103.989 44.1771 104.276 44.0019 104.517 43.7699C104.759 43.5379 104.943 43.2514 105.071 42.9105L107.081 43.2727C106.92 43.8646 106.631 44.383 106.214 44.8281C105.803 45.2685 105.284 45.6117 104.659 45.858C104.039 46.0994 103.331 46.2202 102.536 46.2202ZM115.036 46V31.4545H120.22C121.352 31.4545 122.289 31.6605 123.033 32.0724C123.776 32.4844 124.332 33.0478 124.702 33.7628C125.071 34.473 125.256 35.2732 125.256 36.1634C125.256 37.0582 125.069 37.8632 124.695 38.5781C124.325 39.2884 123.767 39.8518 123.018 40.2685C122.275 40.6804 121.34 40.8864 120.213 40.8864H116.648V39.0256H120.014C120.729 39.0256 121.309 38.9025 121.754 38.6562C122.199 38.4053 122.526 38.0644 122.734 37.6335C122.943 37.2027 123.047 36.7126 123.047 36.1634C123.047 35.6141 122.943 35.1264 122.734 34.7003C122.526 34.2741 122.197 33.9403 121.747 33.6989C121.302 33.4574 120.715 33.3366 119.986 33.3366H117.23V46H115.036ZM129.782 31.4545V46H127.658V31.4545H129.782ZM135.813 46.2415C135.122 46.2415 134.497 46.1136 133.938 45.858C133.379 45.5975 132.937 45.2211 132.61 44.7287C132.288 44.2363 132.127 43.6326 132.127 42.9176C132.127 42.3021 132.246 41.7955 132.482 41.3977C132.719 41 133.039 40.6851 133.441 40.4531C133.844 40.2211 134.293 40.0459 134.79 39.9276C135.288 39.8092 135.794 39.7192 136.31 39.6577C136.964 39.5819 137.494 39.5204 137.901 39.473C138.308 39.4209 138.604 39.3381 138.789 39.2244C138.974 39.1108 139.066 38.9261 139.066 38.6705V38.6207C139.066 38.0005 138.891 37.5199 138.54 37.179C138.195 36.8381 137.679 36.6676 136.992 36.6676C136.277 36.6676 135.714 36.8262 135.302 37.1435C134.895 37.456 134.613 37.804 134.457 38.1875L132.461 37.733C132.698 37.0701 133.043 36.535 133.498 36.1278C133.957 35.7159 134.485 35.4176 135.082 35.233C135.678 35.0436 136.306 34.9489 136.964 34.9489C137.399 34.9489 137.861 35.0009 138.349 35.1051C138.841 35.2045 139.3 35.3892 139.727 35.6591C140.157 35.929 140.51 36.3149 140.785 36.8168C141.059 37.3139 141.197 37.9602 141.197 38.7557V46H139.123V44.5085H139.038C138.9 44.7831 138.694 45.053 138.42 45.3182C138.145 45.5833 137.792 45.8035 137.362 45.9787C136.931 46.1539 136.415 46.2415 135.813 46.2415ZM136.275 44.5369C136.862 44.5369 137.364 44.4209 137.781 44.1889C138.202 43.9569 138.522 43.6539 138.739 43.2798C138.962 42.901 139.073 42.4962 139.073 42.0653V40.6591C138.997 40.7348 138.851 40.8059 138.633 40.8722C138.42 40.9337 138.176 40.9882 137.901 41.0355C137.627 41.0781 137.359 41.1184 137.099 41.1562C136.838 41.1894 136.621 41.2178 136.445 41.2415C136.033 41.2936 135.657 41.3812 135.316 41.5043C134.98 41.6274 134.71 41.8049 134.506 42.0369C134.308 42.2642 134.208 42.5672 134.208 42.946C134.208 43.4716 134.402 43.8693 134.79 44.1392C135.179 44.4044 135.674 44.5369 136.275 44.5369ZM144.977 50.0909C144.66 50.0909 144.371 50.0649 144.11 50.0128C143.85 49.9654 143.656 49.9134 143.528 49.8565L144.039 48.1165C144.428 48.2206 144.773 48.2656 145.076 48.2514C145.379 48.2372 145.647 48.1236 145.879 47.9105C146.116 47.6974 146.324 47.3494 146.504 46.8665L146.767 46.142L142.775 35.0909H145.048L147.811 43.5568H147.924L150.687 35.0909H152.967L148.471 47.456C148.263 48.0241 147.998 48.5047 147.676 48.8977C147.354 49.2955 146.97 49.5938 146.525 49.7926C146.08 49.9915 145.564 50.0909 144.977 50.0909Z" fill="white"/>
</svg>
