<svg width="54" height="54" viewBox="0 0 54 54" fill="none" xmlns="http://www.w3.org/2000/svg">
<path d="M19.7999 25.2C14.8294 25.2 10.7999 21.1705 10.7999 16.2V9C10.7999 8.00604 11.606 7.2 12.5999 7.2H14.3999C15.3939 7.2 16.1999 6.39396 16.1999 5.4C16.1999 4.40605 15.3939 3.60001 14.3999 3.60001H12.5999C9.61771 3.60001 7.19995 6.01776 7.19995 9V16.2C7.20463 20.3278 9.23683 24.1902 12.6359 26.532C15.8871 29.3983 17.825 33.4692 17.9999 37.8C17.9999 44.7588 23.6411 50.4 30.5999 50.4C37.5587 50.4 43.1999 44.7588 43.1999 37.8V35.748C47.0501 34.754 49.3653 30.8268 48.3713 26.9766C47.377 23.1264 43.4501 20.8112 39.5999 21.8052C35.7497 22.7995 33.4346 26.7264 34.4285 30.5766C35.0834 33.1128 37.0637 35.0931 39.5999 35.748V37.8C39.5999 42.7705 35.5705 46.8 30.5999 46.8C25.6294 46.8 21.5999 42.7705 21.5999 37.8C21.7839 33.4638 23.7355 29.3918 26.9999 26.532C30.3854 24.1819 32.4035 20.3213 32.3999 16.2V9C32.3999 6.01776 29.9822 3.60001 26.9999 3.60001H25.1999C24.206 3.60001 23.3999 4.40605 23.3999 5.4C23.3999 6.39396 24.206 7.2 25.1999 7.2H26.9999C27.9939 7.2 28.7999 8.00604 28.7999 9V16.2C28.7999 21.1705 24.7705 25.2 19.7999 25.2ZM41.3999 32.4C39.4117 32.4 37.7999 30.7883 37.7999 28.8C37.7999 26.8117 39.4117 25.2 41.3999 25.2C43.3882 25.2 44.9999 26.8117 44.9999 28.8C44.9999 30.7883 43.3882 32.4 41.3999 32.4Z" fill="#157EFC"/>
</svg>
