<svg width="54" height="54" viewBox="0 0 54 54" fill="none" xmlns="http://www.w3.org/2000/svg">
<g clip-path="url(#clip0_78_1429)">
<path d="M12.6682 14.6616C13.1459 16.0589 14.0467 17.2093 15.1718 17.9983C16.2974 18.7884 17.6514 19.2286 19.0581 19.2295C19.7854 19.2295 20.5248 19.1107 21.2441 18.8648L21.2465 18.8639C22.6429 18.3864 23.7929 17.4859 24.582 16.3603C25.372 15.2356 25.8126 13.8816 25.8131 12.4744C25.8131 11.7476 25.6943 11.0066 25.4472 10.2856C24.97 8.89006 24.0695 7.7396 22.9448 6.94964C21.8197 6.15968 20.4661 5.71861 19.0585 5.71861C18.3321 5.71861 17.5911 5.83663 16.8685 6.08501C15.4725 6.56257 14.3225 7.46307 13.5342 8.58789C12.7438 9.71261 12.3032 11.0665 12.3027 12.4737C12.3027 13.1989 12.4211 13.9374 12.6666 14.6567L12.6682 14.6616ZM16.3177 10.5431C16.7131 9.98324 17.2714 9.54375 17.9724 9.30371L17.8258 9.35359L17.9745 9.30202C18.3363 9.1782 18.6989 9.12093 19.0585 9.12093C19.7509 9.12009 20.4279 9.33946 20.9882 9.73402C21.5484 10.1294 21.9875 10.6877 22.2284 11.388V11.3887C22.3531 11.7517 22.4106 12.1156 22.4106 12.4744C22.4111 13.1672 22.1918 13.8442 21.7981 14.4049C21.4027 14.9657 20.8444 15.4042 20.1434 15.6451H20.1458C19.7811 15.7689 19.4165 15.8262 19.058 15.8262C18.3649 15.8271 17.6879 15.6078 17.1275 15.2141C16.5685 14.8204 16.1302 14.2638 15.889 13.5644L15.8873 13.5602C15.7626 13.1955 15.7049 12.8325 15.7049 12.4737C15.7047 11.7809 15.924 11.1038 16.3177 10.5431Z" fill="#157EFC"/>
<path d="M12.6678 14.6616C12.6675 14.6599 12.6675 14.6583 12.6666 14.6566L12.6221 14.5271L12.6678 14.6616Z" fill="#157EFC"/>
<path d="M33.0085 18.4828L32.7783 18.4039L33.0102 18.4836C33.7308 18.7303 34.4705 18.8483 35.1965 18.8483C36.6041 18.8475 37.9577 18.4072 39.0833 17.6173C40.2084 16.8282 41.1093 15.6776 41.5869 14.2813C41.834 13.5595 41.9524 12.8193 41.9524 12.0925C41.952 10.6854 41.5114 9.33134 40.721 8.20589C39.9323 7.08117 38.7814 6.17983 37.3846 5.70301L37.3853 5.70375C36.6652 5.45621 35.9247 5.33661 35.1965 5.33661C33.7894 5.33745 32.4354 5.77852 31.3102 6.56848C30.1855 7.3576 29.2847 8.50805 28.8079 9.9053C28.5607 10.6256 28.4419 11.3665 28.4419 12.0934C28.4423 13.5005 28.883 14.8545 29.6729 15.9791C30.462 17.1038 31.6121 18.0051 33.0085 18.4828ZM32.0266 11.0075C32.2675 10.3056 32.7064 9.74731 33.2668 9.35191C33.827 8.95809 34.5036 8.73882 35.1964 8.73882C35.554 8.73882 35.9178 8.79704 36.2821 8.92149L36.283 8.92234C36.9841 9.16238 37.5418 9.60103 37.9374 10.1617C38.3311 10.7224 38.5503 11.3994 38.5499 12.0922C38.5499 12.4511 38.4921 12.8149 38.368 13.1787C38.1271 13.8791 37.6877 14.4372 37.1274 14.8327C36.5671 15.2265 35.8896 15.4457 35.1964 15.4457C34.8375 15.4457 34.4733 15.3875 34.1099 15.2638L34.34 15.3426L34.1116 15.2646C33.4105 15.0229 32.8523 14.5835 32.4569 14.0235C32.0632 13.4628 31.8439 12.7858 31.8443 12.093C31.8443 11.7343 31.902 11.3705 32.0266 11.0075Z" fill="#157EFC"/>
<path d="M52.7686 21.346C51.9799 20.2213 50.829 19.3201 49.4322 18.8433H49.4331C48.7128 18.5966 47.9723 18.4769 47.2443 18.4777C45.8371 18.4777 44.4831 18.9179 43.358 19.7087C42.2332 20.4978 41.3324 21.6491 40.8556 23.0455C40.6085 23.7658 40.4897 24.5067 40.4897 25.2344C40.4901 26.6408 40.9308 27.9948 41.7208 29.1195C42.51 30.2451 43.66 31.1454 45.0563 31.6231L45.058 31.624C45.7786 31.8699 46.5183 31.9887 47.2444 31.9887C48.652 31.9878 50.0056 31.5476 51.1311 30.7575C52.2563 29.9684 53.1571 28.818 53.6347 27.4207C53.8819 26.6997 54.0003 25.9595 54.0003 25.2327C53.9997 23.8256 53.559 22.4716 52.7686 21.346ZM50.4157 26.3193C50.1748 27.0195 49.7355 27.5778 49.1751 27.9732C48.6148 28.3669 47.9373 28.5861 47.2442 28.5853C46.8853 28.5853 46.5211 28.528 46.1576 28.4042H46.1593C45.4583 28.1633 44.9 27.7239 44.5046 27.1633C44.1109 26.6034 43.8916 25.9264 43.8921 25.2344C43.8921 24.8755 43.9498 24.5118 44.0743 24.1479C44.3152 23.446 44.7542 22.8878 45.3145 22.4924C45.8748 22.0988 46.5514 21.8794 47.2442 21.8802C47.6017 21.8802 47.9656 21.9376 48.3298 22.0622L48.3306 22.063C49.0317 22.303 49.5895 22.7424 49.9849 23.3024C50.3786 23.8622 50.5979 24.5401 50.5976 25.2329C50.5977 25.5916 50.5399 25.9554 50.4157 26.3193Z" fill="#157EFC"/>
<path d="M13.145 27.4207C13.3921 26.6997 13.5105 25.9595 13.5105 25.2327C13.5101 23.8255 13.0694 22.4715 12.279 21.3459C11.4903 20.2212 10.3394 19.32 8.94259 18.8431L8.94006 18.8423C8.22118 18.5965 7.48143 18.4767 6.75454 18.4776C5.34737 18.4776 3.99336 18.9178 2.86822 19.7086C1.74361 20.4978 0.842695 21.6491 0.365871 23.0455V23.0448C0.118758 23.7658 0 24.5067 0 25.2344C0.000421875 26.6408 0.44107 27.9948 1.23103 29.1195C2.02025 30.2451 3.17029 31.1454 4.56659 31.6231L4.56827 31.624C5.28884 31.8699 6.02859 31.9887 6.75464 31.9887C8.16223 31.9878 9.51581 31.5476 10.6414 30.7575C11.7665 29.9684 12.6674 28.818 13.145 27.4207ZM9.92609 26.3193C9.68519 27.0195 9.24571 27.5777 8.68546 27.9732C8.12521 28.3669 7.44778 28.5861 6.75454 28.5853C6.39573 28.5853 6.03144 28.528 5.668 28.4042H5.66968C4.96863 28.1633 4.41039 27.7239 4.01498 27.1633C3.62116 26.6034 3.40189 25.9264 3.40242 25.2344C3.40242 24.8747 3.46011 24.5118 3.58467 24.1479L3.58594 24.1445C3.82725 23.4443 4.26537 22.8869 4.82477 22.4923C5.38513 22.0986 6.06171 21.8793 6.75443 21.8801C7.11207 21.8801 7.47584 21.9375 7.84013 22.062L8.16202 22.1726L7.84097 22.0629C8.54202 22.3029 9.09984 22.7423 9.49535 23.3023C9.88896 23.8621 10.1083 24.54 10.1079 25.2328C10.108 25.5916 10.0503 25.9554 9.92609 26.3193Z" fill="#157EFC"/>
<path d="M35.6984 24.7028C34.3992 23.666 32.992 22.8072 31.5126 22.1975C30.034 21.5893 28.4779 21.2305 26.8995 21.2305C24.7937 21.2322 22.7333 21.8651 20.8323 22.8877C17.9806 24.4269 15.4508 26.8458 13.583 29.6569C11.724 32.4686 10.5103 35.6876 10.5029 38.9123C10.5029 40.0835 10.6683 41.253 11.0345 42.382C11.4211 43.5757 11.9399 44.5948 12.5821 45.4406C13.5416 46.7131 14.7855 47.5621 16.0755 48.0389C17.3684 48.5198 18.6942 48.6627 19.9635 48.6635C21.3599 48.6627 22.703 48.489 23.9042 48.3287C25.1012 48.1659 26.1674 48.0213 26.8996 48.0248C27.6314 48.0214 28.698 48.166 29.8946 48.3287C31.0962 48.489 32.4394 48.6626 33.8358 48.6635C35.522 48.6619 37.3342 48.4101 38.9897 47.4366C39.8125 46.9515 40.5767 46.2861 41.2171 45.4406C41.8592 44.5949 42.378 43.5757 42.7648 42.3828C43.1311 41.2531 43.2963 40.0836 43.2963 38.9124C43.2946 36.7633 42.7468 34.6144 41.8394 32.5893C40.4718 29.5531 38.2938 26.7778 35.6984 24.7028ZM39.5282 41.3329C39.24 42.2217 38.887 42.8821 38.5065 43.3838C37.9321 44.1322 37.302 44.5584 36.5323 44.8516C35.7651 45.1398 34.8452 45.262 33.8356 45.2612C32.7271 45.262 31.5259 45.1158 30.3471 44.9572C29.1643 44.8002 28.015 44.6258 26.8994 44.6224C25.7839 44.6257 24.6346 44.8002 23.4518 44.9563C22.273 45.1157 21.0718 45.262 19.9633 45.2612C18.6114 45.2628 17.443 45.0443 16.5401 44.5068C16.0836 44.2353 15.6745 43.8848 15.2924 43.3838C14.9119 42.8821 14.5589 42.2218 14.2706 41.3329C14.0246 40.5736 13.905 39.7646 13.905 38.9123C13.9035 37.3523 14.3141 35.6502 15.0638 33.983C16.1823 31.4819 18.0629 29.0804 20.2219 27.3625C21.3001 26.502 22.4443 25.8108 23.5806 25.344C24.7178 24.8755 25.8417 24.6321 26.8992 24.633C28.3076 24.6313 29.841 25.0682 31.3541 25.8839C33.6235 27.1 35.811 29.1634 37.3802 31.5366C38.958 33.9073 39.9008 36.5738 39.8934 38.9122C39.8938 39.7646 39.7741 40.5736 39.5282 41.3329Z" fill="#157EFC"/>
</g>
<defs>
<clipPath id="clip0_78_1429">
<rect width="54" height="54" fill="white"/>
</clipPath>
</defs>
</svg>
