<svg width="54" height="54" viewBox="0 0 54 54" fill="none" xmlns="http://www.w3.org/2000/svg">
<path d="M16.7531 5.0625C15.1449 5.0625 13.6981 5.95825 12.9792 7.396L12.4585 8.4375H11.8125C9.95119 8.4375 8.4375 9.95119 8.4375 11.8125V18.5625H10.125V45.5625C10.125 47.4238 11.6387 48.9375 13.5 48.9375H40.5C42.3613 48.9375 43.875 47.4238 43.875 45.5625V18.5625H45.5625V11.8125C45.5625 9.95119 44.0488 8.4375 42.1875 8.4375H41.5415L41.0208 7.396C40.3036 5.95825 38.8568 5.0625 37.2469 5.0625H16.7531ZM16.7531 8.4375H37.2469C37.5693 8.4375 37.8583 8.61535 38.0017 8.90222L39.4585 11.8125H42.1875V15.1875H11.8125V11.8125H14.5415L15.9983 8.90222C16.1417 8.61535 16.4307 8.4375 16.7531 8.4375ZM13.5 18.5625H40.5V45.5625H13.5V18.5625ZM25.3125 23.625V30.375H18.5625V33.75H25.3125V40.5H28.6875V33.75H35.4375V30.375H28.6875V23.625H25.3125Z" fill="#157EFC"/>
</svg>
