<svg width="54" height="54" viewBox="0 0 54 54" fill="none" xmlns="http://www.w3.org/2000/svg">
<path d="M9.71418 2.15255C9.48913 2.26985 9.26408 2.49467 9.14667 2.72928C8.96076 3.10073 8.95097 3.29624 8.95097 7.49956V11.8886L7.61046 11.9473C6.57328 11.9766 6.12318 12.045 5.68287 12.2014C4.05861 12.7782 2.83551 14.0098 2.27778 15.613L2.05273 16.2679V31.957V47.6462L2.27778 48.2914C2.83551 49.914 4.08796 51.1653 5.70244 51.7224L6.35802 51.9473H27.0527H47.7475L48.403 51.7224C50.0175 51.1653 51.27 49.914 51.8277 48.2914L52.0527 47.6462V32.9346V18.2229L51.8277 17.568C51.27 15.9649 50.0469 14.7332 48.4226 14.1565C47.9823 14.0001 47.5322 13.9316 46.5048 13.9023L45.1545 13.8436V13.3647C45.1545 13.1007 45.086 12.7488 44.9979 12.5729C44.7827 12.1428 35.0175 2.3676 34.5674 2.133C34.2152 1.95704 33.8825 1.94727 22.1408 1.94727C10.3208 1.95704 10.0664 1.95704 9.71418 2.15255ZM32.4539 8.47708L32.4833 12.0646L32.8062 12.7195C33.178 13.4722 33.7064 13.9903 34.4793 14.352L35.0273 14.6061L38.6281 14.6354L42.2191 14.6648V17.1965V19.7381H35.1056H27.9823L26.6907 17.1672C25.9764 15.7498 25.2034 14.3324 24.9588 14.0098C24.2445 13.0616 23.1388 12.348 21.9451 12.0646C21.4461 11.9473 20.4285 11.9179 16.6124 11.9179H11.8864V8.39888V4.87982H22.1604H32.4246L32.4539 8.47708ZM37.767 9.3764L40.1154 11.7224H37.8942C36.0058 11.7224 35.6535 11.7029 35.5263 11.566C35.3893 11.439 35.3698 11.0871 35.3698 9.21999C35.3698 8.01765 35.3795 7.03035 35.3991 7.03035C35.4089 7.03035 36.4754 8.08607 37.767 9.3764ZM21.8179 15.1144C22.0332 15.2219 22.3169 15.437 22.4539 15.5836C22.5909 15.7205 23.4226 17.2747 24.313 19.0343C25.8296 22.0352 25.9471 22.2405 26.3189 22.4458L26.7103 22.6706H36.8962C48.3443 22.6706 47.6594 22.6315 48.4324 23.4038C49.2152 24.176 49.1662 23.3744 49.1662 35.8671C49.1662 48.3598 49.2152 47.5582 48.4324 48.3305C47.6398 49.132 49.5283 49.0636 27.0527 49.0636C4.5772 49.0636 6.46565 49.132 5.67309 48.3305C4.88052 47.5484 4.93923 48.829 4.93923 31.957C4.93923 15.0851 4.88052 16.3656 5.67309 15.5836C6.41673 14.8309 6.05469 14.8603 14.1858 14.8798C21.3972 14.8994 21.4265 14.8994 21.8179 15.1144ZM47.5518 16.9717C48.1682 17.177 48.7944 17.8026 48.9999 18.4184C49.0977 18.6824 49.1662 19.2004 49.1662 19.6012V20.305L48.5107 20.0509C47.9529 19.8554 47.6202 19.7967 46.5048 19.7576L45.1545 19.7088V18.262V16.8055H46.1134C46.7494 16.8055 47.2386 16.8642 47.5518 16.9717Z" fill="#157EFC"/>
<path d="M23.0842 26.2211C22.3579 26.6 22.2632 26.9579 22.2632 29.2632V31.2632H20.2632C17.9368 31.2632 17.5895 31.3579 17.2105 32.1053C17.0105 32.4947 17 32.7158 17 36C17 39.2842 17.0105 39.5053 17.2105 39.8947C17.5895 40.6421 17.9368 40.7368 20.2632 40.7368H22.2632V42.7368C22.2632 45.0632 22.3579 45.4105 23.1053 45.7895C23.4947 45.9895 23.7158 46 27 46C30.2842 46 30.5053 45.9895 30.8947 45.7895C31.6421 45.4105 31.7368 45.0632 31.7368 42.7368V40.7368H33.7368C36.0632 40.7368 36.4105 40.6421 36.7895 39.8947C36.9895 39.5053 37 39.2842 37 36C37 32.7158 36.9895 32.4947 36.7895 32.1053C36.4105 31.3579 36.0632 31.2632 33.7368 31.2632H31.7368V29.2632C31.7368 26.9368 31.6421 26.5895 30.8947 26.2105C30.5053 26.0105 30.2842 26 26.9789 26C23.6947 26.0105 23.4526 26.0211 23.0842 26.2211ZM28.5789 31.1579C28.5789 32.9579 28.6 33.2105 28.7895 33.5789C29.1684 34.3263 29.5158 34.4211 31.8421 34.4211H33.8421V36V37.5789H31.8421C29.5158 37.5789 29.1684 37.6737 28.7895 38.4211C28.6 38.7895 28.5789 39.0421 28.5789 40.8421V42.8421H27H25.4211V40.8421C25.4211 38.5158 25.3263 38.1684 24.5789 37.7895C24.2105 37.6 23.9579 37.5789 22.1579 37.5789H20.1579V36V34.4211H22.1579C24.4842 34.4211 24.8316 34.3263 25.2105 33.5789C25.4 33.2105 25.4211 32.9579 25.4211 31.1579V29.1579H27H28.5789V31.1579Z" fill="#157EFC"/>
</svg>
