<svg width="54" height="54" viewBox="0 0 54 54" fill="none" xmlns="http://www.w3.org/2000/svg">
<g clip-path="url(#clip0_78_1419)">
<path d="M52.92 20.3681C52.5986 20.2437 52.2468 20.2207 51.912 20.3021C51.5771 20.3836 51.2752 20.5656 51.0469 20.8238L40.5 32.6363V25.3125C40.5 23.9698 39.9666 22.6822 39.0172 21.7328C38.0678 20.7834 36.7802 20.25 35.4375 20.25H5.0625C3.71984 20.25 2.43217 20.7834 1.48277 21.7328C0.533369 22.6822 0 23.9698 0 25.3125L0 48.9375C0 50.2802 0.533369 51.5678 1.48277 52.5172C2.43217 53.4666 3.71984 54 5.0625 54H35.4375C36.7802 54 38.0678 53.4666 39.0172 52.5172C39.9666 51.5678 40.5 50.2802 40.5 48.9375V41.5631L51.0469 53.3756C51.2003 53.5649 51.3928 53.7187 51.6113 53.8265C51.8298 53.9342 52.069 53.9935 52.3125 54C52.5209 54.0018 52.7275 53.9616 52.92 53.8819C53.2371 53.7595 53.5099 53.5442 53.7026 53.2642C53.8954 52.9841 53.999 52.6524 54 52.3125V21.9375C53.999 21.5976 53.8954 21.2659 53.7026 20.9858C53.5099 20.7058 53.2371 20.4905 52.92 20.3681ZM37.125 48.9375C37.125 49.3851 36.9472 49.8143 36.6307 50.1307C36.3143 50.4472 35.8851 50.625 35.4375 50.625H5.0625C4.61495 50.625 4.18572 50.4472 3.86926 50.1307C3.55279 49.8143 3.375 49.3851 3.375 48.9375V25.3125C3.375 24.8649 3.55279 24.4357 3.86926 24.1193C4.18572 23.8028 4.61495 23.625 5.0625 23.625H35.4375C35.8851 23.625 36.3143 23.8028 36.6307 24.1193C36.9472 24.4357 37.125 24.8649 37.125 25.3125V48.9375ZM50.625 47.8744L41.0737 37.125L50.625 26.3756V47.8744Z" fill="#157EFC"/>
<path d="M23.625 47.25H16.875C16.4274 47.25 15.9982 47.0722 15.6818 46.7557C15.3653 46.4393 15.1875 46.0101 15.1875 45.5625V42.1875H11.8125C11.3649 42.1875 10.9357 42.0097 10.6193 41.6932C10.3028 41.3768 10.125 40.9476 10.125 40.5V33.75C10.125 33.3024 10.3028 32.8732 10.6193 32.5568C10.9357 32.2403 11.3649 32.0625 11.8125 32.0625H15.1875V28.6875C15.1875 28.2399 15.3653 27.8107 15.6818 27.4943C15.9982 27.1778 16.4274 27 16.875 27H23.625C24.0726 27 24.5018 27.1778 24.8182 27.4943C25.1347 27.8107 25.3125 28.2399 25.3125 28.6875V32.0625H28.6875C29.1351 32.0625 29.5643 32.2403 29.8807 32.5568C30.1972 32.8732 30.375 33.3024 30.375 33.75V40.5C30.375 40.9476 30.1972 41.3768 29.8807 41.6932C29.5643 42.0097 29.1351 42.1875 28.6875 42.1875H25.3125V45.5625C25.3125 46.0101 25.1347 46.4393 24.8182 46.7557C24.5018 47.0722 24.0726 47.25 23.625 47.25ZM18.5625 43.875H21.9375V40.5C21.9375 40.0524 22.1153 39.6232 22.4318 39.3068C22.7482 38.9903 23.1774 38.8125 23.625 38.8125H27V35.4375H23.625C23.1774 35.4375 22.7482 35.2597 22.4318 34.9432C22.1153 34.6268 21.9375 34.1976 21.9375 33.75V30.375H18.5625V33.75C18.5625 34.1976 18.3847 34.6268 18.0682 34.9432C17.7518 35.2597 17.3226 35.4375 16.875 35.4375H13.5V38.8125H16.875C17.3226 38.8125 17.7518 38.9903 18.0682 39.3068C18.3847 39.6232 18.5625 40.0524 18.5625 40.5V43.875Z" fill="#157EFC"/>
<path d="M45.5625 21.9375H45.3431C45.0298 21.8975 44.7339 21.7703 44.4893 21.5704C44.2447 21.3705 44.0611 21.106 43.9594 20.8069L42.66 16.875H28.6875C27.3448 16.875 26.0572 16.3416 25.1078 15.3922C24.1584 14.4428 23.625 13.1552 23.625 11.8125V5.0625C23.625 3.71984 24.1584 2.43217 25.1078 1.48277C26.0572 0.533369 27.3448 0 28.6875 0L48.9375 0C50.2802 0 51.5678 0.533369 52.5172 1.48277C53.4666 2.43217 54 3.71984 54 5.0625V11.8125C54.0217 13.004 53.6223 14.165 52.8722 15.091C52.1221 16.017 51.0694 16.6488 49.8994 16.875L46.9631 21.2625C46.8009 21.4791 46.5889 21.6534 46.3452 21.7709C46.1014 21.8884 45.833 21.9455 45.5625 21.9375ZM28.6875 3.375C28.2399 3.375 27.8107 3.55279 27.4943 3.86926C27.1778 4.18572 27 4.61495 27 5.0625V11.8125C27 12.2601 27.1778 12.6893 27.4943 13.0057C27.8107 13.3222 28.2399 13.5 28.6875 13.5H43.875C44.2288 13.4991 44.5739 13.6094 44.8616 13.8153C45.1492 14.0212 45.3649 14.3123 45.4781 14.6475L46.0687 16.4362L47.5369 14.2594C47.6897 14.0272 47.8976 13.8365 48.1419 13.704C48.3863 13.5715 48.6596 13.5014 48.9375 13.5C49.3851 13.5 49.8143 13.3222 50.1307 13.0057C50.4472 12.6893 50.625 12.2601 50.625 11.8125V5.0625C50.625 4.61495 50.4472 4.18572 50.1307 3.86926C49.8143 3.55279 49.3851 3.375 48.9375 3.375H28.6875Z" fill="#157EFC"/>
<path d="M32.0625 10.125C31.6149 10.125 31.1857 9.94721 30.8693 9.63074C30.5528 9.31427 30.375 8.88505 30.375 8.4375C30.375 7.98995 30.5528 7.56073 30.8693 7.24426C31.1857 6.92779 31.6149 6.75 32.0625 6.75C32.5101 6.75 32.9393 6.92779 33.2557 7.24426C33.5722 7.56073 33.75 7.98995 33.75 8.4375C33.75 8.88505 33.5722 9.31427 33.2557 9.63074C32.9393 9.94721 32.5101 10.125 32.0625 10.125Z" fill="#157EFC"/>
<path d="M38.8125 10.125C38.3649 10.125 37.9357 9.94721 37.6193 9.63074C37.3028 9.31427 37.125 8.88505 37.125 8.4375C37.125 7.98995 37.3028 7.56073 37.6193 7.24426C37.9357 6.92779 38.3649 6.75 38.8125 6.75C39.2601 6.75 39.6893 6.92779 40.0057 7.24426C40.3222 7.56073 40.5 7.98995 40.5 8.4375C40.5 8.88505 40.3222 9.31427 40.0057 9.63074C39.6893 9.94721 39.2601 10.125 38.8125 10.125Z" fill="#157EFC"/>
<path d="M45.5625 10.125C45.1149 10.125 44.6857 9.94721 44.3693 9.63074C44.0528 9.31427 43.875 8.88505 43.875 8.4375C43.875 7.98995 44.0528 7.56073 44.3693 7.24426C44.6857 6.92779 45.1149 6.75 45.5625 6.75C46.0101 6.75 46.4393 6.92779 46.7557 7.24426C47.0722 7.56073 47.25 7.98995 47.25 8.4375C47.25 8.88505 47.0722 9.31427 46.7557 9.63074C46.4393 9.94721 46.0101 10.125 45.5625 10.125Z" fill="#157EFC"/>
</g>
<defs>
<clipPath id="clip0_78_1419">
<rect width="54" height="54" fill="white"/>
</clipPath>
</defs>
</svg>
