<svg width="56" height="56" viewBox="0 0 56 56" fill="none" xmlns="http://www.w3.org/2000/svg">
<circle cx="28" cy="28" r="28" fill="white"/>
<path fill-rule="evenodd" clip-rule="evenodd" d="M28 35C31.866 35 35 31.866 35 28C35 24.134 31.866 21 28 21C24.134 21 21 24.134 21 28C21 31.866 24.134 35 28 35ZM28 32.6667C30.5773 32.6667 32.6667 30.5773 32.6667 28C32.6667 25.4227 30.5773 23.3333 28 23.3333C25.4227 23.3333 23.3333 25.4227 23.3333 28C23.3333 30.5773 25.4227 32.6667 28 32.6667Z" fill="#157EFC"/>
<path d="M35.0002 19.8333C34.3558 19.8333 33.8335 20.3556 33.8335 20.9999C33.8335 21.6442 34.3558 22.1666 35.0002 22.1666C35.6445 22.1666 36.1668 21.6442 36.1668 20.9999C36.1668 20.3556 35.6445 19.8333 35.0002 19.8333Z" fill="#157EFC"/>
<path fill-rule="evenodd" clip-rule="evenodd" d="M15.9295 18.9888C15.1665 20.4862 15.1665 22.4464 15.1665 26.3667V29.6334C15.1665 33.5538 15.1665 35.514 15.9295 37.0113C16.6006 38.3285 17.6714 39.3993 18.9886 40.0704C20.486 40.8334 22.4461 40.8334 26.3665 40.8334H29.6332C33.5535 40.8334 35.5137 40.8334 37.011 40.0704C38.3282 39.3993 39.3991 38.3285 40.0702 37.0113C40.8332 35.514 40.8332 33.5538 40.8332 29.6334V26.3667C40.8332 22.4464 40.8332 20.4862 40.0702 18.9888C39.3991 17.6717 38.3282 16.6008 37.011 15.9297C35.5137 15.1667 33.5535 15.1667 29.6332 15.1667H26.3665C22.4461 15.1667 20.486 15.1667 18.9886 15.9297C17.6714 16.6008 16.6006 17.6717 15.9295 18.9888ZM29.6332 17.5001H26.3665C24.3678 17.5001 23.0091 17.5019 21.9589 17.5877C20.9359 17.6713 20.4128 17.8228 20.0479 18.0087C19.1698 18.4561 18.4559 19.17 18.0085 20.0481C17.8225 20.4131 17.671 20.9362 17.5875 21.9592C17.5017 23.0094 17.4998 24.3681 17.4998 26.3667V29.6334C17.4998 31.6321 17.5017 32.9907 17.5875 34.041C17.671 35.064 17.8225 35.5871 18.0085 35.9521C18.4559 36.8301 19.1698 37.544 20.0479 37.9914C20.4128 38.1774 20.9359 38.3289 21.9589 38.4125C23.0091 38.4982 24.3678 38.5001 26.3665 38.5001H29.6332C31.6319 38.5001 32.9905 38.4982 34.0407 38.4125C35.0638 38.3289 35.5869 38.1774 35.9518 37.9914C36.8299 37.544 37.5437 36.8301 37.9912 35.9521C38.1771 35.5871 38.3287 35.064 38.4122 34.041C38.498 32.9907 38.4998 31.6321 38.4998 29.6334V26.3667C38.4998 24.3681 38.498 23.0094 38.4122 21.9592C38.3287 20.9362 38.1771 20.4131 37.9912 20.0481C37.5437 19.17 36.8299 18.4561 35.9518 18.0087C35.5869 17.8228 35.0638 17.6713 34.0407 17.5877C32.9905 17.5019 31.6319 17.5001 29.6332 17.5001Z" fill="#157EFC"/>
</svg>
