<svg width="56" height="56" viewBox="0 0 56 56" fill="none" xmlns="http://www.w3.org/2000/svg">
<circle cx="28" cy="28" r="28" fill="white"/>
<g clip-path="url(#clip0_78_1543)">
<path fill-rule="evenodd" clip-rule="evenodd" d="M38.7998 38.8H34.3998V31.1011C34.3998 28.9891 33.4681 27.8108 31.7972 27.8108C29.9789 27.8108 28.8998 29.0386 28.8998 31.1011V38.8H24.4998V24.5H28.8998V26.1082C28.8998 26.1082 30.2803 23.6858 33.3911 23.6858C36.503 23.6858 38.7998 25.5848 38.7998 29.514V38.8ZM19.486 22.213C18.0021 22.213 16.7998 21.0009 16.7998 19.506C16.7998 18.0122 18.0021 16.8 19.486 16.8C20.9688 16.8 22.1711 18.0122 22.1711 19.506C22.1722 21.0009 20.9688 22.213 19.486 22.213ZM16.7998 38.8H22.2998V24.5H16.7998V38.8Z" fill="#157EFC"/>
</g>
<defs>
<clipPath id="clip0_78_1543">
<rect width="22" height="22" fill="white" transform="translate(16.7998 16.8)"/>
</clipPath>
</defs>
</svg>
